<svg width="35" height="25" viewBox="0 0 35 25" fill="none" xmlns="http://www.w3.org/2000/svg">
<path d="M31.8199 24.1812H3.86907C2.11416 24.1812 0.688965 22.7544 0.688965 20.9975V3.18369C0.688965 1.42681 2.11416 0 3.86907 0H31.8199C33.5748 0 35 1.42681 35 3.18369V20.9975C35 22.7544 33.5748 24.1812 31.8199 24.1812Z" fill="#006FCF"/>
<mask id="mask0_1613_1845" style="mask-type:alpha" maskUnits="userSpaceOnUse" x="0" y="5" width="35" height="15">
<path d="M0.699585 5.73657V19.781H34.9787V5.73657H0.699585Z" fill="white"/>
</mask>
<g mask="url(#mask0_1613_1845)">
<path d="M30.7776 11.7313H33.3514V5.73657H30.6074V6.69487L30.0012 5.73657H27.6081V6.95042L27.0763 5.73657H23.1198C22.9284 5.73657 22.7476 5.74722 22.5667 5.77916C22.4178 5.80046 22.269 5.8324 22.1201 5.88564C22.0031 5.91758 21.8967 5.96018 21.7903 6.01342C21.6627 6.06665 21.5457 6.14119 21.4394 6.21572V6.01342V5.74722H8.52752L8.14463 6.78006L7.78301 5.73657H4.77309V6.96107L4.23066 5.73657H1.7738L0.699585 8.29205V11.1882V11.7206H2.43322L2.7523 10.8582H3.35853L3.68824 11.7206H17.0468V10.8475L17.7168 11.7206H21.4074V11.529V11.2841C21.5032 11.348 21.5989 11.4012 21.7053 11.4438C21.801 11.4864 21.9073 11.529 22.0137 11.5609C22.1413 11.6035 22.2689 11.6355 22.4072 11.6568C22.6199 11.6993 22.8326 11.71 23.0347 11.71H25.247L25.566 10.8475H26.1723L26.502 11.71H30.2032V10.8156L30.7776 11.7313ZM34.9787 19.419V13.797H34.6809H13.7178L13.1754 14.5636L12.6436 13.797H6.528V19.7917H12.6223L13.1541 19.0144L13.7072 19.7917H17.5254V18.4926H17.4829C17.9615 18.4926 18.3869 18.4075 18.7698 18.269V19.7917H21.4287V18.9186L22.0988 19.7917H33.6386C33.9683 19.7917 34.2767 19.7384 34.5639 19.632C34.6915 19.5681 34.8404 19.5042 34.9787 19.419Z" fill="#F7F7F7"/>
<mask id="mask1_1613_1845" style="mask-type:alpha" maskUnits="userSpaceOnUse" x="7" y="14" width="28" height="5">
<path d="M35 18.8145V14.7683H7.45337V18.8145H35Z" fill="white"/>
</mask>
<g mask="url(#mask1_1613_1845)">
<path d="M33.6387 18.0052H31.5647V18.8145H33.6068C34.4789 18.8145 35 18.2821 35 17.5261C35 16.802 34.5321 16.3868 33.745 16.3868H32.8091C32.5751 16.3868 32.4156 16.2377 32.4156 16.0035C32.4156 15.7586 32.5751 15.5988 32.8091 15.5988H34.564L34.9256 14.779H32.841C31.9689 14.779 31.4477 15.3113 31.4477 16.0354C31.4477 16.7807 31.9369 17.2067 32.7027 17.2067H33.628C33.862 17.2067 34.0216 17.3557 34.0216 17.6006C34.0322 17.8349 33.8727 18.0052 33.6387 18.0052ZM29.7992 18.0052H27.7252V18.8145H29.7672C30.6394 18.8145 31.1605 18.2821 31.1605 17.5261C31.1605 16.802 30.6926 16.3868 29.9055 16.3868H28.9696C28.7356 16.3868 28.576 16.2377 28.576 16.0035C28.576 15.7586 28.7356 15.5988 28.9696 15.5988H30.7245L31.0861 14.779H29.0015C28.1293 14.779 27.6082 15.3113 27.6082 16.0354C27.6082 16.7807 28.0974 17.2067 28.8632 17.2067H29.7885C30.0225 17.2067 30.182 17.3557 30.182 17.6006C30.1927 17.8349 30.0225 18.0052 29.7992 18.0052ZM27.1402 15.5882V14.7683H23.9069V18.8145H27.1402V17.9946H24.8748V17.1854H27.087V16.3761H24.8748V15.5882H27.1402V15.5882ZM21.7266 15.5882C22.0776 15.5882 22.2584 15.8118 22.2584 16.0886C22.2584 16.3655 22.0776 16.5891 21.7266 16.5891H20.5886V15.5882H21.7266ZM20.5886 17.3557H21.0459L22.2478 18.8145H23.4496L22.1095 17.3238C22.8008 17.196 23.205 16.6956 23.205 16.0567C23.205 15.3007 22.6732 14.779 21.8117 14.779H19.6207V18.8251H20.5886V17.3557ZM18.1211 16.1206C18.1211 16.3974 17.9509 16.621 17.6105 16.621H16.4513V15.6308H17.6105C17.9403 15.6308 18.1211 15.8437 18.1211 16.1206ZM15.4728 14.7683V18.8145H16.4406V17.4835H17.6531C18.5359 17.4835 19.0889 16.9085 19.0889 16.1312C19.0889 15.3326 18.5571 14.779 17.6956 14.779H15.4728V14.7683ZM14.0476 18.8145H15.26L13.6434 16.7807L15.2494 14.779H14.0688L13.0797 16.0567L12.0906 14.779H10.8781L12.4947 16.802L10.8887 18.8251H12.0693L13.0584 17.5261L14.0476 18.8145ZM10.6866 15.5882V14.7683H7.45337V18.8145H10.6866V17.9946H8.42124V17.1854H10.6335V16.3761H8.42124V15.5882H10.6866V15.5882Z" fill="#006FCF"/>
</g>
<path d="M29.4268 8.33443L29.4162 8.00435L29.6183 8.33443L31.1604 10.7515H32.2878V6.70532H31.3412V9.04784L31.3519 9.34597L31.1711 9.04784L29.6608 6.70532H28.4696V10.7515H29.4162V8.33443H29.4268ZM25.566 8.21731L25.8638 7.46132L26.1616 8.21731L26.5232 9.11172H25.2257L25.566 8.21731ZM27.172 10.7515H28.2569L26.5339 6.70532H25.2576L23.5239 10.7515H24.5556L24.896 9.88901H26.821L27.172 10.7515ZM22.939 10.7515H22.9922L23.3857 9.88901H23.0879C22.4285 9.88901 22.0349 9.47375 22.0349 8.76035V8.69646C22.0349 8.05759 22.3859 7.57844 23.0772 7.57844H24.1302V6.70532H23.0028C21.7584 6.70532 21.0777 7.5465 21.0777 8.69646V8.77099C21.0777 9.96355 21.7797 10.7408 22.939 10.7515ZM19.493 10.7515H20.4608V8.9733V6.70532H19.493V8.94136V10.7515ZM17.4615 7.53585C17.8125 7.53585 17.9933 7.75945 17.9933 8.0363C17.9933 8.31314 17.8125 8.53674 17.4615 8.53674H16.3235V7.53585H17.4615V7.53585ZM16.3235 9.29274H16.7809L17.9827 10.7515H19.1846L17.8444 9.26079C18.5358 9.13302 18.9399 8.63257 18.9399 7.99371C18.9399 7.23771 18.4081 6.71597 17.5466 6.71597H15.3557V10.7621H16.3235V9.29274ZM14.6431 7.5252V6.70532H11.4098V10.7515H14.6431V9.92096H12.3777V9.12237H14.5899V8.31314H12.3777V7.5252H14.6431ZM6.61305 7.99371L6.59179 6.89698L7.70854 10.7515H8.58067L9.69743 6.91828L9.67616 7.98306V10.7515H10.6121V6.70532H8.89974L8.13397 9.56958L7.35756 6.70532H5.65583V10.7515H6.59179V7.99371H6.61305ZM2.75227 8.21731L3.05006 7.46132L3.34787 8.21731L3.70949 9.11172H2.40128L2.75227 8.21731ZM4.35827 10.7515H5.45375L3.73076 6.70532H2.45446L0.720825 10.7515H1.7525L2.09284 9.88901H4.01792L4.35827 10.7515Z" fill="#006FCF"/>
</g>
</svg>
