<svg width="16" height="17" viewBox="0 0 16 17" fill="none" xmlns="http://www.w3.org/2000/svg">
<path d="M7.59375 6.9375V9.0625C8.40625 9.25 9.125 9.5625 9.875 9.78125V7.65625C9.0625 7.46875 8.34375 7.15625 7.59375 6.9375ZM14.5625 3.09375C13.5 3.59375 12.1875 4.09375 10.9062 4.09375C9.25 4.09375 7.84375 3 5.75 3C4.96875 3 4.28125 3.15625 3.625 3.375C3.71875 3.15625 3.75 2.90625 3.71875 2.65625C3.6875 1.75 2.9375 1.0625 2.0625 1C1.0625 0.96875 0.25 1.78125 0.25 2.75C0.25 3.34375 0.53125 3.875 1 4.1875V16.25C1 16.6875 1.3125 17 1.75 17H2.25C2.65625 17 3 16.6875 3 16.25V13.3125C3.875 12.9375 4.96875 12.625 6.5625 12.625C8.25 12.625 9.625 13.7188 11.7188 13.7188C13.2188 13.7188 14.4375 13.1875 15.5625 12.4375C15.8125 12.25 15.9688 11.9375 15.9688 11.5938V4C16 3.28125 15.2188 2.8125 14.5625 3.09375ZM5.28125 11.1875C4.46875 11.2812 3.71875 11.4375 3 11.7188V9.5C3.8125 9.21875 4.46875 9.03125 5.28125 8.96875V11.1875ZM14.5 6.96875C13.75 7.28125 13.0312 7.59375 12.1875 7.71875V9.9375C12.9688 9.84375 13.7812 9.59375 14.5 9.125V11.3438C13.6875 11.8438 12.9688 12.125 12.1875 12.1875V9.9375C11.3438 10.0625 10.6875 10 9.875 9.78125V11.875C9.125 11.6562 8.40625 11.375 7.59375 11.2188V9.0625C6.96875 8.9375 6.3125 8.875 5.28125 8.96875V6.78125C4.59375 6.875 3.90625 7.09375 3 7.4375V5.21875C4.03125 4.84375 4.5625 4.59375 5.28125 4.53125V6.78125C6.125 6.65625 6.8125 6.71875 7.59375 6.9375V4.84375C8.3125 5.0625 9.0625 5.375 9.875 5.5V7.65625C10.625 7.8125 11.375 7.875 12.1875 7.71875V5.46875C13.0312 5.34375 13.8125 5.0625 14.5 4.78125V6.96875Z" fill="white"/>
</svg>
