<svg width="43" height="30" fill="none" xmlns="http://www.w3.org/2000/svg"><path d="M0 0v24.88h2.367c.04 1.331.6 2.594 1.563 3.522a5.175 5.175 0 003.59 1.446c1.342 0 2.63-.518 3.592-1.446a5.104 5.104 0 001.562-3.522h14.59V0H0zm11.316 24.88a3.759 3.759 0 01-1.157 2.582 3.812 3.812 0 01-2.638 1.06c-.985 0-1.93-.38-2.639-1.06a3.76 3.76 0 01-1.157-2.582v-.04c0-.447.082-.89.24-1.308a3.77 3.77 0 011.39-1.785 3.812 3.812 0 014.336 0 3.77 3.77 0 011.63 3.093l-.005.04zm14.59-1.348H12.497a5.11 5.11 0 00-1.834-2.753 5.17 5.17 0 00-6.29 0 5.109 5.109 0 00-1.835 2.753h-1.18V1.349h24.547v22.183z" fill="url(#paint0_linear_1340:1665)"/><path d="M35.678 5.506H28.25V24.88h1.996c0 1.358.543 2.66 1.51 3.62s2.278 1.5 3.646 1.5c1.367 0 2.678-.54 3.645-1.5a5.102 5.102 0 001.51-3.62h2.001V12.155l-6.88-6.649zM39.2 24.88c0 1-.4 1.96-1.113 2.667a3.811 3.811 0 01-2.685 1.104 3.812 3.812 0 01-2.686-1.104 3.758 3.758 0 01-1.112-2.667v-.04c0-.447.082-.89.24-1.308a3.77 3.77 0 011.39-1.785 3.812 3.812 0 014.335 0 3.77 3.77 0 011.63 3.093v.04zm2-1.348h-.833a5.109 5.109 0 00-1.834-2.753 5.17 5.17 0 00-6.29 0 5.109 5.109 0 00-1.834 2.753h-.815V6.855h5.518l6.075 5.87.013 10.807z" fill="url(#paint1_linear_1340:1665)"/><defs><linearGradient id="paint0_linear_1340:1665" x1="-1.773" y1="14.754" x2="44.468" y2="14.754" gradientUnits="userSpaceOnUse"><stop stop-color="#5B40D7"/><stop offset="1" stop-color="#E85F62"/></linearGradient><linearGradient id="paint1_linear_1340:1665" x1="-1.773" y1="14.754" x2="44.468" y2="14.754" gradientUnits="userSpaceOnUse"><stop stop-color="#5B40D7"/><stop offset="1" stop-color="#E85F62"/></linearGradient></defs></svg>