<svg width="32" height="29" viewBox="0 0 32 29" fill="none" xmlns="http://www.w3.org/2000/svg">
<path d="M15.9913 2.81046L19.7573 10.0936L20.0577 10.6781L20.7369 10.7734L29.1831 11.9424L23.0879 17.6131L22.6003 18.069L22.7135 18.7115L24.1546 26.7201L16.6052 22.9397L15.9956 22.6329L15.3905 22.9397L7.83673 26.7201L9.28218 18.7115L9.39538 18.069L8.90341 17.6131L2.80817 11.9424L11.2501 10.7734L11.9292 10.6781L12.234 10.0936L16.0087 2.81046H15.9913ZM16.0087 0L11.0629 9.53402L0 11.0636L8.00218 18.5084L6.11266 29L16.0044 24.0257L25.9004 29L23.9978 18.5084L32 11.0802L20.9415 9.5506L15.9913 0.0165781L16.0087 0Z" fill="white"/>
</svg>
