<svg width="36" height="34" viewBox="0 0 36 34" fill="none" xmlns="http://www.w3.org/2000/svg">
<path d="M15.5533 11.5458L14.8988 10.7074L17.5378 10.7108L15.7023 8.32265L13.0382 8.31957L11.8937 12.2898L14.4088 15.516L15.5533 11.5458Z" fill="url(#paint0_linear_1598_1849)"/>
<path d="M19.6402 20.3503C19.6748 20.3304 19.7093 20.3105 19.7426 20.289C19.7805 20.265 19.8156 20.2408 19.8522 20.2152C19.8903 20.1898 19.9299 20.1645 19.968 20.1391C20.0077 20.1124 20.0448 20.0825 20.0833 20.0541C20.1168 20.0297 20.1519 20.0054 20.1856 19.9796C20.253 19.9278 20.3194 19.873 20.3857 19.8182C20.4068 19.7998 20.4279 19.7814 20.4476 19.7629C20.4915 19.7248 20.5354 19.6868 20.5779 19.6471C20.6024 19.6247 20.6256 19.6006 20.6502 19.5782C20.688 19.541 20.7274 19.5039 20.7653 19.4667C20.7901 19.4413 20.8149 19.416 20.8397 19.3906C20.8596 19.3707 20.8794 19.3507 20.8994 19.3292C20.9092 19.32 20.9179 19.3076 20.9263 19.2982C21.013 19.2043 21.0985 19.1073 21.1801 19.0055C21.1904 18.9919 21.2022 18.9784 21.2125 18.9648C21.2874 18.8711 21.3596 18.7742 21.4306 18.6757C21.4409 18.662 21.451 18.6499 21.4598 18.6361C21.465 18.6293 21.4703 18.621 21.4756 18.6127C21.5539 18.5003 21.6297 18.3846 21.7029 18.2642C21.7174 18.2392 21.7317 18.2157 21.7461 18.1907C21.8199 18.066 21.8923 17.9397 21.9624 17.8072L21.9641 17.8059C22.0101 17.7194 22.0536 17.6298 22.097 17.5401C22.1083 17.5178 22.1182 17.4938 22.1279 17.4712C22.1603 17.4025 22.1929 17.3323 22.2241 17.2605C22.2396 17.2253 22.2539 17.1886 22.2694 17.1534C22.2949 17.0942 22.3205 17.0336 22.3446 16.9728C22.3608 16.9318 22.3755 16.8907 22.3918 16.8482C22.4105 16.7972 22.4305 16.7478 22.4494 16.6953C22.4516 16.6881 22.4538 16.681 22.4561 16.6739C22.4813 16.6029 22.5068 16.529 22.5308 16.4565C22.5434 16.421 22.556 16.3855 22.5673 16.3484C22.6028 16.2373 22.6382 16.1262 22.671 16.0118L24.5892 9.39586C24.6265 9.26726 24.6604 9.14271 24.6912 9.01931C24.7012 8.9806 24.7098 8.94174 24.7183 8.90288C24.7391 8.81819 24.7583 8.7348 24.7744 8.65255C24.778 8.63231 24.7847 8.61093 24.7884 8.5907C24.7939 8.56625 24.7965 8.54148 24.8021 8.51703C24.8146 8.45502 24.8254 8.39431 24.8349 8.33345C24.8427 8.28715 24.8504 8.24231 24.8568 8.19586C24.8663 8.135 24.8739 8.07689 24.8817 8.01733C24.8878 7.97379 24.8924 7.93009 24.8969 7.88786C24.9033 7.82814 24.908 7.76972 24.9126 7.71277C24.9154 7.67183 24.9196 7.6325 24.9209 7.59287C24.9243 7.53284 24.9263 7.47266 24.9266 7.41378C24.9268 7.38434 24.9299 7.35521 24.9299 7.32723C24.9305 7.3214 24.9297 7.31542 24.929 7.30798C24.9294 7.26237 24.9281 7.21951 24.9269 7.17519C24.9255 7.13233 24.9256 7.08963 24.9227 7.04807C24.9199 7.00506 24.9154 6.96335 24.9126 6.92034C24.9095 6.88024 24.9066 6.83868 24.9018 6.79988C24.8974 6.75817 24.8899 6.7176 24.8839 6.67719C24.8777 6.63824 24.8729 6.59944 24.8666 6.56195C24.859 6.52284 24.8498 6.48357 24.842 6.44592C24.8341 6.40973 24.8263 6.37207 24.8183 6.33588C24.8091 6.29807 24.7967 6.26141 24.7859 6.22491C24.7763 6.19001 24.7667 6.15512 24.7542 6.11992C24.7419 6.08325 24.7278 6.04935 24.7153 6.01415C24.7026 5.9804 24.6915 5.94681 24.6772 5.91436C24.6631 5.88046 24.6459 5.8477 24.6302 5.8151C24.6158 5.78411 24.6015 5.75167 24.5857 5.72052C24.5685 5.68777 24.5495 5.65777 24.5308 5.62632C24.5159 5.5997 24.5011 5.57162 24.4847 5.5463C24.4835 5.54323 24.4808 5.54147 24.4796 5.5384C24.4404 5.4768 24.3996 5.41649 24.3554 5.36024L24.3541 5.35863L22.5187 2.97052C22.5627 3.02822 22.605 3.08868 22.6442 3.15028C22.6618 3.17867 22.6793 3.20851 22.6953 3.2382C22.7141 3.26966 22.733 3.29965 22.7488 3.33225C22.7646 3.3634 22.779 3.39439 22.7933 3.42683C22.809 3.45943 22.8247 3.49203 22.8403 3.52609C22.8546 3.55854 22.8657 3.59213 22.8784 3.62588C22.8923 3.66123 22.905 3.69498 22.9173 3.73164C22.9285 3.76523 22.9379 3.80158 22.949 3.83663C22.9598 3.87314 22.9707 3.90964 22.9814 3.94761C22.9908 3.98396 22.9972 4.02145 23.0052 4.05765C23.0128 4.09676 23.0221 4.13457 23.0297 4.17367C23.0361 4.21117 23.0408 4.24997 23.047 4.28892C23.053 4.32933 23.0591 4.36974 23.0649 4.41161C23.0697 4.45041 23.0726 4.49196 23.0757 4.53206C23.0785 4.57508 23.083 4.61679 23.0858 4.6598C23.0873 4.7012 23.0886 4.74406 23.0901 4.78547C23.0913 4.82978 23.0927 4.87264 23.0923 4.91825C23.0915 4.95352 23.0907 4.98879 23.0899 5.02405C23.0881 5.08278 23.0877 5.14166 23.0841 5.20314C23.0814 5.24262 23.0785 5.28356 23.0758 5.32304C23.0711 5.38145 23.0664 5.43987 23.0602 5.49813C23.0557 5.54037 23.0496 5.58391 23.045 5.6276C23.0372 5.68716 23.0295 5.74527 23.0201 5.80613C23.0138 5.85113 23.006 5.89743 22.9981 5.94372C22.9872 6.00443 22.9764 6.06514 22.9653 6.12731C22.9562 6.17199 22.947 6.21668 22.9378 6.26136C22.9203 6.34346 22.9009 6.4283 22.8801 6.513C22.8716 6.55186 22.8617 6.58911 22.8532 6.62797C22.8223 6.75137 22.7885 6.87592 22.7512 7.00452L20.8329 13.6205C20.8001 13.7348 20.7647 13.8459 20.7293 13.9571C20.718 13.9942 20.7039 14.0295 20.6926 14.0666C20.6686 14.1392 20.6433 14.2116 20.618 14.2825C20.5969 14.3422 20.5747 14.3987 20.5523 14.4567C20.5361 14.4977 20.5214 14.5389 20.5053 14.5799C20.481 14.6421 20.4555 14.7013 20.4299 14.7619C20.4144 14.7971 20.4001 14.8338 20.386 14.8692C20.3548 14.941 20.3224 15.0097 20.2899 15.0799C20.2787 15.1023 20.2688 15.1263 20.259 15.1488C20.2154 15.2399 20.1705 15.3294 20.1257 15.4174C20.057 15.5501 19.9846 15.6764 19.9109 15.8012C19.8964 15.8261 19.882 15.8511 19.8677 15.8746C19.7945 15.9935 19.7187 16.1107 19.6403 16.2231C19.6247 16.2451 19.6107 16.2657 19.5953 16.2861C19.5243 16.3846 19.4521 16.4815 19.3772 16.5752C19.3669 16.5888 19.3566 16.6025 19.3448 16.616C19.2634 16.7163 19.1778 16.8133 19.091 16.9086C19.0626 16.9395 19.0328 16.9702 19.0045 17.0011C18.9796 17.0264 18.9548 17.0518 18.93 17.0771C18.8921 17.1143 18.8542 17.1516 18.8163 17.1888C18.7918 17.2112 18.7686 17.2353 18.7441 17.2577C18.7015 17.2974 18.6577 17.3354 18.6138 17.3735C18.5927 17.3918 18.573 17.4104 18.5519 17.4288C18.487 17.4837 18.4192 17.5384 18.3518 17.5902C18.2922 17.6369 18.2301 17.6803 18.1678 17.7253C18.1565 17.7344 18.1453 17.742 18.1326 17.751C18.064 17.7997 17.9927 17.8451 17.9215 17.8906C17.9167 17.8945 17.912 17.897 17.9072 17.9009C17.8376 17.945 17.7683 17.9863 17.696 18.0272C17.6883 18.0308 17.6818 18.036 17.6739 18.0411C17.5986 18.0831 17.5235 18.1238 17.4455 18.1641C17.4408 18.1665 17.4375 18.1691 17.433 18.1701C17.3769 18.1981 17.3194 18.2258 17.262 18.2521C17.2357 18.2641 17.2106 18.2776 17.1843 18.2895C17.1254 18.3157 17.0668 18.3404 17.0066 18.3649C16.9804 18.3754 16.9555 18.3875 16.9293 18.398C16.86 18.426 16.7895 18.4509 16.7173 18.4771C16.7005 18.4827 16.6835 18.4897 16.6666 18.4967C16.5899 18.5239 16.5121 18.5481 16.4343 18.5722C16.422 18.5768 16.4097 18.5814 16.3961 18.5844C16.3306 18.6039 16.2638 18.6219 16.197 18.6398C16.1711 18.6474 16.1452 18.6549 16.1179 18.6623C15.9496 18.7049 15.7774 18.7425 15.6015 18.7739C15.5804 18.7776 15.5608 18.7814 15.5412 18.7852C15.481 18.7965 15.4182 18.8046 15.3567 18.8142C15.3177 18.8204 15.2801 18.8267 15.2413 18.8314C15.15 18.8438 15.0588 18.8548 14.9663 18.8641C14.9558 18.8659 14.9454 18.8663 14.9349 18.8681C14.8634 18.8753 14.7905 18.8808 14.7176 18.8863C14.6849 18.8887 14.652 18.8926 14.6195 18.8935C14.5497 18.8979 14.4785 18.9007 14.4089 18.9036C14.3718 18.9055 14.3347 18.9075 14.2976 18.9094C14.1896 18.9127 14.0788 18.9142 13.9681 18.9142L9.9705 18.9094L6.89146 29.4954L0.22973 29.4875L2.06724 31.87L8.72897 31.8778L11.808 21.2919L15.8056 21.2967C16.0284 21.2967 16.2445 21.2902 16.4568 21.2774C16.4686 21.2772 16.4821 21.2757 16.4941 21.274C16.5877 21.2678 16.68 21.2599 16.7723 21.252C16.7797 21.2513 16.7886 21.2508 16.7962 21.2487C16.8916 21.2397 16.9859 21.2276 17.0801 21.2155C17.095 21.2141 17.1086 21.2111 17.122 21.2096C17.209 21.1968 17.2943 21.1852 17.3801 21.1693C17.4191 21.1631 17.4569 21.1539 17.4945 21.1476C17.5532 21.1361 17.6133 21.1263 17.6722 21.1134C17.7054 21.1066 17.7387 21.0984 17.772 21.0901C17.834 21.0761 17.896 21.062 17.9581 21.0466C18.0036 21.0352 18.0478 21.0222 18.0934 21.0094C18.1405 20.9967 18.189 20.9842 18.2362 20.97C18.2896 20.9536 18.3432 20.9357 18.3967 20.9179C18.4334 20.9055 18.47 20.8947 18.5067 20.8824C18.5588 20.8644 18.6112 20.8434 18.6634 20.8239C18.6988 20.81 18.7355 20.7977 18.7695 20.7836C18.8327 20.7579 18.8946 20.7306 18.9563 20.7048C18.9795 20.6955 19.0026 20.6861 19.0242 20.6767C19.0831 20.6505 19.1408 20.6213 19.1983 20.5935C19.2232 20.5814 19.2479 20.5708 19.2714 20.5586C19.3291 20.5293 19.384 20.4983 19.4404 20.4675C19.464 20.4538 19.4887 20.4432 19.5123 20.4295C19.5549 20.4031 19.5975 20.3767 19.6402 20.3503Z" fill="url(#paint1_linear_1598_1849)"/>
<path d="M18.9573 1.70825C22.5079 1.71268 23.775 3.47925 22.7513 7.00572L20.833 13.6216C19.8105 17.1512 17.5224 18.9143 13.9688 18.9096L9.97122 18.9048L6.89217 29.4907L0.230441 29.4829L7.52418 4.34132L5.63089 1.69224L18.9573 1.70825ZM14.558 12.2924L15.7026 8.32217L13.0384 8.31909L11.8939 12.2893L14.558 12.2924Z" fill="white" stroke="#5B40D7" stroke-width="0.2" stroke-miterlimit="10" stroke-linecap="round"/>
<path d="M33.3591 1.6333L25.2797 29.4767L18.6049 29.4675L20.4442 31.8604L27.1192 31.8682L35.1984 4.02625L33.3591 1.6333Z" fill="url(#paint2_linear_1598_1849)"/>
<path d="M25.9904 4.26394L24.1578 1.69643L33.2621 1.70887L25.225 29.4051L18.7034 29.3974L25.9904 4.26394Z" fill="white"/>
<path d="M33.1636 1.77898L25.17 29.3296L18.8003 29.3218L26.0501 4.31698L26.0692 4.2483L26.028 4.19091L24.2995 1.76849L33.1636 1.77898ZM33.3591 1.6333L24.0156 1.62197L25.9099 4.27557L18.6049 29.4675L25.2799 29.4753L33.3591 1.6333Z" fill="#5B40D7"/>
<defs>
<linearGradient id="paint0_linear_1598_1849" x1="249.466" y1="40.6321" x2="-51.3093" y2="-6.90806" gradientUnits="userSpaceOnUse">
<stop stop-color="#E85F62"/>
<stop offset="1" stop-color="#5B40D7"/>
</linearGradient>
<linearGradient id="paint1_linear_1598_1849" x1="248.761" y1="46.3846" x2="-54.3734" y2="10.706" gradientUnits="userSpaceOnUse">
<stop stop-color="#E85F62"/>
<stop offset="1" stop-color="#5B40D7"/>
</linearGradient>
<linearGradient id="paint2_linear_1598_1849" x1="156.089" y1="32.5707" x2="-49.5438" y2="7.37226" gradientUnits="userSpaceOnUse">
<stop stop-color="#E85F62"/>
<stop offset="1" stop-color="#5B40D7"/>
</linearGradient>
</defs>
</svg>
