<svg width="29" height="29" viewBox="0 0 29 29" fill="none" xmlns="http://www.w3.org/2000/svg">
<path d="M3.84359 3.17712L5.9439 4.63519L6.10353 5.04942L5.63727 5.50921L6.532 6.38737L12.102 11.9049L11.661 12.3191L5.20879 5.95658L4.73833 6.41637L4.31826 6.25896L2.83963 4.18783L3.34792 3.68662L3.85618 3.18126L3.84359 3.17712ZM3.71337 1.56578L1.19299 4.05113L3.50334 7.29867L5.06596 7.8703L5.213 7.72533L11.6652 14.0878L13.8873 11.8966L7.43092 5.52578L7.57796 5.3808L6.99827 3.83988L3.70076 1.56164L3.71337 1.56578Z" fill="white"/>
<path d="M17.5041 16.6602L17.588 16.7555C17.7099 16.9004 17.7897 16.9916 17.8905 17.091C18.2814 17.4747 18.7739 17.7423 19.3117 17.8632C19.8494 17.984 20.4108 17.9533 20.9318 17.7745L27.1319 23.8884L27.2159 23.9837C27.587 24.4265 27.7783 24.9894 27.7527 25.5634C27.7271 26.1373 27.4864 26.6814 27.0773 27.0904C26.6645 27.497 26.1126 27.7368 25.5297 27.7629C24.9469 27.7889 24.3752 27.5993 23.9268 27.2312L23.8428 27.1608L17.6259 21.0178C17.8086 20.504 17.8409 19.9498 17.719 19.4187C17.5972 18.8875 17.3262 18.401 16.937 18.0147C16.8361 17.9153 16.7395 17.8366 16.5967 17.7165L16.5001 17.6378L17.5041 16.6436V16.6602ZM17.567 14.8252L14.656 17.704C15.7062 18.6278 15.8868 18.7438 16.0464 18.9012C16.353 19.2107 16.5247 19.6262 16.5247 20.0589C16.5247 20.4916 16.353 20.9071 16.0464 21.2167L23.0867 28.1923C23.7791 28.7344 24.6499 29.006 25.5325 28.9551C26.4152 28.9042 27.2479 28.5344 27.8715 27.9163C28.4951 27.2983 28.866 26.4753 28.9132 25.6047C28.9604 24.7341 28.6807 23.8768 28.1274 23.1967L21.0704 16.2377C20.7563 16.5413 20.334 16.7113 19.8942 16.7113C19.4544 16.7113 19.0321 16.5413 18.718 16.2377C18.5626 16.0844 18.445 15.9022 17.5041 14.8666L17.567 14.8252Z" fill="white"/>
<path d="M22.9313 1.27997C23.2945 1.28034 23.6566 1.32063 24.0108 1.40009L20.8898 4.33281L21.0872 5.04528L21.5366 6.70219L21.7257 7.39395L24.8089 8.21411L25.3214 7.70462L27.699 5.36424C27.7312 5.58509 27.7467 5.80802 27.7452 6.03114C27.7441 7.29348 27.2353 8.50385 26.3306 9.39685C25.4258 10.2898 24.1988 10.7926 22.9186 10.7947C22.7178 10.7915 22.5173 10.7777 22.318 10.7533L21.7047 10.6746L11.2031 21.0303L10.7368 21.4942L10.8544 22.1321C10.9101 22.416 10.9382 22.7045 10.9385 22.9937C10.9385 23.936 10.655 24.8572 10.124 25.6407C9.59303 26.4241 8.83835 27.0347 7.95541 27.3951C7.07246 27.7555 6.10093 27.8496 5.16375 27.6655C4.22656 27.4813 3.36583 27.0272 2.69041 26.3606C2.01499 25.694 1.55523 24.8448 1.36931 23.9205C1.18339 22.9962 1.27965 22.0383 1.64592 21.1679C2.01219 20.2975 2.63202 19.5538 3.42699 19.0309C4.22195 18.508 5.15633 18.2293 6.11194 18.2301C6.33699 18.2321 6.5616 18.2501 6.78403 18.284L7.40571 18.3709L7.82578 17.9319L17.8233 8.07742L18.298 7.6052L18.1677 6.95487C18.1058 6.64937 18.0749 6.33854 18.0753 6.027C18.0764 4.76505 18.5853 3.5551 19.4902 2.66276C20.3951 1.77043 21.6221 1.26864 22.9019 1.26754L22.9313 1.27997ZM6.96465 25.9181L7.48132 25.4087L8.69952 24.2115L9.21198 23.702L9.02297 23.0103L8.57771 21.3534L8.38867 20.6616L7.68718 20.4752L6.00692 20.0361L5.3054 19.8497L4.78873 20.3551L3.57474 21.5563L3.05807 22.0658L3.2471 22.7576L3.69237 24.4145L3.8814 25.1063L4.5829 25.2927L6.26316 25.7318L6.96465 25.9181ZM22.9019 0.0248613C22.002 0.0242948 21.1132 0.220635 20.2995 0.599732C19.4859 0.978829 18.7676 1.53123 18.1967 2.21711C17.6257 2.903 17.2161 3.70528 16.9976 4.5661C16.779 5.42692 16.7569 6.32484 16.9327 7.19512L6.93525 17.0537C6.65704 17.013 6.37636 16.9908 6.09512 16.9874C4.89027 16.9866 3.71225 17.3382 2.71005 17.9977C1.70785 18.6571 0.926504 19.5949 0.464853 20.6923C0.00320137 21.7898 -0.118018 22.9976 0.116526 24.1629C0.351071 25.3283 0.930836 26.3989 1.7825 27.2393C2.63416 28.0797 3.71947 28.6522 4.9011 28.8843C6.08274 29.1164 7.30764 28.9977 8.42085 28.5432C9.53406 28.0887 10.4856 27.3189 11.1551 26.3311C11.8245 25.3432 12.1818 24.1818 12.1818 22.9937C12.1814 22.6309 12.1462 22.2689 12.0768 21.9126L22.1583 11.9711C22.4089 12.0059 22.6615 12.0238 22.9145 12.025C23.977 12.0241 25.0209 11.7491 25.9423 11.2272C26.8638 10.7054 27.6308 9.95501 28.1671 9.05048C28.7035 8.14595 28.9905 7.11879 28.9998 6.07101C29.009 5.02324 28.7401 3.99131 28.2198 3.07771L24.4393 6.80575L22.759 6.35838L22.3054 4.70147L26.2539 0.973437C25.2675 0.337274 24.1141 -0.00104679 22.9355 2.43307e-06L22.9019 0.0248613ZM6.6202 24.5429L4.93995 24.1038L4.49468 22.4469L5.71287 21.2498L7.39313 21.6889L7.83839 23.3458L6.6244 24.5429H6.6202Z" fill="white"/>
<path d="M26.1644 24.9043L21.112 19.922C20.7412 19.5564 20.1408 19.5558 19.7709 19.9205C19.401 20.2853 19.4016 20.8774 19.7724 21.243L24.8248 26.2253C25.1956 26.5908 25.796 26.5915 26.1659 26.2267C26.5358 25.8619 26.5352 25.2698 26.1644 24.9043Z" fill="white"/>
<path d="M20.4445 19.6468C20.2573 19.6473 20.0745 19.7023 19.919 19.8049C19.7635 19.9076 19.6422 20.0532 19.5704 20.2236C19.4985 20.394 19.4794 20.5816 19.5154 20.7627C19.5513 20.9438 19.6407 21.1104 19.7724 21.2415L24.8131 26.2123C24.9004 26.3003 25.0046 26.3703 25.1197 26.418C25.2347 26.4658 25.3583 26.4904 25.4831 26.4904C25.608 26.4904 25.7316 26.4658 25.8466 26.418C25.9617 26.3703 26.0659 26.3003 26.1531 26.2123C26.3301 26.0375 26.4295 25.8006 26.4295 25.5536C26.4295 25.3067 26.3301 25.0698 26.1531 24.895L21.1124 19.9243C20.9353 19.7494 20.6951 19.6511 20.4445 19.6509V19.6468Z" fill="white"/>
</svg>
