<svg width="48" height="29" viewBox="0 0 48 29" fill="none" xmlns="http://www.w3.org/2000/svg">
<path d="M20.7587 2.81669H13.2147L12.4155 4.0539H19.6466C19.9975 3.625 20.3697 3.2126 20.7587 2.81669Z" fill="white"/>
<path d="M17.5956 7.23763H6.05128L5.25205 8.47483H17.0501C17.2165 8.05693 17.3983 7.64453 17.5956 7.23763Z" fill="white"/>
<path d="M16.1579 11.6668H0.799231L0 12.904H15.9887C16.0268 12.4875 16.086 12.0751 16.1579 11.6668Z" fill="white"/>
<path d="M15.9887 16.0919H6.05128L5.25205 17.3291H16.1579C16.086 16.9208 16.0268 16.5084 15.9887 16.0919Z" fill="white"/>
<path d="M17.0501 20.5169H10.4322L9.63298 21.7541H17.5999C17.3997 21.35 17.2165 20.9376 17.0501 20.5169Z" fill="white"/>
<path d="M16.9571 24.942L16.1579 26.1792H20.7587C20.3697 25.7668 19.9975 25.3544 19.6466 24.942H16.9571Z" fill="white"/>
<path d="M33.1361 5.86733e-07C30.1953 -0.000815114 27.3203 0.848902 24.8747 2.44169C22.4291 4.03447 20.5227 6.29877 19.3968 8.94823C18.2708 11.5977 17.9757 14.5133 18.5489 17.3263C19.1222 20.1393 20.5379 22.7233 22.617 24.7516C24.6962 26.7798 27.3455 28.1613 30.2297 28.7211C33.114 29.2809 36.1036 28.994 38.8207 27.8966C41.5377 26.7993 43.8601 24.9408 45.494 22.5562C47.1279 20.1716 48 17.368 48 14.5C48 10.6551 46.4341 6.96756 43.6467 4.2484C40.8593 1.52925 37.0786 0.00109414 33.1361 5.86733e-07ZM33.1361 27.7587C30.446 27.7595 27.8161 26.9822 25.579 25.5252C23.342 24.0682 21.5982 21.9969 20.5684 19.5732C19.5385 17.1496 19.2689 14.4826 19.7935 11.9094C20.3181 9.33632 21.6134 6.97274 23.5156 5.11766C25.4178 3.26257 27.8414 1.99934 30.4798 1.48772C33.1182 0.976105 35.853 1.2391 38.3381 2.24344C40.8233 3.24778 42.9472 4.94835 44.4412 7.13003C45.9352 9.31172 46.7322 11.8765 46.7314 14.5C46.7269 18.0151 45.2931 21.3849 42.7445 23.8705C40.1958 26.356 36.7404 27.7543 33.1361 27.7587Z" fill="white"/>
<path d="M33.7704 3.30332C33.5308 3.28683 33.2898 3.27858 33.0473 3.27858C32.8613 3.27858 32.6794 3.27858 32.5018 3.27858V14.7433L36.925 19.057C37.1442 18.9928 37.3443 18.8783 37.5086 18.723C37.681 18.5895 37.7933 18.3957 37.8215 18.1827L33.7704 14.2484V3.30332Z" fill="white"/>
</svg>
