<svg width="154" height="49" viewBox="0 0 154 49" fill="none" xmlns="http://www.w3.org/2000/svg">
<path d="M10.6501 19.8697L10.2228 19.3223L11.9457 19.3245L10.7474 17.7654L9.00806 17.7633L8.26081 20.3554L9.90283 22.4617L10.6501 19.8697Z" fill="url(#paint0_linear_1415_3274)"/>
<path d="M31.7445 21.9417L30.5461 20.3835L28.2391 25.564L29.4374 27.1232L31.7445 21.9417Z" fill="url(#paint1_linear_1415_3274)"/>
<path d="M29.2556 29.8879L26.3163 29.8844L25.5425 31.611L22.0783 31.6066L22.8802 28.8444L21.6818 27.2862L20.4275 31.6054L12.6007 31.5954L13.7991 33.1536L21.626 33.1636L21.8356 32.4415L22.3925 33.1651L26.7408 33.1702L27.5155 31.4436L30.4548 31.4471L29.2556 29.8879Z" fill="url(#paint2_linear_1415_3274)"/>
<path d="M37.5016 31.6259C36.372 31.6242 35.5958 31.3504 35.1753 30.8028L36.3736 32.362C36.7941 32.9096 37.5703 33.1834 38.6999 33.185L42.1805 33.1893L40.9822 31.6301L37.5016 31.6259Z" fill="url(#paint3_linear_1415_3274)"/>
<path d="M67.6235 31.6642L58.9251 31.653L60.1244 33.2122L68.8218 33.2233L70.0761 28.9042L68.8778 27.345L67.6235 31.6642Z" fill="url(#paint4_linear_1415_3274)"/>
<path d="M79.7171 13.6744L74.4423 31.8525L70.0845 31.8465L71.2854 33.4088L75.6433 33.4139L80.918 15.2367L79.7171 13.6744Z" fill="url(#paint5_linear_1415_3274)"/>
<path d="M88.4359 15.2716L87.2349 13.7103L86.2137 23.2345L87.4147 24.7958L88.4359 15.2716Z" fill="url(#paint6_linear_1415_3274)"/>
<path d="M83.5142 23.5411L81.0877 31.8872L76.7299 31.8811L77.9307 33.4434L82.2887 33.4485L84.716 25.1035L83.5142 23.5411Z" fill="url(#paint7_linear_1415_3274)"/>
<path d="M95.9497 13.7213L90.675 31.8985L86.5531 31.8934L89.9461 25.0858L88.7452 23.5235L84.5749 31.8911L82.8328 31.8888L84.0336 33.451L85.7758 33.4534L86.4611 32.0798L87.519 33.4548L91.8759 33.4608L97.1507 15.2826L95.9497 13.7213Z" fill="url(#paint8_linear_1415_3274)"/>
<path d="M104.668 15.3185L103.467 13.7562L102.447 23.2805L103.648 24.8428L104.668 15.3185Z" fill="url(#paint9_linear_1415_3274)"/>
<path d="M99.7476 23.5881L97.3202 31.933L92.9633 31.928L94.1642 33.4894L98.5221 33.4954L100.949 25.1494L99.7476 23.5881Z" fill="url(#paint10_linear_1415_3274)"/>
<path d="M118.327 22.263L117.126 20.7016L114.814 25.8941L116.015 27.4564L118.327 22.263Z" fill="url(#paint11_linear_1415_3274)"/>
<path d="M115.835 30.225L112.887 30.2215L112.111 31.9518L108.562 31.947L113.384 15.3296L112.183 13.7673L106.909 31.9455L102.787 31.9404L106.18 25.1318L104.978 23.5695L100.808 31.937L99.0653 31.9357L100.266 33.497L102.009 33.4994L102.694 32.1258L103.752 33.5017L108.11 33.5068L108.341 32.7092L108.955 33.5081L113.313 33.5142L114.088 31.7829L117.036 31.7873L115.835 30.225Z" fill="url(#paint12_linear_1415_3274)"/>
<path d="M121.747 13.7791L119.956 31.9618L115.599 31.9559L116.8 33.5182L121.158 33.5233L122.947 15.3413L121.747 13.7791Z" fill="url(#paint13_linear_1415_3274)"/>
<path d="M133.833 19.6843L135.088 15.3566L133.886 13.7942L132.632 18.123L130.017 18.1193L125.996 31.9697L121.639 31.9637L122.84 33.5261L127.197 33.531L131.218 19.6816L133.833 19.6843Z" fill="url(#paint14_linear_1415_3274)"/>
<path d="M133.398 31.4007C133.399 31.3979 133.398 31.3949 133.398 31.392C133.399 31.343 133.396 31.2956 133.39 31.2488C133.389 31.2439 133.388 31.239 133.386 31.2331C133.38 31.192 133.373 31.1518 133.362 31.1122C133.357 31.0973 133.352 31.0833 133.347 31.0683C133.338 31.0394 133.328 31.0105 133.316 30.9823C133.309 30.9661 133.301 30.9509 133.294 30.9347C133.281 30.9084 133.267 30.8839 133.253 30.8583C133.248 30.8501 133.244 30.841 133.239 30.8328C133.228 30.8162 133.218 30.7997 133.206 30.784C133.198 30.7736 133.192 30.7642 133.184 30.7548L131.983 29.1925C131.991 29.202 131.998 29.2124 132.005 29.2218C132.023 29.2457 132.037 29.2713 132.052 29.296C132.067 29.3206 132.08 29.3461 132.093 29.3725C132.101 29.3877 132.108 29.4039 132.115 29.42C132.126 29.4481 132.137 29.4771 132.146 29.506C132.15 29.5209 132.157 29.535 132.161 29.5499C132.171 29.5894 132.179 29.6297 132.186 29.6708C132.186 29.6756 132.187 29.6806 132.189 29.6865C132.194 29.7333 132.197 29.7807 132.198 29.8298C132.198 29.8548 132.196 29.8806 132.194 29.9063C132.193 29.9255 132.193 29.9437 132.191 29.9627C132.188 29.9903 132.183 30.0196 132.178 30.0479C132.175 30.0659 132.173 30.084 132.17 30.1018C132.16 30.1489 132.149 30.1958 132.135 30.2443C132.122 30.2891 132.107 30.3326 132.091 30.3752C132.085 30.39 132.079 30.4047 132.073 30.4186C132.062 30.4481 132.049 30.4784 132.035 30.5068C132.028 30.5214 132.021 30.5371 132.014 30.5517C131.999 30.5818 131.983 30.6118 131.966 30.6408C131.959 30.6526 131.953 30.6644 131.946 30.6762C131.921 30.7169 131.896 30.7565 131.869 30.7949C131.863 30.8039 131.855 30.8118 131.85 30.8208C131.827 30.852 131.803 30.8832 131.778 30.9132C131.767 30.9274 131.754 30.9405 131.742 30.9546C131.721 30.9783 131.7 31.0011 131.679 31.0248C131.652 31.0527 131.624 31.0805 131.594 31.1081C131.58 31.121 131.567 31.135 131.552 31.1479C131.507 31.1874 131.462 31.2267 131.413 31.2649C131.389 31.2835 131.364 31.3001 131.339 31.3176C131.317 31.3336 131.295 31.3495 131.274 31.3645C131.25 31.3802 131.225 31.394 131.2 31.4096C131.179 31.4227 131.157 31.4377 131.135 31.4497C131.11 31.4635 131.085 31.4752 131.059 31.4879C131.037 31.499 131.015 31.5111 130.993 31.5212C130.968 31.533 130.942 31.5427 130.916 31.5534C130.893 31.5626 130.872 31.5719 130.85 31.5801C130.823 31.5897 130.795 31.5983 130.767 31.6069C130.746 31.6133 130.726 31.6208 130.706 31.6264C130.677 31.6348 130.646 31.6402 130.617 31.6467C130.598 31.6504 130.579 31.6561 130.56 31.659C130.526 31.6649 130.492 31.669 130.458 31.6731C130.442 31.6743 130.427 31.6775 130.412 31.6788C130.362 31.6831 130.312 31.6855 130.262 31.685C130.067 31.6844 129.896 31.6509 129.748 31.5851C129.6 31.5194 129.476 31.4198 129.376 31.2889L130.576 32.8512C130.778 33.113 131.072 33.2461 131.463 33.2473C131.513 33.2468 131.563 33.2454 131.613 33.2411C131.63 33.2391 131.648 33.2361 131.665 33.2341C131.697 33.2298 131.729 33.2274 131.76 33.2211C131.78 33.2175 131.799 33.2127 131.819 33.2081C131.848 33.2016 131.878 33.1961 131.907 33.1887C131.928 33.1832 131.948 33.1757 131.969 33.1693C131.997 33.1607 132.024 33.153 132.052 33.1434C132.073 33.1361 132.094 33.1258 132.115 33.1175C132.141 33.1068 132.167 33.0971 132.194 33.0845C132.215 33.0752 132.236 33.063 132.257 33.0527C132.283 33.0392 132.309 33.0274 132.334 33.0129C132.356 33.0007 132.377 32.9875 132.397 32.9743C132.423 32.9588 132.448 32.9441 132.473 32.9276C132.495 32.9136 132.516 32.8975 132.538 32.8816C132.562 32.8649 132.586 32.8492 132.609 32.8314C132.61 32.8306 132.612 32.8289 132.613 32.828C132.661 32.7899 132.708 32.7515 132.752 32.711C132.767 32.6981 132.78 32.6841 132.794 32.6712C132.822 32.6435 132.851 32.6168 132.877 32.5878C132.882 32.5825 132.887 32.5782 132.893 32.573C132.91 32.5547 132.924 32.536 132.941 32.5176C132.953 32.5044 132.965 32.4903 132.976 32.4771C133.001 32.4461 133.025 32.415 133.047 32.3837C133.053 32.3757 133.061 32.3669 133.067 32.3588C133.068 32.358 133.068 32.357 133.069 32.3562C133.095 32.3185 133.12 32.2799 133.144 32.2401C133.151 32.2283 133.157 32.2165 133.164 32.2047C133.176 32.1848 133.187 32.1649 133.197 32.1448C133.202 32.1347 133.206 32.1246 133.211 32.1155C133.218 32.1009 133.226 32.0853 133.232 32.0706C133.246 32.0413 133.258 32.0119 133.27 31.9823C133.276 31.9675 133.282 31.9538 133.287 31.939C133.29 31.9325 133.293 31.9251 133.295 31.9186C133.309 31.8826 133.32 31.8453 133.332 31.8081C133.346 31.7615 133.356 31.7155 133.366 31.6704C133.366 31.6685 133.366 31.6666 133.366 31.6656C133.37 31.6468 133.372 31.6297 133.375 31.6108C133.38 31.5824 133.385 31.5532 133.388 31.5256C133.39 31.5066 133.39 31.4873 133.391 31.4692C133.396 31.4456 133.398 31.4228 133.398 31.4007Z" fill="url(#paint15_linear_1415_3274)"/>
<path d="M142.057 24.1954L140.444 25.4367L140.852 24.0223L143.76 24.0262L144.597 21.1408L143.395 19.5794L142.558 22.4638L139.65 22.4608L139.151 24.1917L140.234 25.5981L138.314 27.0762L136.971 31.6946L134.066 31.6908L135.268 33.2532L138.172 33.2569L139.515 28.6385L143.258 25.7568L142.057 24.1954Z" fill="url(#paint16_linear_1415_3274)"/>
<path d="M148.052 24.0321L149.214 24.0334L148.014 22.4711L146.851 22.4698L146.351 24.2006L147.553 25.762L148.052 24.0321Z" fill="url(#paint17_linear_1415_3274)"/>
<path d="M152.429 22.7247C152.43 22.7075 152.432 22.6894 152.433 22.6722C152.434 22.6455 152.434 22.6195 152.435 22.5936C152.435 22.5811 152.436 22.5677 152.436 22.5562C152.436 22.5534 152.436 22.5514 152.436 22.5485C152.436 22.5293 152.435 22.51 152.434 22.4906C152.434 22.4724 152.434 22.4531 152.433 22.4356C152.432 22.4163 152.43 22.3988 152.428 22.3803C152.427 22.3629 152.425 22.3444 152.423 22.3279C152.421 22.3094 152.418 22.2927 152.415 22.2751C152.413 22.2585 152.41 22.2409 152.407 22.2242C152.404 22.2066 152.4 22.1908 152.396 22.174C152.393 22.1583 152.39 22.1416 152.386 22.1258C152.382 22.109 152.376 22.0931 152.371 22.0772C152.367 22.0623 152.363 22.0465 152.358 22.0315C152.353 22.0156 152.347 22.0005 152.341 21.9855C152.335 21.9714 152.33 21.9565 152.324 21.9423C152.318 21.9273 152.311 21.913 152.304 21.8988C152.297 21.8856 152.291 21.8715 152.284 21.8583C152.277 21.844 152.269 21.8307 152.26 21.8173C152.254 21.806 152.247 21.7938 152.24 21.7824C152.239 21.7814 152.238 21.7803 152.237 21.7793C152.22 21.7524 152.203 21.7265 152.183 21.7014C152.183 21.7014 152.183 21.7004 152.182 21.7003L150.981 20.138C151.001 20.1632 151.019 20.1892 151.036 20.2169C151.044 20.2293 151.05 20.2425 151.058 20.2558C151.067 20.2692 151.075 20.2826 151.082 20.2968C151.089 20.3101 151.095 20.3242 151.102 20.3383C151.109 20.3526 151.116 20.3668 151.122 20.3819C151.128 20.396 151.133 20.4109 151.139 20.425C151.145 20.44 151.151 20.4551 151.156 20.471C151.161 20.486 151.165 20.5018 151.169 20.5167C151.174 20.5326 151.18 20.5485 151.184 20.5653C151.188 20.5811 151.191 20.5969 151.194 20.6135C151.198 20.6303 151.202 20.6471 151.205 20.6647C151.208 20.6814 151.21 20.6989 151.213 20.7156C151.216 20.7332 151.219 20.7508 151.221 20.7683C151.223 20.7858 151.224 20.8033 151.226 20.8208C151.228 20.8393 151.23 20.8577 151.23 20.8761C151.231 20.8945 151.231 20.9127 151.232 20.9311C151.233 20.9504 151.234 20.9698 151.234 20.989C151.234 21.0034 151.234 21.0197 151.233 21.0341C151.232 21.0599 151.231 21.0858 151.23 21.1127C151.23 21.1299 151.228 21.147 151.227 21.1652C151.225 21.1909 151.222 21.2157 151.22 21.2423C151.217 21.2613 151.215 21.2803 151.213 21.2992C151.209 21.3248 151.206 21.3505 151.202 21.377C151.199 21.3969 151.196 21.4167 151.193 21.4366C151.188 21.463 151.184 21.4904 151.179 21.5168C151.175 21.5366 151.171 21.5564 151.167 21.5761C151.159 21.6119 151.15 21.6484 151.142 21.686C151.138 21.7029 151.134 21.7188 151.13 21.7357C151.116 21.79 151.102 21.8442 151.085 21.9002L150.418 24.2075C150.391 24.3026 150.362 24.3938 150.333 24.4831C150.323 24.5128 150.313 24.5406 150.304 24.5694C150.284 24.6279 150.264 24.6864 150.244 24.7419C150.24 24.754 150.236 24.7641 150.231 24.7761C150.207 24.8399 150.183 24.9027 150.159 24.9636C150.15 24.9858 150.141 25.0079 150.131 25.03C150.111 25.0807 150.089 25.1303 150.068 25.178C150.059 25.1982 150.05 25.2185 150.041 25.2377C150.011 25.3018 149.981 25.3641 149.95 25.4242C149.95 25.4252 149.95 25.4252 149.949 25.426C149.948 25.4288 149.946 25.4306 149.944 25.4332C149.909 25.4997 149.875 25.5624 149.838 25.623C149.825 25.6437 149.813 25.6626 149.8 25.6833C149.775 25.7229 149.75 25.7636 149.724 25.8003C149.698 25.8369 149.672 25.8726 149.645 25.9063C149.636 25.9188 149.627 25.9313 149.617 25.9438C149.581 25.9889 149.544 26.0322 149.507 26.0714C149.499 26.0793 149.491 26.0871 149.483 26.0949C149.454 26.1254 149.423 26.1549 149.394 26.1816C149.38 26.1936 149.366 26.2046 149.352 26.2157C149.326 26.2378 149.3 26.26 149.273 26.2793C149.263 26.286 149.254 26.2927 149.244 26.2994C149.207 26.3252 149.17 26.3501 149.131 26.371C149.131 26.371 149.131 26.371 149.13 26.3709C149.091 26.3918 149.053 26.4098 149.013 26.4268C149.003 26.4305 148.993 26.4352 148.983 26.4389C148.944 26.454 148.904 26.468 148.863 26.4791C148.822 26.4902 148.781 26.4973 148.739 26.5034C148.728 26.5052 148.719 26.5061 148.708 26.5078C148.666 26.513 148.623 26.5161 148.581 26.5155L148.237 31.7112L145.825 31.7079L146.714 28.6501L145.513 27.0878L144.17 31.7062L141.265 31.7025L142.465 33.2648L145.371 33.2685L145.69 32.1725L146.533 33.2699L149.439 33.2736L149.783 28.0779C149.826 28.0777 149.868 28.0744 149.91 28.0702C149.92 28.0694 149.93 28.0676 149.941 28.0658C149.983 28.0597 150.024 28.0526 150.065 28.0415C150.106 28.0304 150.146 28.0173 150.185 28.0013C150.195 27.9976 150.205 27.9938 150.215 27.9891C150.254 27.9722 150.294 27.9542 150.332 27.9333C150.37 27.9123 150.408 27.8875 150.445 27.8617C150.455 27.855 150.464 27.8483 150.473 27.8416C150.483 27.8349 150.492 27.8291 150.502 27.8215C150.519 27.808 150.536 27.7925 150.553 27.7779C150.567 27.7669 150.581 27.7558 150.595 27.7438C150.624 27.7172 150.654 27.6877 150.684 27.6572C150.691 27.6493 150.7 27.6416 150.707 27.6337C150.708 27.6329 150.709 27.632 150.711 27.6302C150.747 27.5908 150.783 27.5494 150.818 27.5051C150.827 27.4935 150.836 27.4801 150.846 27.4677C150.87 27.4375 150.893 27.4073 150.916 27.3751C150.919 27.3706 150.922 27.3661 150.925 27.3616C150.951 27.324 150.976 27.2843 151.001 27.2447C151.014 27.2249 151.026 27.206 151.039 27.1843C151.076 27.1237 151.111 27.0602 151.146 26.9927C151.147 26.9909 151.149 26.9891 151.149 26.9872C151.149 26.9863 151.15 26.9854 151.15 26.9845C151.18 26.9252 151.211 26.8631 151.241 26.7999C151.25 26.7806 151.259 26.7595 151.268 26.7403C151.29 26.6926 151.312 26.643 151.332 26.5923C151.341 26.5702 151.35 26.548 151.36 26.5259C151.384 26.4651 151.408 26.4032 151.432 26.3384C151.436 26.3273 151.441 26.3162 151.445 26.3042C151.446 26.3014 151.446 26.2986 151.447 26.2968C151.467 26.244 151.485 26.1892 151.503 26.1344C151.513 26.1047 151.524 26.076 151.534 26.0454C151.563 25.9561 151.592 25.8649 151.619 25.7698L152.286 23.4625C152.303 23.4065 152.317 23.3523 152.33 23.2979C152.335 23.2811 152.339 23.2642 152.343 23.2473C152.351 23.2107 152.36 23.1741 152.368 23.1384C152.369 23.13 152.371 23.1205 152.373 23.1111C152.376 23.0998 152.378 23.0895 152.38 23.0791C152.384 23.0517 152.39 23.0254 152.394 22.9989C152.397 22.979 152.401 22.9593 152.403 22.9393C152.407 22.9128 152.411 22.8872 152.414 22.8607C152.416 22.8417 152.419 22.8227 152.421 22.8037C152.425 22.7762 152.427 22.7505 152.429 22.7247Z" fill="url(#paint18_linear_1415_3274)"/>
<path d="M13.3184 25.618C13.3409 25.605 13.3635 25.592 13.3852 25.578C13.41 25.5623 13.4329 25.5465 13.4568 25.5298C13.4817 25.5132 13.5075 25.4967 13.5324 25.4801C13.5583 25.4627 13.5825 25.4431 13.6076 25.4247C13.6295 25.4087 13.6524 25.3929 13.6744 25.376C13.7185 25.3422 13.7618 25.3064 13.8051 25.2706C13.8189 25.2586 13.8327 25.2466 13.8455 25.2345C13.8741 25.2097 13.9028 25.1848 13.9306 25.1589C13.9466 25.1443 13.9617 25.1286 13.9777 25.1139C14.0025 25.0896 14.0282 25.0654 14.0529 25.0411C14.0691 25.0246 14.0853 25.008 14.1015 24.9915C14.1145 24.9784 14.1274 24.9654 14.1404 24.9514C14.1469 24.9453 14.1525 24.9373 14.158 24.9311C14.2146 24.8698 14.2705 24.8065 14.3237 24.7401C14.3305 24.7312 14.3381 24.7223 14.3449 24.7134C14.3937 24.6523 14.4409 24.589 14.4872 24.5247C14.494 24.5158 14.5006 24.5079 14.5064 24.4988C14.5097 24.4944 14.5132 24.489 14.5167 24.4836C14.5678 24.4102 14.6172 24.3346 14.6651 24.2561C14.6745 24.2398 14.6838 24.2244 14.6933 24.2081C14.7414 24.1267 14.7887 24.0442 14.8345 23.9577C14.8345 23.9577 14.8346 23.9567 14.8355 23.9568C14.8656 23.9004 14.894 23.8419 14.9224 23.7833C14.9297 23.7687 14.9362 23.7531 14.9425 23.7384C14.9637 23.6935 14.9849 23.6477 15.0053 23.6008C15.0155 23.5778 15.0248 23.5538 15.0349 23.5308C15.0515 23.4922 15.0682 23.4526 15.084 23.413C15.0946 23.3862 15.1042 23.3593 15.1148 23.3316C15.127 23.2983 15.1401 23.266 15.1524 23.2317C15.1538 23.2271 15.1553 23.2224 15.1568 23.2178C15.1732 23.1715 15.1899 23.1232 15.2055 23.0758C15.2138 23.0527 15.222 23.0295 15.2294 23.0053C15.2525 22.9327 15.2756 22.8602 15.2971 22.7855L16.5495 18.4662C16.5738 18.3822 16.5959 18.3009 16.616 18.2203C16.6226 18.1951 16.6281 18.1697 16.6337 18.1443C16.6473 18.089 16.6598 18.0346 16.6703 17.9809C16.6727 17.9677 16.6771 17.9537 16.6794 17.9405C16.6831 17.9245 16.6848 17.9084 16.6884 17.8924C16.6966 17.8519 16.7037 17.8123 16.7098 17.7726C16.7149 17.7423 16.72 17.7131 16.7242 17.6827C16.7303 17.643 16.7353 17.6051 16.7404 17.5662C16.7444 17.5378 16.7474 17.5092 16.7503 17.4816C16.7545 17.4427 16.7576 17.4045 16.7605 17.3673C16.7624 17.3406 16.7651 17.3149 16.766 17.2891C16.7682 17.2499 16.7695 17.2106 16.7697 17.1721C16.7698 17.1529 16.7719 17.1339 16.7719 17.1156C16.7723 17.1118 16.7717 17.1079 16.7713 17.1031C16.7715 17.0733 16.7707 17.0453 16.7699 17.0164C16.769 16.9884 16.7691 16.9605 16.7671 16.9334C16.7653 16.9053 16.7624 16.8781 16.7606 16.85C16.7586 16.8238 16.7566 16.7967 16.7535 16.7713C16.7506 16.7441 16.7457 16.7176 16.7418 16.6912C16.7378 16.6658 16.7347 16.6405 16.7305 16.616C16.7255 16.5905 16.7196 16.5648 16.7145 16.5403C16.7093 16.5166 16.7042 16.492 16.699 16.4684C16.693 16.4437 16.6849 16.4198 16.6778 16.396C16.6716 16.3732 16.6653 16.3504 16.6572 16.3274C16.6491 16.3035 16.6399 16.2813 16.6317 16.2584C16.6235 16.2363 16.6162 16.2144 16.6069 16.1932C16.5977 16.1711 16.5865 16.1497 16.5762 16.1284C16.5668 16.1082 16.5575 16.087 16.5471 16.0667C16.5359 16.0453 16.5235 16.0257 16.5113 16.0052C16.5016 15.9878 16.4919 15.9694 16.4812 15.9529C16.4804 15.9509 16.4786 15.9498 16.4779 15.9478C16.4523 15.9075 16.4256 15.8682 16.3968 15.8314C16.3968 15.8314 16.3968 15.8314 16.3959 15.8304L15.1976 14.2713C15.2264 14.3089 15.254 14.3484 15.2796 14.3886C15.2911 14.4072 15.3025 14.4266 15.313 14.446C15.3252 14.4666 15.3376 14.4861 15.3479 14.5074C15.3582 14.5278 15.3676 14.548 15.3769 14.5692C15.3872 14.5905 15.3975 14.6117 15.4076 14.634C15.4169 14.6552 15.4242 14.6771 15.4325 14.6991C15.4416 14.7222 15.4499 14.7442 15.4579 14.7682C15.4652 14.7901 15.4714 14.8138 15.4786 14.8367C15.4857 14.8606 15.4928 14.8844 15.4998 14.9092C15.5059 14.9329 15.5101 14.9574 15.5152 14.981C15.5202 15.0066 15.5263 15.0312 15.5313 15.0568C15.5354 15.0813 15.5385 15.1066 15.5426 15.132C15.5465 15.1584 15.5504 15.1848 15.5543 15.2121C15.5574 15.2374 15.5593 15.2646 15.5613 15.2908C15.5632 15.3188 15.5661 15.3461 15.5679 15.3741C15.5689 15.4012 15.5697 15.4292 15.5707 15.4562C15.5715 15.4851 15.5724 15.5131 15.5721 15.5429C15.5716 15.5659 15.5711 15.5889 15.5706 15.612C15.5694 15.6503 15.5692 15.6887 15.5668 15.7289C15.565 15.7547 15.5632 15.7814 15.5614 15.8072C15.5583 15.8453 15.5552 15.8834 15.5512 15.9215C15.5483 15.949 15.5443 15.9775 15.5412 16.006C15.5361 16.0449 15.5312 16.0828 15.525 16.1226C15.5209 16.1519 15.5158 16.1822 15.5107 16.2124C15.5036 16.252 15.4965 16.2917 15.4893 16.3322C15.4833 16.3614 15.4773 16.3906 15.4713 16.4198C15.4598 16.4734 15.4472 16.5288 15.4336 16.584C15.428 16.6094 15.4216 16.6337 15.416 16.6591C15.3959 16.7397 15.3738 16.821 15.3494 16.9049L14.0971 21.2243C14.0756 21.299 14.0525 21.3715 14.0294 21.4441C14.022 21.4683 14.0128 21.4913 14.0054 21.5156C13.9898 21.5629 13.9732 21.6102 13.9568 21.6566C13.943 21.6955 13.9285 21.7324 13.9139 21.7703C13.9033 21.797 13.8937 21.8239 13.8832 21.8507C13.8673 21.8913 13.8507 21.9299 13.8339 21.9695C13.8238 21.9925 13.8145 22.0165 13.8053 22.0395C13.7849 22.0864 13.7638 22.1313 13.7425 22.1771C13.7352 22.1917 13.7287 22.2074 13.7224 22.2221C13.6939 22.2816 13.6646 22.34 13.6353 22.3975C13.5905 22.4841 13.5432 22.5666 13.4951 22.648C13.4856 22.6643 13.4762 22.6806 13.4669 22.696C13.4191 22.7736 13.3696 22.8501 13.3185 22.9235C13.3083 22.9378 13.2991 22.9513 13.289 22.9646C13.2427 23.0289 13.1955 23.0922 13.1467 23.1534C13.1399 23.1623 13.1332 23.1712 13.1255 23.18C13.0724 23.2455 13.0165 23.3088 12.9598 23.371C12.9413 23.3912 12.9218 23.4112 12.9033 23.4314C12.8871 23.4479 12.8709 23.4645 12.8547 23.481C12.83 23.5053 12.8052 23.5296 12.7805 23.5539C12.7645 23.5686 12.7493 23.5843 12.7333 23.5989C12.7055 23.6248 12.6769 23.6497 12.6483 23.6745C12.6345 23.6865 12.6216 23.6986 12.6078 23.7106C12.5655 23.7465 12.5212 23.7822 12.4772 23.816C12.4383 23.8465 12.3977 23.8749 12.3571 23.9042C12.3497 23.9102 12.3424 23.9151 12.3341 23.921C12.2893 23.9528 12.2428 23.9825 12.1963 24.0121C12.1931 24.0147 12.1901 24.0163 12.1869 24.0188C12.1415 24.0477 12.0962 24.0746 12.0491 24.1013C12.044 24.1037 12.0398 24.1071 12.0346 24.1104C11.9855 24.1378 11.9364 24.1644 11.8855 24.1907C11.8824 24.1923 11.8803 24.194 11.8774 24.1946C11.8408 24.2129 11.8032 24.231 11.7657 24.2482C11.7485 24.256 11.7322 24.2648 11.715 24.2726C11.6766 24.2897 11.6382 24.3058 11.599 24.3218C11.5819 24.3287 11.5656 24.3365 11.5485 24.3434C11.5032 24.3617 11.4572 24.3779 11.4101 24.395C11.3991 24.3987 11.3881 24.4033 11.377 24.4079C11.3269 24.4256 11.2761 24.4414 11.2253 24.4572C11.2173 24.4601 11.2093 24.4631 11.2004 24.4651C11.1576 24.4779 11.114 24.4896 11.0704 24.5013C11.0535 24.5062 11.0366 24.5112 11.0187 24.516C10.9089 24.5438 10.7965 24.5684 10.6816 24.5888C10.6679 24.5912 10.6551 24.5937 10.6423 24.5962C10.603 24.6036 10.562 24.6088 10.5218 24.6152C10.4963 24.6192 10.4718 24.6233 10.4464 24.6264C10.3868 24.6345 10.3273 24.6416 10.2669 24.6477C10.2601 24.6489 10.2533 24.6491 10.2464 24.6503C10.1997 24.655 10.1521 24.6586 10.1046 24.6622C10.0832 24.6638 10.0617 24.6663 10.0405 24.6669C9.9949 24.6698 9.94848 24.6716 9.90301 24.6735C9.87879 24.6748 9.85458 24.676 9.83036 24.6773C9.75982 24.6794 9.68748 24.6804 9.61524 24.6804L7.00531 24.6773L7.60451 25.4564L7.00531 24.6773L4.99509 31.5886L0.645848 31.5834L1.84551 33.1389L6.19475 33.144L8.20497 26.2327L10.8149 26.2359C10.9603 26.2359 11.1014 26.2317 11.24 26.2233C11.2478 26.2232 11.2565 26.2222 11.2644 26.2211C11.3255 26.217 11.3857 26.2119 11.446 26.2067C11.4509 26.2063 11.4567 26.2059 11.4616 26.2045C11.5239 26.1986 11.5854 26.1908 11.6469 26.1829C11.6567 26.182 11.6655 26.18 11.6743 26.179C11.7311 26.1706 11.7868 26.1631 11.8428 26.1527C11.8683 26.1487 11.893 26.1426 11.9175 26.1385C11.9559 26.131 11.9951 26.1246 12.0335 26.1162C12.0552 26.1118 12.0769 26.1064 12.0987 26.101C12.1392 26.0919 12.1796 26.0827 12.2202 26.0726C12.2499 26.0651 12.2787 26.0567 12.3085 26.0483C12.3392 26.04 12.3709 26.0318 12.4018 26.0226C12.4366 26.0119 12.4716 26.0002 12.5065 25.9885C12.5305 25.9805 12.5544 25.9734 12.5783 25.9654C12.6123 25.9536 12.6465 25.9399 12.6806 25.9272C12.7038 25.9181 12.7277 25.9101 12.7499 25.9009C12.7912 25.8841 12.8316 25.8663 12.8719 25.8494C12.887 25.8434 12.9021 25.8373 12.9162 25.8311C12.9546 25.814 12.9923 25.7949 13.0299 25.7768C13.0461 25.7689 13.0623 25.762 13.0776 25.754C13.1152 25.7349 13.1511 25.7147 13.1879 25.6945C13.2033 25.6856 13.2195 25.6786 13.2349 25.6697C13.2627 25.6525 13.2905 25.6352 13.3184 25.618Z" fill="url(#paint19_linear_1415_3274)"/>
<path d="M23.4123 15.0176L22.2129 13.4593L18.2012 27.2818L19.3996 28.84L23.4123 15.0176Z" fill="url(#paint20_linear_1415_3274)"/>
<path d="M45.3227 19.3659L44.1233 17.8076L42.385 17.8057L39.6248 27.3077L41.0454 29.1405L43.8047 19.6374L43.593 19.3639L45.3227 19.3659Z" fill="url(#paint21_linear_1415_3274)"/>
<path d="M49.9893 18.2613C49.9958 18.236 50.0014 18.2106 50.007 18.1853C50.0205 18.13 50.0331 18.0755 50.0436 18.0218C50.0459 18.0086 50.0503 17.9946 50.0527 17.9814C50.0563 17.9655 50.058 17.9493 50.0616 17.9333C50.0698 17.8929 50.0769 17.8532 50.083 17.8135C50.0882 17.7833 50.0932 17.754 50.0974 17.7237C50.1035 17.6839 50.1085 17.646 50.1136 17.6071C50.1176 17.5787 50.1206 17.5501 50.1236 17.5226C50.1277 17.4836 50.1308 17.4454 50.1338 17.4083C50.1357 17.3815 50.1384 17.3559 50.1392 17.33C50.1414 17.2908 50.1427 17.2515 50.143 17.2131C50.1431 17.1938 50.1451 17.1748 50.1451 17.1566C50.1455 17.1528 50.145 17.1488 50.1445 17.144C50.1448 17.1142 50.143 17.0861 50.1431 17.0573C50.1422 17.0293 50.1423 17.0014 50.1404 16.9743C50.1385 16.9462 50.1357 16.919 50.1337 16.8919C50.1317 16.8657 50.1298 16.8385 50.1268 16.8123C50.1239 16.785 50.1189 16.7595 50.1159 16.7332C50.1119 16.7078 50.1088 16.6825 50.1046 16.658C50.0996 16.6324 50.0937 16.6068 50.0886 16.5822C50.0834 16.5586 50.0783 16.534 50.0731 16.5104C50.0671 16.4857 50.059 16.4618 50.0519 16.4379C50.0447 16.4151 50.0386 16.3913 50.0312 16.3694C50.0231 16.3464 50.014 16.3233 50.0057 16.3013C49.9975 16.2793 49.9902 16.2573 49.9809 16.2361C49.9717 16.214 49.9604 16.1926 49.9502 16.1713C49.9408 16.1511 49.9315 16.1299 49.9211 16.1096C49.9099 16.0882 49.8975 16.0686 49.8862 16.0482C49.8765 16.0308 49.8669 16.0125 49.8562 15.995C49.8555 15.993 49.8537 15.9918 49.8529 15.9898C49.8273 15.9496 49.8006 15.9112 49.7718 15.8735L49.771 15.8725L48.5727 14.3133C48.6014 14.351 48.629 14.3905 48.6546 14.4307C48.6661 14.4492 48.6775 14.4687 48.688 14.4881C48.7003 14.5086 48.7126 14.5282 48.7229 14.5495C48.7333 14.5698 48.7427 14.5901 48.752 14.6113C48.7622 14.6325 48.7735 14.6539 48.7827 14.6761C48.792 14.6972 48.7993 14.7192 48.8075 14.7412C48.8166 14.7643 48.8258 14.7864 48.8329 14.8103C48.8402 14.8322 48.8464 14.8559 48.8536 14.8788C48.8607 14.9026 48.8678 14.9265 48.8748 14.9513C48.8809 14.975 48.8851 14.9995 48.8903 15.0231C48.8953 15.0486 48.9013 15.0733 48.9063 15.0988C48.9105 15.1233 48.9145 15.1488 48.9176 15.1741C48.9215 15.2005 48.9255 15.2269 48.9294 15.2532C48.9324 15.2795 48.9344 15.3057 48.9365 15.3319C48.9384 15.359 48.9412 15.3872 48.943 15.4153C48.944 15.4423 48.9449 15.4703 48.9458 15.4983C48.9466 15.5272 48.9474 15.5552 48.9472 15.585C48.9466 15.608 48.9461 15.631 48.9455 15.655C48.9443 15.6933 48.9441 15.7318 48.9419 15.771C48.9401 15.7967 48.9382 15.8235 48.9364 15.8492C48.9333 15.8874 48.9303 15.9255 48.9262 15.9635C48.9233 15.9911 48.9193 16.0195 48.9163 16.0481C48.9112 16.087 48.9062 16.1249 48.9 16.1646C48.896 16.194 48.8908 16.2242 48.8857 16.2545C48.8786 16.2941 48.8715 16.3337 48.8643 16.3743C48.8583 16.4035 48.8523 16.4327 48.8462 16.4628C48.8348 16.5164 48.8221 16.5718 48.8095 16.6272C48.8039 16.6525 48.7975 16.6769 48.7919 16.7022C48.7718 16.7828 48.7497 16.8641 48.7253 16.9481L45.4627 28.1787C45.4411 28.2552 45.4178 28.3297 45.3945 28.4041C45.3871 28.4283 45.3788 28.4515 45.3705 28.4756C45.3537 28.5248 45.3379 28.5741 45.3203 28.6222C45.3078 28.6584 45.2934 28.6934 45.281 28.7286C45.2703 28.7573 45.2595 28.786 45.2489 28.8137C45.2344 28.8506 45.219 28.8865 45.2035 28.9233C45.1931 28.9491 45.1825 28.9759 45.1711 29.0016C45.1546 29.0393 45.1371 29.0769 45.1207 29.1136C45.1106 29.1365 45.1004 29.1595 45.0893 29.1824C45.0693 29.2254 45.0476 29.2674 45.0268 29.3084C45.0184 29.3239 45.0109 29.3404 45.0024 29.3568C45.0011 29.3605 44.9988 29.3632 44.9975 29.3669C44.954 29.4498 44.9089 29.5296 44.8622 29.6073C44.8528 29.6227 44.8434 29.639 44.834 29.6543C44.7874 29.7311 44.7379 29.8067 44.6878 29.8792C44.6776 29.8935 44.6675 29.9078 44.6574 29.9212C44.6121 29.9847 44.566 30.0471 44.5173 30.1063C44.5106 30.1152 44.5028 30.125 44.4961 30.1339C44.4429 30.1994 44.3881 30.2619 44.3324 30.3233C44.3129 30.3443 44.2944 30.3644 44.2748 30.3854C44.2586 30.402 44.2433 30.4186 44.2272 30.4342C44.2024 30.4595 44.1767 30.4837 44.1509 30.5088C44.1359 30.5236 44.1208 30.5383 44.1049 30.552C44.075 30.5796 44.0443 30.6061 44.0135 30.6327C44.0018 30.643 43.9911 30.6534 43.9795 30.6627C43.9361 30.6995 43.8919 30.7352 43.8468 30.7698L42.8459 34.2263L44.0442 35.7855L45.0451 32.3289C45.0472 32.3272 45.0493 32.3255 45.0514 32.3238C45.0944 32.2909 45.1365 32.2569 45.1778 32.2219C45.1894 32.2125 45.2001 32.2021 45.2117 32.1928C45.2425 32.1662 45.2733 32.1387 45.3032 32.1111C45.3182 32.0973 45.3332 32.0826 45.3483 32.0678C45.374 32.0436 45.3998 32.0185 45.4246 31.9932C45.4407 31.9776 45.4559 31.961 45.4721 31.9444C45.4861 31.9305 45.4992 31.9165 45.5132 31.9026C45.5187 31.8965 45.5242 31.8894 45.5308 31.8824C45.5864 31.821 45.6412 31.7585 45.6943 31.694C45.702 31.6852 45.7088 31.6753 45.7155 31.6664C45.7633 31.6061 45.8093 31.5446 45.8546 31.4812C45.8613 31.4723 45.8681 31.4634 45.8748 31.4545C45.8783 31.4491 45.8817 31.4437 45.8852 31.4383C45.9353 31.3657 45.9846 31.2911 46.0314 31.2134C46.0407 31.198 46.0502 31.1817 46.0595 31.1664C46.1064 31.0877 46.1515 31.0078 46.1948 30.9259C46.1961 30.9231 46.1973 30.9213 46.1985 30.9186L46.1998 30.9158C46.2082 30.8994 46.2158 30.8829 46.2242 30.8675C46.245 30.8254 46.2667 30.7845 46.2867 30.7414C46.2978 30.7185 46.308 30.6946 46.3182 30.6717C46.3355 30.635 46.352 30.5983 46.3686 30.5597C46.38 30.534 46.3904 30.5082 46.4009 30.4823C46.4163 30.4455 46.4317 30.4097 46.4462 30.3727C46.4569 30.345 46.4676 30.3163 46.4783 30.2886C46.489 30.26 46.5007 30.2314 46.5105 30.2026C46.5132 30.1952 46.515 30.1877 46.5176 30.1813C46.5352 30.1331 46.551 30.0848 46.5678 30.0356C46.5761 30.0115 46.5843 29.9883 46.5917 29.9641C46.6149 29.8906 46.6384 29.8152 46.66 29.7386L49.9226 18.5081C49.947 18.4231 49.9691 18.3418 49.9893 18.2613Z" fill="url(#paint22_linear_1415_3274)"/>
<path d="M35.1547 13.475L33.3711 31.621L29.0228 31.616L30.2212 33.1742L34.5704 33.1802L36.354 15.0342L35.1547 13.475Z" fill="url(#paint23_linear_1415_3274)"/>
<path d="M57.4866 15.3343L56.0669 13.5016L52.0542 27.3239L53.4748 29.1567L57.4866 15.3343Z" fill="url(#paint24_linear_1415_3274)"/>
<path d="M72.8897 13.5224L71.6354 17.8416L67.2861 17.8365L66.5389 20.4285L67.7382 21.9868L68.4855 19.3947L72.8337 19.4007L74.088 15.0816L72.8897 13.5224Z" fill="url(#paint25_linear_1415_3274)"/>
<path d="M65.2847 24.7478L64.5288 27.3399L65.7281 28.8982L66.484 26.3061L72.0865 21.9929L70.8882 20.4338L65.2847 24.7478Z" fill="url(#paint26_linear_1415_3274)"/>
<path d="M62.1545 13.5096L57.8913 28.1939C57.8699 28.2686 57.8467 28.3411 57.8236 28.4137C57.8162 28.4379 57.807 28.4609 57.7997 28.4852C57.784 28.5325 57.7675 28.5798 57.7509 28.6271C57.7372 28.6651 57.7226 28.703 57.708 28.7408C57.6974 28.7676 57.6878 28.7945 57.6773 28.8212C57.6615 28.8609 57.6448 28.9005 57.6282 28.9391C57.6179 28.963 57.6086 28.987 57.5985 29.01C57.5792 29.0551 57.5581 29.1 57.538 29.144C57.5306 29.1595 57.524 29.1762 57.5155 29.1926C57.4871 29.252 57.4577 29.3105 57.4285 29.368C57.3837 29.4545 57.3364 29.537 57.2873 29.6184C57.2779 29.6347 57.2685 29.65 57.2591 29.6663C57.2113 29.744 57.1618 29.8204 57.1107 29.8939C57.1014 29.9083 57.0913 29.9216 57.0813 29.935C57.0348 30.0002 56.9877 30.0635 56.9388 30.1247C56.9321 30.1336 56.9253 30.1425 56.9177 30.1513C56.8644 30.2177 56.8085 30.281 56.7519 30.3424C56.7334 30.3625 56.7149 30.3827 56.6954 30.4027C56.6792 30.4193 56.6629 30.4368 56.6467 30.4533C56.622 30.4776 56.5972 30.5019 56.5726 30.5253C56.5565 30.5409 56.5405 30.5555 56.5244 30.5711C56.4966 30.597 56.469 30.621 56.4404 30.6458C56.4266 30.6578 56.4127 30.6708 56.3989 30.6828C56.3565 30.7187 56.3133 30.7535 56.2693 30.7873L56.2683 30.7882C56.0815 30.9318 55.8823 31.0578 55.6695 31.1659C55.6664 31.1675 55.6624 31.169 55.6593 31.1706C55.6094 31.1961 55.5597 31.2197 55.5081 31.2431C55.4991 31.2469 55.489 31.2506 55.4799 31.2554C54.8845 31.5192 54.1944 31.6507 53.4105 31.6492L49.93 31.645C48.8003 31.6433 48.0242 31.3695 47.6036 30.8219L48.8019 32.381C49.2225 32.9286 49.9986 33.2024 51.1283 33.2041L54.6088 33.2083C54.7533 33.2083 54.8953 33.2041 55.034 33.1958C55.7225 33.1516 56.3314 32.996 56.8606 32.7291C56.8637 32.7275 56.8666 32.7269 56.8687 32.7252C56.9104 32.7046 56.9504 32.6819 56.9913 32.6593C57.0026 32.6528 57.0147 32.6474 57.026 32.6409C57.0629 32.6198 57.099 32.5977 57.1351 32.5756C57.1495 32.5665 57.1638 32.5584 57.1783 32.5494C57.2052 32.532 57.2322 32.5138 57.2581 32.4963C57.2809 32.4814 57.3035 32.4675 57.3255 32.4515C57.3535 32.4324 57.3798 32.4112 57.408 32.3911C57.4279 32.3759 57.4486 32.3617 57.4686 32.3465L57.4696 32.3457C57.5137 32.3119 57.5569 32.2771 57.5992 32.2412C57.613 32.2292 57.6268 32.2172 57.6406 32.2052C57.6692 32.1803 57.6979 32.1555 57.7257 32.1296C57.7417 32.1149 57.7578 32.0993 57.7728 32.0846C57.7975 32.0603 57.8231 32.037 57.847 32.0117C57.8632 31.9951 57.8794 31.9786 57.8956 31.962C57.9086 31.949 57.9215 31.9359 57.9346 31.9219C57.941 31.9159 57.9467 31.9078 57.9521 31.9017C58.0087 31.8404 58.0646 31.7771 58.1179 31.7106C58.1246 31.7017 58.1313 31.6928 58.139 31.684C58.1879 31.6228 58.235 31.5596 58.2815 31.4943C58.2882 31.4854 58.2948 31.4775 58.3006 31.4685C58.3039 31.464 58.3074 31.4586 58.3109 31.4532C58.362 31.3798 58.4115 31.3043 58.4593 31.2257C58.4687 31.2094 58.4781 31.194 58.4875 31.1777C58.5356 31.0963 58.583 31.0128 58.6287 30.9273C58.6287 30.9273 58.6288 30.9263 58.6298 30.9264C58.6589 30.8699 58.6882 30.8115 58.7166 30.7529C58.724 30.7374 58.7306 30.7208 58.738 30.7052C58.7592 30.6603 58.7793 30.6163 58.7995 30.5704C58.8097 30.5474 58.8189 30.5244 58.8281 30.5013C58.8448 30.4617 58.8615 30.4222 58.8773 30.3825C58.8878 30.3557 58.8974 30.3288 58.908 30.3021C58.9202 30.2688 58.9333 30.2355 58.9456 30.2022C58.947 30.1976 58.9485 30.1929 58.9498 30.1892C58.9663 30.1429 58.9819 30.0955 58.9985 30.0482C59.0069 30.0241 59.0151 30.0009 59.0225 29.9767C59.0456 29.9041 59.0687 29.8316 59.0901 29.7569L63.3533 15.0727L62.1545 13.5096Z" fill="url(#paint27_linear_1415_3274)"/>
<path d="M12.8724 13.4472C15.1905 13.4501 16.0177 14.6034 15.3494 16.9057L14.097 21.2251C13.4295 23.5294 11.9356 24.6805 9.6156 24.6774L7.00567 24.6743L4.99545 31.5855L0.646207 31.5804L5.40808 15.1662L4.172 13.4367L12.8724 13.4472ZM10.0002 20.3573L10.7475 17.7652L9.00817 17.7632L8.26093 20.3553L10.0002 20.3573Z" fill="white" stroke="#5B40D7" stroke-width="0.1" stroke-miterlimit="10" stroke-linecap="round"/>
<path d="M17.4126 15.1725L16.2167 13.5002L22.1501 13.5082L18.1385 27.3296L21.619 27.3339L20.3922 31.5578L12.6645 31.5478L17.4126 15.1725Z" fill="white"/>
<path d="M22.0857 13.5544L18.1091 27.2545L18.074 27.3768L18.2011 27.3768L21.5545 27.381L20.3562 31.5089L12.7287 31.499L17.4526 15.2067L17.465 15.1619L17.4382 15.1244L16.3102 13.5468L22.0857 13.5544ZM22.2133 13.4592L16.1229 13.4519L17.3589 15.1814L12.5999 31.5959L20.4268 31.6059L21.6811 27.2867L18.2005 27.2825L22.2133 13.4592Z" fill="#5B40D7"/>
<path d="M28.1967 13.4667L35.1548 13.4758L33.3712 31.6217L29.0219 31.6166L29.2554 29.8893L26.3161 29.8858L25.5423 31.6125L21.1931 31.6074L29.2376 14.9206L28.1967 13.4667ZM29.8399 25.5654L30.5463 20.3832L28.2392 25.5637L29.8399 25.5654Z" fill="white" stroke="#5B40D7" stroke-width="0.1" stroke-miterlimit="10" stroke-linecap="round"/>
<path d="M46.2465 13.4893C48.5646 13.4922 49.3919 14.6455 48.7235 16.9479L45.4609 28.1784C45.1305 29.331 44.5918 30.195 43.8431 30.7694L42.8422 34.2259L40.9814 31.631L37.5009 31.6268C35.1809 31.6237 34.3555 30.4705 35.0231 28.1662L38.2857 16.9356C38.954 14.6333 40.4468 13.483 42.7649 13.4859L46.2465 13.4893ZM41.3642 27.3106L44.1245 17.8076L42.3852 17.8056L39.6248 27.3086L41.3642 27.3106Z" fill="white" stroke="#5B40D7" stroke-width="0.1" stroke-miterlimit="10" stroke-linecap="round"/>
<path d="M49.3293 31.5646C48.495 31.4759 47.9081 31.1886 47.587 30.7112C47.2093 30.1499 47.1807 29.3035 47.5017 28.1951L51.2669 15.2159L50.0729 13.5437L56.0044 13.5515L51.9926 27.3739L53.8312 27.3759L57.843 13.5534L62.092 13.5585L57.8468 28.1822C57.1886 30.4529 55.6968 31.6032 53.4134 31.6002L49.9328 31.5959C49.7192 31.5944 49.516 31.5844 49.3293 31.5646Z" fill="white"/>
<path d="M62.027 13.6045L57.7989 28.1665C57.4722 29.2934 56.9383 30.1484 56.2113 30.7087C55.4853 31.2682 54.5432 31.5509 53.4115 31.5499L49.931 31.5457C49.7191 31.5453 49.5179 31.5355 49.3321 31.5158C48.5121 31.4287 47.9379 31.1485 47.6243 30.6824C47.2549 30.1335 47.2278 29.3008 47.5453 28.2065L51.3033 15.2495L51.3158 15.2047L51.289 15.1672L50.163 13.5888L55.9376 13.5963L51.9628 27.2967L51.9277 27.4189L52.0548 27.4189L53.7941 27.421L53.8664 27.4209L53.8862 27.3519L57.8782 13.5985L62.027 13.6045ZM62.1546 13.5094L57.8053 13.5042L53.7936 27.3266L52.0542 27.3246L56.066 13.5022L49.9785 13.4942L51.2127 15.2235L47.4546 28.1805C46.8483 30.2711 47.4714 31.4143 49.3239 31.6111C49.5135 31.6312 49.7166 31.6412 49.9323 31.642L53.4128 31.6462C55.7309 31.6491 57.2238 30.4979 57.8924 28.1937L62.1546 13.5094Z" fill="#5B40D7"/>
<path d="M63.7383 15.2312L62.5454 13.5582L72.8271 13.5712L71.6003 17.7942L67.252 17.7892L66.4773 20.4764L70.7495 20.482L65.2446 24.7199L64.4662 27.3875L68.8153 27.3936L67.5886 31.6166L58.9902 31.6064L63.7383 15.2312Z" fill="white"/>
<path d="M72.7623 13.6185L71.564 17.7464L67.287 17.7413L67.2147 17.7413L67.1949 17.8104L66.4476 20.4024L66.4125 20.5246L66.5396 20.5247L70.6076 20.5298L65.2265 24.6722L65.2013 24.6916L65.1924 24.7214L64.4365 27.3135L64.4004 27.4357L64.5275 27.4357L68.7487 27.4407L67.5503 31.5686L59.0523 31.5576L63.7761 15.2653L63.7886 15.2205L63.7618 15.183L62.6358 13.6047L72.7623 13.6185ZM72.8901 13.5224L62.4513 13.5101L63.6855 15.2394L58.9256 31.6528L67.623 31.6639L68.8773 27.3447L64.5281 27.3396L65.284 24.7475L70.8876 20.4335L66.5383 20.4284L67.2856 17.8363L71.6348 17.8415L72.8901 13.5224Z" fill="#5B40D7"/>
<path d="M74.9063 15.3915L73.7099 13.7153L79.6538 13.7234L74.4066 31.8054L70.1489 31.8004L74.9063 15.3915Z" fill="white"/>
<path d="M79.5895 13.7695L74.3707 31.7565L70.2121 31.7514L74.9453 15.4265L74.9577 15.3817L74.9309 15.3442L73.8024 13.7627L79.5895 13.7695ZM79.7171 13.6744L73.617 13.667L74.8537 15.3995L70.0845 31.8465L74.4424 31.8516L79.7171 13.6744Z" fill="#5B40D7"/>
<path d="M81.5514 15.4259L80.3549 13.7497L87.1821 13.7583L86.1367 23.5108L90.7532 13.7625L95.8863 13.7692L90.6401 31.8513L86.3813 31.8462L88.7913 23.5378L88.7026 23.5025L84.5457 31.8445L82.8844 31.8422L83.6008 23.0741L81.0517 31.8398L76.7939 31.8348L81.5514 15.4259Z" fill="white"/>
<path d="M95.8219 13.8164L90.6031 31.8034L86.4445 31.7983L88.8365 23.5506L88.6589 23.4817L84.5155 31.7963L82.9361 31.794L83.6104 23.5494L83.6876 22.6047L83.4234 23.5142L81.0168 31.7902L76.8583 31.7851L81.5914 15.4602L81.6039 15.4154L81.577 15.3779L80.4485 13.7964L87.1284 13.8048L86.1194 23.2235L86.0588 23.7854L86.3009 23.2745L90.7832 13.8092L95.8219 13.8164ZM95.9495 13.7213L90.7219 13.7152L86.2135 23.2355L87.2346 13.7112L80.262 13.7025L81.4987 15.435L76.7295 31.8821L81.0874 31.8871L83.5148 23.5422L82.8325 31.8898L84.5747 31.8921L88.7449 23.5245L86.3178 31.8945L90.6757 31.8996L95.9495 13.7213Z" fill="#5B40D7"/>
<path d="M97.7852 15.473L96.5888 13.7967L103.415 13.8053L102.37 23.5577L106.986 13.8095L112.12 13.8162L106.873 31.8983L102.615 31.8932L105.025 23.5839L104.936 23.5495L100.779 31.8905L99.1183 31.8882L99.8347 23.1202L97.2856 31.8859L93.0269 31.8808L97.7852 15.473Z" fill="white"/>
<path d="M112.056 13.8625L106.837 31.8494L102.678 31.8444L105.07 23.5966L104.893 23.5278L100.749 31.8424L99.17 31.8401L99.8442 23.5955L99.9215 22.6507L99.6573 23.5603L97.2507 31.8363L93.0922 31.8312L97.8253 15.5063L97.8378 15.4614L97.8109 15.424L96.6824 13.8425L103.362 13.8508L102.353 23.2696L102.293 23.8315L102.535 23.3206L107.017 13.8553L112.056 13.8625ZM112.183 13.7674L106.956 13.7613L102.447 23.2815L103.469 13.7573L96.4959 13.7486L97.7326 15.4811L92.9634 31.9281L97.3213 31.9332L99.7487 23.5882L99.0664 31.9358L100.809 31.9381L104.979 23.5705L102.552 31.9405L106.91 31.9456L112.183 13.7674Z" fill="#5B40D7"/>
<path d="M114.774 13.7703L121.747 13.779L119.957 31.9609L115.599 31.9558L115.835 30.2249L112.887 30.2215L112.111 31.9517L107.753 31.9466L115.815 15.2261L114.774 13.7703ZM116.418 25.896L117.126 20.7005L114.814 25.8939L116.418 25.896Z" fill="white" stroke="#5B40D7" stroke-width="0.1" stroke-miterlimit="10" stroke-linecap="round"/>
<path d="M125.711 18.1042L122.649 13.8277L133.823 13.8421L132.595 18.0747L129.98 18.0711L125.961 31.9215L121.702 31.9154L125.711 18.1042Z" fill="white"/>
<path d="M133.759 13.8903L132.56 18.0269L130.017 18.0242L129.945 18.0242L129.925 18.0932L125.926 31.8746L121.767 31.8696L125.752 18.1414L125.765 18.0966L125.738 18.0592L122.744 13.8773L133.759 13.8903ZM133.886 13.7942L122.555 13.7804L125.658 18.1141L121.638 31.9645L125.996 31.9696L130.016 18.1192L132.631 18.1228L133.886 13.7942Z" fill="#5B40D7"/>
<path d="M130.105 31.6319C129.795 31.599 129.562 31.4704 129.395 31.2373C129.204 30.9698 129.163 30.6395 129.274 30.256C129.388 29.8671 129.626 29.5317 129.979 29.2596C130.338 28.9833 130.705 28.8491 131.1 28.8498C131.155 28.8499 131.209 28.8527 131.259 28.8581C131.57 28.891 131.801 29.0194 131.967 29.2525C132.158 29.518 132.199 29.8484 132.089 30.2338C131.975 30.6207 131.738 30.9562 131.384 31.2302C131.028 31.502 130.65 31.6407 130.263 31.64C130.209 31.64 130.155 31.6372 130.105 31.6319Z" fill="white"/>
<path d="M131.253 28.9045C131.549 28.9359 131.77 29.0584 131.927 29.279C132.112 29.5352 132.15 29.8431 132.042 30.2182C131.931 30.5959 131.7 30.9233 131.355 31.1905C131.001 31.4597 130.645 31.5911 130.262 31.5909C130.209 31.591 130.158 31.5885 130.11 31.5833C129.815 31.552 129.593 31.4294 129.434 31.2086C129.249 30.9505 129.211 30.6426 129.319 30.2694C129.431 29.8899 129.662 29.5625 130.007 29.2972C130.357 29.0276 130.714 28.8972 131.099 28.8977C131.152 28.8967 131.204 28.8993 131.253 28.9045ZM131.264 28.8094C131.211 28.8039 131.156 28.8009 131.099 28.8006C130.695 28.8 130.313 28.9392 129.948 29.2207C129.585 29.4995 129.343 29.8402 129.227 30.2413C129.111 30.6406 129.154 30.9817 129.355 31.2637C129.529 31.5043 129.776 31.6431 130.099 31.6774C130.151 31.6829 130.205 31.6857 130.262 31.686C130.665 31.6866 131.048 31.5455 131.413 31.2659C131.776 30.9852 132.017 30.6434 132.134 30.2453C132.249 29.844 132.207 29.503 132.006 29.2229C131.832 28.9813 131.586 28.8436 131.264 28.8094Z" fill="#5B40D7"/>
<path d="M137.3 20.7184L136.516 19.6187L143.332 19.6271L142.523 22.4174L139.616 22.4135L139.088 24.2394L141.917 24.2436L138.274 27.0493L136.936 31.6471L134.13 31.6444L137.3 20.7184Z" fill="white"/>
<path d="M143.268 19.6746L142.486 22.3687L139.651 22.3647L139.579 22.3648L139.559 22.4338L139.06 24.1647L139.025 24.2869L139.152 24.2869L141.776 24.2906L138.256 27.0017L138.231 27.0211L138.222 27.0509L136.899 31.6003L134.192 31.5966L137.338 20.7536L137.35 20.7087L137.323 20.6713L136.607 19.6662L143.268 19.6746ZM143.395 19.5794L136.422 19.5707L137.246 20.7265L134.066 31.6918L136.971 31.6955L138.314 27.0771L142.057 24.1954L139.152 24.1918L139.651 22.4609L142.559 22.4649L143.395 19.5794Z" fill="#5B40D7"/>
<path d="M149.43 19.5868C150.981 19.5889 151.532 20.3591 151.086 21.8984L150.419 24.2057C149.969 25.7455 149.357 26.5143 148.583 26.5129L148.239 31.7086L145.334 31.7048L145.514 27.0851L144.171 31.7035L141.266 31.6998L144.444 20.7353L143.62 19.5794L149.43 19.5868ZM147.514 24.202L148.013 22.4711L146.85 22.4698L146.351 24.2006L147.514 24.202Z" fill="white" stroke="#5B40D7" stroke-width="0.1" stroke-miterlimit="10" stroke-linecap="round"/>
<defs>
<linearGradient id="paint0_linear_1415_3274" x1="163.365" y1="38.8592" x2="25.4773" y2="21.9624" gradientUnits="userSpaceOnUse">
<stop stop-color="#E85F62"/>
<stop offset="1" stop-color="#5B40D7"/>
</linearGradient>
<linearGradient id="paint1_linear_1415_3274" x1="163.216" y1="40.0715" x2="25.3287" y2="23.1746" gradientUnits="userSpaceOnUse">
<stop stop-color="#E85F62"/>
<stop offset="1" stop-color="#5B40D7"/>
</linearGradient>
<linearGradient id="paint2_linear_1415_3274" x1="162.254" y1="47.9212" x2="24.3669" y2="31.0243" gradientUnits="userSpaceOnUse">
<stop stop-color="#E85F62"/>
<stop offset="1" stop-color="#5B40D7"/>
</linearGradient>
<linearGradient id="paint3_linear_1415_3274" x1="162.321" y1="47.3741" x2="24.4338" y2="30.4773" gradientUnits="userSpaceOnUse">
<stop stop-color="#E85F62"/>
<stop offset="1" stop-color="#5B40D7"/>
</linearGradient>
<linearGradient id="paint4_linear_1415_3274" x1="162.939" y1="42.3359" x2="25.0512" y2="25.439" gradientUnits="userSpaceOnUse">
<stop stop-color="#E85F62"/>
<stop offset="1" stop-color="#5B40D7"/>
</linearGradient>
<linearGradient id="paint5_linear_1415_3274" x1="159.844" y1="33.8725" x2="25.5922" y2="17.4212" gradientUnits="userSpaceOnUse">
<stop stop-color="#E85F62"/>
<stop offset="1" stop-color="#5B40D7"/>
</linearGradient>
<linearGradient id="paint6_linear_1415_3274" x1="160.539" y1="28.2209" x2="26.2829" y2="11.7689" gradientUnits="userSpaceOnUse">
<stop stop-color="#E85F62"/>
<stop offset="1" stop-color="#5B40D7"/>
</linearGradient>
<linearGradient id="paint7_linear_1415_3274" x1="159.324" y1="38.1199" x2="25.0719" y2="21.6686" gradientUnits="userSpaceOnUse">
<stop stop-color="#E85F62"/>
<stop offset="1" stop-color="#5B40D7"/>
</linearGradient>
<linearGradient id="paint8_linear_1415_3274" x1="160.053" y1="32.1675" x2="25.8012" y2="15.7161" gradientUnits="userSpaceOnUse">
<stop stop-color="#E85F62"/>
<stop offset="1" stop-color="#5B40D7"/>
</linearGradient>
<linearGradient id="paint9_linear_1415_3274" x1="160.771" y1="26.3075" x2="26.519" y2="9.85612" gradientUnits="userSpaceOnUse">
<stop stop-color="#E85F62"/>
<stop offset="1" stop-color="#5B40D7"/>
</linearGradient>
<linearGradient id="paint10_linear_1415_3274" x1="159.558" y1="36.2066" x2="25.3063" y2="19.7553" gradientUnits="userSpaceOnUse">
<stop stop-color="#E85F62"/>
<stop offset="1" stop-color="#5B40D7"/>
</linearGradient>
<linearGradient id="paint11_linear_1415_3274" x1="160.386" y1="29.4458" x2="26.1348" y2="12.9945" gradientUnits="userSpaceOnUse">
<stop stop-color="#E85F62"/>
<stop offset="1" stop-color="#5B40D7"/>
</linearGradient>
<linearGradient id="paint12_linear_1415_3274" x1="160.287" y1="30.2543" x2="26.0356" y2="13.803" gradientUnits="userSpaceOnUse">
<stop stop-color="#E85F62"/>
<stop offset="1" stop-color="#5B40D7"/>
</linearGradient>
<linearGradient id="paint13_linear_1415_3274" x1="160.478" y1="28.6959" x2="26.2265" y2="12.2445" gradientUnits="userSpaceOnUse">
<stop stop-color="#E85F62"/>
<stop offset="1" stop-color="#5B40D7"/>
</linearGradient>
<linearGradient id="paint14_linear_1415_3274" x1="160.611" y1="27.6102" x2="26.3595" y2="11.1589" gradientUnits="userSpaceOnUse">
<stop stop-color="#E85F62"/>
<stop offset="1" stop-color="#5B40D7"/>
</linearGradient>
<linearGradient id="paint15_linear_1415_3274" x1="159.748" y1="34.6594" x2="25.496" y2="18.2081" gradientUnits="userSpaceOnUse">
<stop stop-color="#E85F62"/>
<stop offset="1" stop-color="#5B40D7"/>
</linearGradient>
<linearGradient id="paint16_linear_1415_3274" x1="160.441" y1="29.0017" x2="26.1892" y2="12.5504" gradientUnits="userSpaceOnUse">
<stop stop-color="#E85F62"/>
<stop offset="1" stop-color="#5B40D7"/>
</linearGradient>
<linearGradient id="paint17_linear_1415_3274" x1="160.844" y1="25.7165" x2="26.5918" y2="9.26516" gradientUnits="userSpaceOnUse">
<stop stop-color="#E85F62"/>
<stop offset="1" stop-color="#5B40D7"/>
</linearGradient>
<linearGradient id="paint18_linear_1415_3274" x1="160.516" y1="28.3884" x2="26.2643" y2="11.9371" gradientUnits="userSpaceOnUse">
<stop stop-color="#E85F62"/>
<stop offset="1" stop-color="#5B40D7"/>
</linearGradient>
<linearGradient id="paint19_linear_1415_3274" x1="162.905" y1="42.615" x2="25.0171" y2="25.7182" gradientUnits="userSpaceOnUse">
<stop stop-color="#E85F62"/>
<stop offset="1" stop-color="#5B40D7"/>
</linearGradient>
<linearGradient id="paint20_linear_1415_3274" x1="163.394" y1="38.6149" x2="25.5071" y2="21.7181" gradientUnits="userSpaceOnUse">
<stop stop-color="#E85F62"/>
<stop offset="1" stop-color="#5B40D7"/>
</linearGradient>
<linearGradient id="paint21_linear_1415_3274" x1="163.436" y1="38.2769" x2="25.5487" y2="21.3801" gradientUnits="userSpaceOnUse">
<stop stop-color="#E85F62"/>
<stop offset="1" stop-color="#5B40D7"/>
</linearGradient>
<linearGradient id="paint22_linear_1415_3274" x1="163.301" y1="39.3791" x2="25.4136" y2="22.4822" gradientUnits="userSpaceOnUse">
<stop stop-color="#E85F62"/>
<stop offset="1" stop-color="#5B40D7"/>
</linearGradient>
<linearGradient id="paint23_linear_1415_3274" x1="163.308" y1="39.3242" x2="25.4203" y2="22.4274" gradientUnits="userSpaceOnUse">
<stop stop-color="#E85F62"/>
<stop offset="1" stop-color="#5B40D7"/>
</linearGradient>
<linearGradient id="paint24_linear_1415_3274" x1="163.876" y1="34.6932" x2="25.9879" y2="17.7963" gradientUnits="userSpaceOnUse">
<stop stop-color="#E85F62"/>
<stop offset="1" stop-color="#5B40D7"/>
</linearGradient>
<linearGradient id="paint25_linear_1415_3274" x1="164.537" y1="29.2961" x2="26.6492" y2="12.3992" gradientUnits="userSpaceOnUse">
<stop stop-color="#E85F62"/>
<stop offset="1" stop-color="#5B40D7"/>
</linearGradient>
<linearGradient id="paint26_linear_1415_3274" x1="163.673" y1="36.3472" x2="25.7852" y2="19.4503" gradientUnits="userSpaceOnUse">
<stop stop-color="#E85F62"/>
<stop offset="1" stop-color="#5B40D7"/>
</linearGradient>
<linearGradient id="paint27_linear_1415_3274" x1="163.656" y1="36.4852" x2="25.7684" y2="19.5883" gradientUnits="userSpaceOnUse">
<stop stop-color="#E85F62"/>
<stop offset="1" stop-color="#5B40D7"/>
</linearGradient>
</defs>
</svg>
