<svg width="79" height="81" fill="none" xmlns="http://www.w3.org/2000/svg"><path d="M48.588 57.378h-2.203c-6.349-11.425-14.511-27.264-17.103-27.005-2.72.26-1.814 7.66-3.887 10.516-1.943 2.727-14.64-7.14-17.75-5.452-3.11 1.817 1.166 14.151 1.813 17.916.778 3.895-8.292 1.558-8.421 6.622-.13 5.063 14.9 4.933 15.807 6.88.777 1.948-8.81 5.194-7.126 10.776 1.554 5.453 29.541.26 42.887-8.439l5.83-9.347C70.225 40.889 82.794 2.07 74.113 1.16 67.246.9 60.12 16.35 57.787 16.48c-2.332 0-3.498-9.607-7.644-8.179-4.017 1.558-3.498 31.679-2.073 48.946l.518.13z" fill="#D8E8C3"/><path fill-rule="evenodd" clip-rule="evenodd" d="M48.588 57.378h-2.203c-6.349-11.425-14.511-27.264-17.103-27.005-2.72.26-1.814 7.66-3.887 10.516-1.943 2.727-14.64-7.14-17.75-5.452-3.11 1.817 1.166 14.151 1.813 17.916.778 3.895-8.292 1.558-8.421 6.622-.13 5.063 14.9 4.933 15.807 6.88.777 1.948-8.81 5.194-7.126 10.776 1.554 5.453 29.541.26 42.887-8.439l5.83-9.347C70.225 40.889 82.794 2.07 74.113 1.16 67.246.9 60.12 16.35 57.787 16.48c-2.332 0-3.498-9.607-7.644-8.179-4.017 1.558-3.498 31.679-2.073 48.946l.518.13zm-4.405-6.102c1.036 1.688 1.943 3.505 2.72 4.933-.777-9.867-1.166-23.24-.777-33.366.389-8.439 1.425-14.67 3.628-15.45 3.369-1.168 4.924 2.207 6.349 5.193.648 1.429 1.296 2.857 1.684 2.857.26 0 1.685-1.948 3.37-4.285C64.524 6.355 69.188-.137 74.112.123c.518 0 .907.13 1.166.26C77.482 1.42 78.26 4.406 78 8.691c-.26 3.894-1.166 8.958-2.85 14.54-3.37 12.207-9.59 27.007-15.55 36.874l-.259.26v.13l.389-.78-.13.39-.259.39v-.13.13l-5.83 9.218-.13.26-.13.13c-4.664 2.985-11.013 5.582-17.491 7.53-5.83 1.687-11.92 2.856-16.585 3.115-5.183.39-8.94-.26-10.236-2.077-.13-.26-.259-.52-.259-.779-1.166-4.025 2.332-6.88 5.053-8.958l2.073-1.688c0-.13-2.073-.65-4.535-1.039C6.35 65.168 0 64 0 59.975c0-3.506 2.98-4.155 5.701-4.804 1.555-.39 2.98-.78 2.72-1.558a37.443 37.443 0 00-.776-3.505c-1.426-5.583-3.628-13.763-.519-15.58 1.944-1.169 5.96.909 9.847 2.856 3.628 1.818 7.127 3.635 7.645 2.856.648-.909.907-2.856 1.296-4.803.518-2.986.907-5.973 3.368-6.102 2.721-.26 9.07 11.295 14.9 21.94z" fill="#FEFEFE"/><path d="M48.329 54.651c0 1.558-2.203 2.078-2.85 1.169-4.276-7.14-13.216-21.162-15.29-19.085-2.073 1.947.519 9.218-1.166 9.867-1.684.65-10.106-5.323-11.66-3.505-1.426 1.687 1.943 9.737 1.943 11.814.13 2.078-4.924.78-5.572 4.155-.648 3.505 11.013 3.895 11.92 5.712 1.037 1.818-6.867 4.804-5.57 8.57 1.295 3.634 22.285 1.297 32.52-4.156l5.831-9.347c10.495-14.93 21.638-48.816 14.253-49.336-7.386-.52-12.828 13.113-14.382 12.204-1.426-1.038-2.721-8.569-5.313-6.232-2.461 2.207-4.535 23.5-4.664 38.17z" fill="#9AB925"/><path d="M52.605 69.192c-7.645 2.987-22.286 5.064-23.323 1.688-1.036-3.375 4.665-3.765 4.406-6.232-.389-2.466-9.2-2.336-9.2-4.544 0-2.337 1.814-1.558 2.203-2.207.26-.779-3.887-8.05-2.591-9.737 1.295-1.688 6.09 3.116 7.644 2.077 1.555-1.038-.259-4.414 1.425-5.063 1.685-.52 11.273 11.944 14.123 10.776 2.85-1.039 4.406-28.173 8.034-29.991 3.498-1.818 3.498 4.674 4.664 4.933 1.296.26 5.442-8.309 11.92-9.607 6.35-1.428-7.515 32.717-19.305 47.907z" fill="#00502E"/></svg>