<svg width="238" height="60" fill="none" xmlns="http://www.w3.org/2000/svg"><path d="M2.146 21.325H12.34v3.479H5.675v3.377h6.665v3.415H5.675v4.913h6.665V40H2.146V21.325zm13.533 0h3.402l8.01 12.29v-12.29h3.555V40h-3.415l-7.998-12.251V40H15.68V21.325zm19.474 0h3.77c2.066 0 3.534.186 4.406.559.88.364 1.587.973 2.12 1.828.533.855.8 1.866.8 3.034 0 1.227-.296 2.256-.889 3.085-.584.821-1.468 1.443-2.653 1.866L47.125 40H43.24l-4.202-7.91h-.33V40h-3.555V21.325zm3.555 7.3h1.117c1.134 0 1.913-.148 2.336-.444.432-.297.648-.787.648-1.473 0-.406-.106-.757-.318-1.054a1.71 1.71 0 00-.85-.647c-.356-.136-1.008-.203-1.956-.203h-.977v3.821zm20.11-7.77c2.64 0 4.908.957 6.804 2.87 1.904 1.912 2.856 4.244 2.856 6.995 0 2.725-.939 5.031-2.818 6.919-1.87 1.887-4.143 2.83-6.817 2.83-2.802 0-5.13-.968-6.983-2.907-1.853-1.938-2.78-4.24-2.78-6.906 0-1.786.432-3.427 1.295-4.925a9.552 9.552 0 013.555-3.555 9.567 9.567 0 014.887-1.32zm-.039 3.479c-1.726 0-3.178.6-4.354 1.803-1.177 1.201-1.765 2.73-1.765 4.583 0 2.065.74 3.698 2.222 4.9a6.087 6.087 0 003.96 1.41c1.685 0 3.12-.61 4.305-1.829 1.184-1.219 1.777-2.72 1.777-4.507 0-1.777-.597-3.28-1.79-4.506-1.194-1.236-2.645-1.854-4.355-1.854zm30.215.28l-2.488 2.373c-1.693-1.785-3.597-2.678-5.713-2.678-1.786 0-3.292.609-4.52 1.828-1.218 1.218-1.828 2.72-1.828 4.507 0 1.244.271 2.348.813 3.313a5.818 5.818 0 002.298 2.273c.99.55 2.09.825 3.3.825 1.033 0 1.977-.19 2.832-.572.854-.389 1.794-1.091 2.818-2.107l2.412 2.514c-1.38 1.345-2.683 2.28-3.91 2.805-1.227.517-2.628.775-4.202.775-2.903 0-5.282-.919-7.135-2.755-1.845-1.845-2.768-4.207-2.768-7.084 0-1.862.42-3.517 1.257-4.964.847-1.447 2.053-2.611 3.618-3.491a10.238 10.238 0 015.078-1.32c1.54 0 3.022.325 4.444.977a10.626 10.626 0 013.694 2.78zm3.11-3.289h3.606v7.046h6.246v-7.046h3.593V40h-3.593v-8.189H95.71V40h-3.605V21.325zm17.723 0h10.194v3.479h-6.665v3.377h6.665v3.415h-6.665v4.913h6.665V40h-10.194V21.325zm15.323 0h3.479l4.316 13.026 4.38-13.026h3.428L143.901 40h-3.427l-2.006-11.794L134.494 40h-3.136l-3.922-11.794L125.392 40h-3.466l3.224-18.675zm21.621 0h10.194v3.479H150.3v3.377h6.665v3.415H150.3v4.913h6.665V40h-10.194V21.325zm13.533 0h3.402l8.011 12.29v-12.29h3.554V40h-3.415l-7.998-12.251V40h-3.554V21.325zm17.392 0h10.322v3.504h-3.403V40h-3.605V24.83h-3.314v-3.505z" fill="#000"/><path d="M2.146 21.325v-1h-1v1h1zm10.194 0h1v-1h-1v1zm0 3.479v1h1v-1h-1zm-6.665 0v-1h-1v1h1zm0 3.377h-1v1h1v-1zm6.665 0h1v-1h-1v1zm0 3.415v1h1v-1h-1zm-6.665 0v-1h-1v1h1zm0 4.913h-1v1h1v-1zm6.665 0h1v-1h-1v1zm0 3.491v1h1v-1h-1zM2.146 40h-1v1h1v-1zm0-17.675H12.34v-2H2.146v2zm9.194-1v3.479h2v-3.479h-2zm1 2.479H5.675v2h6.665v-2zm-7.665 1v3.377h2v-3.377h-2zm1 4.377h6.665v-2H5.675v2zm5.665-1v3.415h2V28.18h-2zm1 2.415H5.675v2h6.665v-2zm-7.665 1v4.913h2v-4.913h-2zm1 5.913h6.665v-2H5.675v2zm5.665-1V40h2v-3.491h-2zm1 2.491H2.146v2H12.34v-2zm-9.194 1V21.325h-2V40h2zm12.533-18.675v-1h-1v1h1zm3.402 0l.838-.546-.296-.454h-.542v1zm8.01 12.29l-.837.545 1.838 2.82v-3.366h-1zm0-12.29v-1h-1v1h1zm3.555 0h1v-1h-1v1zm0 18.675v1h1v-1h-1zm-3.415 0l-.837.547.296.453h.541v-1zm-7.998-12.251l.838-.547-1.838-2.814v3.361h1zm0 12.251v1h1v-1h-1zm-3.554 0h-1v1h1v-1zm0-17.675h3.402v-2H15.68v2zm2.564-.454l8.011 12.29 1.675-1.093-8.01-12.289-1.676 1.092zm9.849 11.743V21.325h-2v12.29h2zm-1-11.289h3.555v-2h-3.555v2zm2.555-1V40h2V21.325h-2zm1 17.675H27.23v2h3.415v-2zm-2.578.453l-7.998-12.25-1.675 1.093 7.998 12.25 1.675-1.093zM18.233 27.75V40h2V27.749h-2zm1 11.251H15.68v2h3.554v-2zm-2.554 1V21.325h-2V40h2zm18.474-18.675v-1h-1v1h1zm8.176.559l-.393.92.011.004.382-.924zm2.031 7.947l-.813-.581-.002.001.815.58zm-2.653 1.866l-.336-.941-1.09.389.543 1.022.883-.47zM47.125 40v1h1.665l-.782-1.47-.883.47zm-3.885 0l-.883.47.282.53h.601v-1zm-4.202-7.91l.883-.468-.282-.531h-.6v1zm-.33 0v-1h-1v1h1zm0 7.91v1h1v-1h-1zm-3.555 0h-1v1h1v-1zm3.555-11.375h-1v1h1v-1zm3.453-.444l-.566-.825-.007.005.573.82zm.33-2.527l-.821.57.008.011.813-.58zm-.85-.647l-.356.934.01.004.01.004.336-.942zm-2.933-.203v-1h-1v1h1zm-3.555-2.479h3.77v-2h-3.77v2zm3.77 0c2.053 0 3.343.192 4.013.478l.786-1.839c-1.073-.458-2.72-.639-4.798-.639v2zm4.024.483c.676.28 1.224.745 1.654 1.433l1.697-1.058c-.637-1.021-1.502-1.775-2.587-2.223l-.764 1.848zm1.654 1.433c.419.672.648 1.494.648 2.505h2c0-1.325-.304-2.526-.951-3.563L44.6 24.24zm.648 2.505c0 1.062-.254 1.876-.702 2.504l1.627 1.162c.737-1.031 1.075-2.274 1.075-3.666h-2zm-.704 2.505c-.438.617-1.134 1.133-2.174 1.505l.672 1.883c1.33-.475 2.403-1.203 3.132-2.228l-1.63-1.16zm-2.72 2.916l4.417 8.303 1.766-.94-4.418-8.303-1.766.94zm5.3 6.833H43.24v2h3.885v-2zm-3.002.53l-4.202-7.908-1.766.938 4.202 7.91 1.766-.94zm-5.085-8.44h-.33v2h.33v-2zm-1.33 1V40h2v-7.91h-2zm1 6.91h-3.555v2h3.555v-2zm-2.555 1V21.325h-2V40h2zm2.555-10.375h1.117v-2h-1.117v2zm1.117 0c.606 0 1.15-.04 1.622-.129.461-.087.915-.235 1.288-.496l-1.147-1.639c-.05.036-.198.11-.515.17a6.86 6.86 0 01-1.248.094v2zm2.902-.62c.785-.538 1.082-1.395 1.082-2.297h-2c0 .47-.135.594-.214.648l1.132 1.65zm1.082-2.297c0-.59-.157-1.15-.504-1.635l-1.627 1.162c.076.108.13.25.13.473h2zm-.496-1.624a2.71 2.71 0 00-1.336-1.019l-.673 1.884a.71.71 0 01.366.276l1.643-1.141zm-1.316-1.012c-.548-.208-1.37-.268-2.312-.268v2c.956 0 1.436.075 1.6.137l.712-1.869zm-2.312-.268h-.977v2h.977v-2zm-1.977 1v3.821h2v-3.821h-2zm27.914-1.08l-.71.705.001.001.71-.705zm.038 13.915l-.709-.706-.001.002.71.704zM53.93 22.176l.5.865h.002l-.502-.865zm.495 3.96l.714.7-.714-.7zm.457 9.484l.632-.775-.002-.001-.63.776zm8.252-9.432l-.72.694.003.003.717-.698zm-4.317-4.332c2.368 0 4.383.845 6.095 2.573l1.42-1.408c-2.08-2.098-4.601-3.166-7.515-3.166v2zm6.096 2.574c1.714 1.721 2.566 3.798 2.566 6.29h2c0-3.01-1.053-5.597-3.148-7.7l-1.418 1.41zm2.566 6.29c0 2.468-.84 4.518-2.528 6.213l1.418 1.411c2.07-2.08 3.11-4.642 3.11-7.624h-2zm-2.53 6.215c-1.68 1.696-3.697 2.535-6.106 2.535v2c2.94 0 5.468-1.05 7.527-3.127l-1.42-1.408zm-6.106 2.535c-2.542 0-4.604-.867-6.26-2.599l-1.445 1.383c2.051 2.145 4.644 3.216 7.705 3.216v-2zm-6.26-2.599c-1.677-1.753-2.503-3.808-2.503-6.215h-2c0 2.925 1.027 5.475 3.058 7.598l1.445-1.383zm-2.503-6.215c0-1.616.389-3.085 1.161-4.426l-1.732-.999c-.954 1.655-1.429 3.47-1.429 5.425h2zm1.161-4.426a8.553 8.553 0 013.19-3.189l-1.002-1.73a10.552 10.552 0 00-3.92 3.92l1.732.999zm3.191-3.19a8.567 8.567 0 014.385-1.184v-2c-1.92 0-3.723.487-5.39 1.455l1.005 1.73zm4.347.294c-1.987 0-3.699.704-5.069 2.103l1.43 1.4c.982-1.005 2.174-1.503 3.64-1.503v-2zm-5.069 2.103c-1.379 1.409-2.05 3.197-2.05 5.283h2c0-1.621.505-2.889 1.48-3.884l-1.43-1.399zm-2.05 5.283c0 2.338.855 4.268 2.592 5.677l1.26-1.553c-1.226-.995-1.852-2.332-1.852-4.124h-2zm2.59 5.675a7.086 7.086 0 004.593 1.634v-2c-1.26 0-2.357-.39-3.329-1.184l-1.265 1.55zm4.593 1.634c1.957 0 3.65-.72 5.02-2.13l-1.434-1.395c-.998 1.027-2.175 1.525-3.586 1.525v2zm5.02-2.13c1.377-1.416 2.06-3.173 2.06-5.205h-2c0 1.54-.5 2.788-1.494 3.81l1.434 1.394zm2.06-5.205c0-2.026-.69-3.782-2.072-5.204l-1.434 1.395c1.004 1.032 1.507 2.281 1.507 3.81h2zm-2.07-5.201c-1.38-1.43-3.091-2.159-5.074-2.159v2c1.437 0 2.63.507 3.635 1.548l1.44-1.39zm25.141-.88l.69.724.687-.655-.618-.72-.759.651zm-2.488 2.374l-.726.688.69.728.726-.692-.69-.724zm-10.233-.85l-.704-.71-.003.003.707.707zm7.415 10.346l.406.914.008-.003-.415-.91zm2.818-2.107l.721-.692-.704-.734-.721.716.704.71zm2.412 2.514l.698.715.71-.692-.686-.716-.722.693zm-3.91 2.805l.388.922.005-.002-.393-.92zm-11.337-1.98l-.707.707.003.003.704-.71zm-1.51-12.048l-.864-.505-.002.004.865.501zm3.617-3.491l-.488-.873-.002.001.49.872zm9.522-.343l-.417.91h.002l.415-.91zm3.004 2.057l-2.488 2.374 1.38 1.447 2.488-2.374-1.38-1.447zm-1.072 2.41c-1.848-1.95-4.003-2.991-6.439-2.991v2c1.796 0 3.45.744 4.987 2.366l1.452-1.376zm-6.439-2.991c-2.04 0-3.803.707-5.224 2.118l1.41 1.42c1.032-1.027 2.283-1.538 3.814-1.538v-2zm-5.227 2.12c-1.413 1.414-2.12 3.174-2.12 5.215h2c0-1.532.51-2.776 1.535-3.8l-1.415-1.414zm-2.12 5.215c0 1.393.304 2.67.94 3.803l1.744-.98c-.448-.797-.685-1.729-.685-2.823h-2zm.94 3.803a6.818 6.818 0 002.684 2.657l.971-1.749a4.819 4.819 0 01-1.911-1.887l-1.744.979zm2.684 2.657c1.149.638 2.418.95 3.786.95v-2c-1.052 0-1.983-.237-2.815-.699l-.971 1.749zm3.786.95c1.159 0 2.243-.214 3.239-.657l-.814-1.827c-.715.318-1.518.485-2.425.485v2zm3.246-.66c1.004-.458 2.04-1.249 3.108-2.308l-1.408-1.42c-.98.972-1.823 1.586-2.529 1.907l.829 1.82zm1.682-2.326l2.412 2.514 1.444-1.385-2.413-2.513-1.443 1.384zm2.436 1.106c-1.328 1.294-2.53 2.142-3.605 2.602l.786 1.839c1.379-.59 2.783-1.613 4.215-3.01l-1.396-1.431zm-3.6 2.6c-1.084.456-2.35.696-3.814.696v2c1.683 0 3.22-.276 4.59-.853l-.776-1.843zm-3.814.696c-2.672 0-4.787-.836-6.431-2.465l-1.408 1.42c2.063 2.044 4.704 3.045 7.839 3.045v-2zm-6.428-2.462c-1.637-1.638-2.475-3.735-2.475-6.377h-2c0 3.113 1.008 5.738 3.06 7.791l1.415-1.414zm-2.475-6.377c0-1.707.382-3.185 1.123-4.463l-1.731-1.002c-.936 1.616-1.392 3.447-1.392 5.465h2zm1.12-4.46c.75-1.282 1.823-2.324 3.245-3.123l-.98-1.744c-1.709.96-3.049 2.247-3.991 3.858l1.726 1.01zm3.243-3.122a9.24 9.24 0 014.59-1.194v-2c-1.98 0-3.842.484-5.566 1.448l.976 1.746zm4.59-1.194c1.395 0 2.734.294 4.027.887l.834-1.818a11.549 11.549 0 00-4.86-1.069v2zm4.03.888a9.626 9.626 0 013.35 2.522l1.517-1.303a11.625 11.625 0 00-4.039-3.039l-.829 1.82zm7.219-1.418v-1h-1v1h1zm3.605 0h1v-1h-1v1zm0 7.046h-1v1h1v-1zm6.246 0v1h1v-1h-1zm0-7.046v-1h-1v1h1zm3.593 0h1v-1h-1v1zm0 18.675v1h1v-1h-1zm-3.593 0h-1v1h1v-1zm0-8.189h1v-1h-1v1zm-6.246 0v-1h-1v1h1zm0 8.189v1h1v-1h-1zm-3.605 0h-1v1h1v-1zm0-17.675h3.605v-2h-3.605v2zm2.605-1v7.046h2v-7.046h-2zm1 8.046h6.246v-2H95.71v2zm7.246-1v-7.046h-2v7.046h2zm-1-6.046h3.593v-2h-3.593v2zm2.593-1V40h2V21.325h-2zm1 17.675h-3.593v2h3.593v-2zm-2.593 1v-8.189h-2V40h2zm-1-9.189H95.71v2h6.246v-2zm-7.246 1V40h2v-8.189h-2zm1 7.189h-3.605v2h3.605v-2zm-2.605 1V21.325h-2V40h2zm16.722-18.675v-1h-1v1h1zm10.194 0h1v-1h-1v1zm0 3.479v1h1v-1h-1zm-6.665 0v-1h-1v1h1zm0 3.377h-1v1h1v-1zm6.665 0h1v-1h-1v1zm0 3.415v1h1v-1h-1zm-6.665 0v-1h-1v1h1zm0 4.913h-1v1h1v-1zm6.665 0h1v-1h-1v1zm0 3.491v1h1v-1h-1zm-10.194 0h-1v1h1v-1zm0-17.675h10.194v-2h-10.194v2zm9.194-1v3.479h2v-3.479h-2zm1 2.479h-6.665v2h6.665v-2zm-7.665 1v3.377h2v-3.377h-2zm1 4.377h6.665v-2h-6.665v2zm5.665-1v3.415h2V28.18h-2zm1 2.415h-6.665v2h6.665v-2zm-7.665 1v4.913h2v-4.913h-2zm1 5.913h6.665v-2h-6.665v2zm5.665-1V40h2v-3.491h-2zm1 2.491h-10.194v2h10.194v-2zm-9.194 1V21.325h-2V40h2zm14.323-18.675v-1h-.842l-.143.83.985.17zm3.479 0l.949-.314-.227-.686h-.722v1zm4.316 13.026l-.949.314.942 2.844.955-2.84-.948-.318zm4.38-13.026v-1h-.719l-.229.681.948.32zm3.428 0l.986-.166-.141-.834h-.845v1zM143.901 40v1h1.183l-.197-1.166-.986.166zm-3.427 0l-.986.168.141.832h.845v-1zm-2.006-11.794l.986-.168-1.934-.151.948.32zM134.494 40v1h.718l.23-.68-.948-.32zm-3.136 0l-.948.316.227.684h.721v-1zm-3.922-11.794l.948-.316-1.934.145.986.171zM125.392 40v1h.841l.144-.83-.985-.17zm-3.466 0l-.986-.17-.202 1.17h1.188v-1zm3.224-17.675h3.479v-2h-3.479v2zm2.53-.685l4.316 13.025 1.899-.629-4.317-13.025-1.898.629zm6.213 13.03l4.38-13.026-1.896-.637-4.38 13.025 1.896.637zm3.432-12.345h3.428v-2h-3.428v2zm2.442-.834l3.148 18.675 1.972-.332-3.148-18.675-1.972.332zM143.901 39h-3.427v2h3.427v-2zm-2.442.832l-2.005-11.794-1.972.336 2.006 11.794 1.971-.336zm-3.939-11.945l-3.974 11.794 1.896.638 3.973-11.794-1.895-.638zM134.494 39h-3.136v2h3.136v-2zm-2.187.684l-3.923-11.794-1.897.632 3.923 11.794 1.897-.632zm-5.857-11.649l-2.044 11.794 1.971.342 2.044-11.794-1.971-.342zM125.392 39h-3.466v2h3.466v-2zm-2.481 1.17l3.225-18.675-1.971-.34-3.225 18.675 1.971.34zm23.86-18.845v-1h-1v1h1zm10.194 0h1v-1h-1v1zm0 3.479v1h1v-1h-1zm-6.665 0v-1h-1v1h1zm0 3.377h-1v1h1v-1zm6.665 0h1v-1h-1v1zm0 3.415v1h1v-1h-1zm-6.665 0v-1h-1v1h1zm0 4.913h-1v1h1v-1zm6.665 0h1v-1h-1v1zm0 3.491v1h1v-1h-1zm-10.194 0h-1v1h1v-1zm0-17.675h10.194v-2h-10.194v2zm9.194-1v3.479h2v-3.479h-2zm1 2.479H150.3v2h6.665v-2zm-7.665 1v3.377h2v-3.377h-2zm1 4.377h6.665v-2H150.3v2zm5.665-1v3.415h2V28.18h-2zm1 2.415H150.3v2h6.665v-2zm-7.665 1v4.913h2v-4.913h-2zm1 5.913h6.665v-2H150.3v2zm5.665-1V40h2v-3.491h-2zm1 2.491h-10.194v2h10.194v-2zm-9.194 1V21.325h-2V40h2zm12.533-18.675v-1h-1v1h1zm3.402 0l.838-.546-.296-.454h-.542v1zm8.011 12.29l-.838.545 1.838 2.82v-3.366h-1zm0-12.29v-1h-1v1h1zm3.554 0h1v-1h-1v1zm0 18.675v1h1v-1h-1zm-3.415 0l-.837.547.296.453h.541v-1zm-7.998-12.251l.838-.547-1.838-2.814v3.361h1zm0 12.251v1h1v-1h-1zm-3.554 0h-1v1h1v-1zm0-17.675h3.402v-2h-3.402v2zm2.564-.454l8.011 12.29 1.676-1.093-8.011-12.289-1.676 1.092zm9.849 11.743V21.325h-2v12.29h2zm-1-11.289h3.554v-2h-3.554v2zm2.554-1V40h2V21.325h-2zm1 17.675h-3.415v2h3.415v-2zm-2.577.453l-7.998-12.25-1.675 1.093 7.998 12.25 1.675-1.093zm-9.836-11.704V40h2V27.749h-2zm1 11.251h-3.554v2h3.554v-2zm-2.554 1V21.325h-2V40h2zm16.392-18.675v-1h-1v1h1zm10.322 0h1v-1h-1v1zm0 3.504v1h1v-1h-1zm-3.403 0v-1h-1v1h1zm0 15.171v1h1v-1h-1zm-3.605 0h-1v1h1v-1zm0-15.17h1v-1h-1v1zm-3.314 0h-1v1h1v-1zm0-2.505h10.322v-2h-10.322v2zm9.322-1v3.504h2v-3.504h-2zm1 2.504h-3.403v2h3.403v-2zm-4.403 1V40h2V24.83h-2zm1 14.171h-3.605v2h3.605v-2zm-2.605 1V24.83h-2V40h2zm-1-16.17h-3.314v2h3.314v-2zm-2.314 1v-3.505h-2v3.504h2z" fill="#fff"/><path d="M194.49 27.37h-3.732c.1-2.17.779-3.875 2.037-5.114 1.267-1.249 2.889-1.873 4.867-1.873 1.221 0 2.297.26 3.227.78.938.51 1.686 1.252 2.242 2.228.565.966.848 1.95.848 2.953 0 1.194-.342 2.479-1.026 3.855-.674 1.377-1.914 3.003-3.719 4.881l-2.255 2.379h7.164V41h-13.932v-1.832l6.221-6.344c1.504-1.522 2.502-2.743 2.994-3.664.501-.93.752-1.768.752-2.515 0-.775-.26-1.413-.78-1.915-.51-.51-1.171-.765-1.982-.765a2.64 2.64 0 00-2.051.916c-.547.61-.838 1.44-.875 2.488zm15.422-6.481h5.729V41h-3.801V24.484h-4.143l2.215-3.595z" fill="#FFC300"/></svg>