<svg width="300" height="29" fill="none" xmlns="http://www.w3.org/2000/svg"><path d="M23.843 1.107v26.635H18.25L5.592 7.968v19.774H0V1.107h7.313L18.25 17.929V1.107h5.592zm25.686 15.79v1.549c-.062.442-.062.811-.062 1.18-.061.369-.061.738-.061 1.033H32.261c.246.886.86 1.55 1.782 1.992.922.443 2.274.664 4.056.664h1.168c.491-.074.983-.074 1.536-.074.492-.073 1.045-.073 1.66-.073.552-.074 1.105-.074 1.658-.074a714.8 714.8 0 014.056-.221v4.058c-1.168.22-2.335.442-3.503.664-.983.147-2.089.295-3.257.442-1.167.148-2.273.148-3.318.148-2.15 0-3.994-.074-5.469-.369-1.475-.221-2.704-.738-3.626-1.402-.921-.738-1.597-1.697-1.966-2.951-.43-1.255-.614-2.878-.614-4.87s.184-3.615.614-4.87c.369-1.254 1.045-2.287 1.966-2.95.922-.739 2.151-1.255 3.626-1.476 1.475-.222 3.318-.37 5.47-.37 1.72 0 3.317.148 4.73.37 1.353.22 2.582.664 3.565 1.254.983.664 1.782 1.476 2.335 2.508.492 1.033.799 2.288.799 3.837zm-5.838-.37v-.811a2.907 2.907 0 00-.246-.664c-.123-.222-.368-.443-.798-.59-.37-.148-.922-.296-1.66-.37a28.84 28.84 0 00-2.888-.147c-1.905 0-3.318.221-4.24.664-.922.443-1.475 1.18-1.66 2.213h11.492v-.295zm17.452 11.658c-1.536 0-2.827-.074-3.994-.369-1.168-.221-2.151-.738-2.888-1.402-.8-.738-1.352-1.697-1.783-2.951-.368-1.255-.553-2.878-.553-4.87V9.297h5.592v9.296c0 .738.123 1.328.246 1.845.123.442.369.811.615 1.107a2.77 2.77 0 001.167.663c.43.074.983.148 1.598.148h1.045c.368 0 .676-.074 1.044-.074.307-.073.738-.073 1.106-.147.43 0 .922-.074 1.537-.148V9.297h5.592V26.93c-.8.147-1.537.295-2.335.442-.738.148-1.537.295-2.336.37-.86.147-1.72.22-2.642.368-.922.074-1.905.074-3.011.074zm24.396-16.01v5.164h-5.592v10.403h-5.654v-13.28c0-2.288.123-4.28.43-5.977.246-1.697.8-3.099 1.721-4.28.86-1.106 2.09-1.992 3.749-2.582 1.597-.516 3.748-.811 6.452-.811h1.537v5.312h-1.599c-1.29 0-2.396.148-3.195.443-.799.295-1.475.737-1.966 1.254-.492.59-.8 1.18-1.045 1.918-.184.738-.307 1.55-.369 2.435h5.53zm18.435 15.567L95.248 7.968v19.774h-5.592V1.107h7.681l8.112 18.298 8.172-18.298h7.62v26.635h-5.592V7.968l-8.726 19.774h-2.949zm31.462-18.814c2.213 0 3.995.147 5.469.369 1.475.22 2.704.737 3.626 1.475.922.664 1.598 1.697 1.966 2.951.431 1.255.615 2.878.615 4.87s-.184 3.616-.615 4.87c-.368 1.254-1.044 2.213-1.966 2.951-.922.664-2.151 1.18-3.626 1.402-1.474.295-3.256.369-5.469.369-2.15 0-3.994-.074-5.469-.369-1.475-.221-2.642-.738-3.564-1.402-.922-.738-1.598-1.697-1.966-2.951-.43-1.255-.615-2.878-.615-4.87s.185-3.615.615-4.87c.368-1.254 1.044-2.287 1.966-2.95.922-.739 2.089-1.255 3.564-1.476 1.475-.222 3.319-.37 5.469-.37zm0 13.428c1.168 0 2.09-.074 2.827-.148.737-.073 1.352-.22 1.782-.516.43-.221.676-.664.86-1.107.185-.516.246-1.18.246-1.992 0-.885-.061-1.55-.246-2.066-.184-.516-.43-.885-.86-1.107-.43-.295-1.045-.442-1.782-.59-.737-.073-1.659-.073-2.827-.073-1.106 0-2.089 0-2.826.073-.738.148-1.291.295-1.721.59-.43.222-.737.59-.922 1.107a8.596 8.596 0 00-.246 2.066c0 .812.123 1.476.246 1.992.185.443.492.886.922 1.107.43.295.983.443 1.721.517.737.073 1.72.147 2.826.147zm19.849-13.428l-5.654 1.697v17.117h5.654V8.928zm-.246-5.83c0 .37-.062.812-.246 1.181-.123.37-.307.664-.491.96a2.584 2.584 0 01-.861.664c-.307.22-.614.295-.983.295s-.676-.074-.983-.295a2.57 2.57 0 01-.86-.664c-.185-.296-.369-.59-.492-.96-.184-.369-.246-.811-.246-1.18 0-.443.062-.812.246-1.18.123-.37.307-.738.492-1.034.245-.221.553-.442.86-.664.307-.147.614-.221.983-.221s.676.074.983.221c.307.222.615.443.861.664.184.296.368.664.491 1.033.184.37.246.738.246 1.18zm16.591 5.83c2.213 0 3.995.147 5.47.369 1.536.22 2.703.737 3.625 1.475.922.664 1.598 1.697 1.967 2.951.43 1.255.614 2.878.614 4.87v9.15h-5.961v-9.15c0-.885-.061-1.55-.245-2.066a1.626 1.626 0 00-.861-1.107c-.43-.295-1.044-.442-1.782-.59-.737-.073-1.659-.073-2.827-.073h-1.413c-.553.073-1.106.073-1.72.073-.554.074-1.229.148-1.844.148-.614.074-1.229.074-1.782.147v12.617h-5.592V9.297h4.056l.676.959c.799-.37 1.905-.738 3.257-.96a25.904 25.904 0 014.362-.368zm34.167 13.502c0 1.107-.185 1.992-.553 2.73-.369.811-1.045 1.402-1.967 1.844-.921.443-2.089.812-3.625.96-1.475.22-3.319.22-5.531.22-.86 0-1.72-.073-2.642-.147-.86-.147-1.659-.221-2.458-.369-.799-.073-1.475-.22-2.151-.295-.614-.147-1.106-.221-1.475-.295v-4.28c1.229.075 2.397.148 3.503.148.983.074 1.966.148 2.95.148a29.66 29.66 0 002.335.074c1.229 0 2.212.073 2.949.073.738-.073 1.352-.073 1.721-.147a2.15 2.15 0 00.799-.295c.123-.148.246-.37.246-.517 0-.221 0-.369-.123-.516a2.565 2.565 0 00-.553-.221 13.575 13.575 0 00-1.168-.222c-.492 0-1.106-.074-1.905-.147-2.396-.222-4.363-.517-5.838-.812-1.536-.295-2.703-.738-3.502-1.18-.861-.517-1.414-1.107-1.721-1.845-.307-.738-.43-1.623-.43-2.582 0-1.034.184-1.919.553-2.657.43-.811 1.045-1.402 1.966-1.844.922-.517 2.151-.886 3.626-1.033 1.475-.222 3.318-.295 5.592-.295l2.95.221a78.42 78.42 0 012.642.443c.922.147 1.782.295 2.581.516v4.427a34.218 34.218 0 00-1.905-.221c-.738-.074-1.475-.074-2.274-.148-.799-.074-1.536-.074-2.273-.147-.738 0-1.352-.074-1.844-.074h-2.95a9.26 9.26 0 00-1.72.147c-.43.074-.676.148-.86.296a.738.738 0 00-.185.516c0 .148.062.295.123.443.123.074.246.147.553.221.246.074.615.148 1.106.148a38.72 38.72 0 001.967.221c2.396.221 4.363.443 5.899.812 1.475.295 2.642.737 3.503 1.254.798.443 1.413 1.033 1.659 1.77.307.739.43 1.624.43 2.657zm2.273-7.969c0-2.287.185-4.279.492-5.976s.922-3.099 1.844-4.28c.86-1.106 2.15-1.992 3.809-2.508 1.66-.59 3.872-.885 6.514-.885 1.229 0 2.458 0 3.626.147 1.229.074 2.335.222 3.318.295 1.045.148 1.967.295 2.765.443.799.148 1.414.295 1.905.369v5.46c-.245-.074-.676-.074-1.352-.222-.676-.073-1.536-.22-2.581-.295-1.044-.073-2.212-.221-3.564-.295-1.29-.074-2.703-.074-4.178-.074-1.536 0-2.765.148-3.687.517-.861.369-1.536.885-1.967 1.55-.43.737-.676 1.549-.799 2.508-.122.96-.184 2.066-.184 3.246 0 1.18.062 2.288.184 3.247.123.959.369 1.77.799 2.435.431.664 1.106 1.18 1.967 1.549.922.443 2.151.59 3.687.59 1.659 0 3.134-.073 4.547-.147 1.413-.074 2.704-.222 3.749-.295 1.29-.148 2.458-.296 3.502-.517v5.46c-.43.148-1.044.221-1.843.369a66.83 66.83 0 01-2.766.443c-1.044.147-2.212.221-3.379.295-1.229.147-2.458.147-3.749.147-2.642 0-4.854-.221-6.514-.811-1.659-.59-2.949-1.402-3.809-2.583-.922-1.106-1.537-2.582-1.844-4.279-.307-1.697-.492-3.69-.492-5.903zm32.999-4.5c.676-.222 1.352-.37 2.09-.517.614-.147 1.351-.221 2.15-.369.861-.074 1.659-.147 2.581-.147 2.151 0 3.994.147 5.469.369 1.475.22 2.704.737 3.564 1.475.922.664 1.598 1.697 1.967 2.951.43 1.255.614 2.878.614 4.87v9.15h-5.899v-9.15c0-.885-.061-1.55-.246-2.066-.184-.516-.491-.885-.921-1.107-.431-.295-.984-.442-1.721-.59-.737-.073-1.721-.073-2.827-.073h-1.413c-.553.073-1.106.073-1.721.073-.614.074-1.229.148-1.843.148-.676.074-1.291.074-1.844.147v12.617h-5.592V1.107h5.592V9.96zm43.814 6.935v1.55c0 .442-.061.811-.061 1.18 0 .369-.062.738-.062 1.033h-17.144c.246.886.86 1.55 1.782 1.992.922.443 2.273.664 4.055.664h1.168c.492-.074.983-.074 1.536-.074.492-.073 1.045-.073 1.659-.073.554-.074 1.168-.074 1.66-.074 1.29-.074 2.642-.148 4.055-.221v4.058c-1.167.22-2.273.442-3.441.664a228.05 228.05 0 01-3.318.442c-1.168.148-2.274.148-3.319.148-2.15 0-3.994-.074-5.469-.369-1.474-.221-2.703-.738-3.625-1.402-.922-.738-1.598-1.697-1.967-2.951-.43-1.255-.614-2.878-.614-4.87s.184-3.615.614-4.87c.369-1.254 1.045-2.287 1.967-2.95.922-.739 2.151-1.255 3.625-1.476 1.475-.222 3.319-.37 5.469-.37 1.721 0 3.319.148 4.732.37 1.414.22 2.581.664 3.564 1.254.984.664 1.782 1.476 2.335 2.508.553 1.033.799 2.288.799 3.837zm-5.838-.369v-.811c0-.222-.122-.443-.245-.664-.123-.222-.369-.443-.738-.59a7.469 7.469 0 00-1.72-.37 27.847 27.847 0 00-2.889-.147c-1.904 0-3.318.221-4.24.664-.921.443-1.474 1.18-1.659 2.213h11.491v-.295zm8.542-6.345c.86-.221 1.782-.369 2.827-.59.983-.148 2.028-.222 3.072-.37 1.045-.073 2.151-.147 3.257-.22 1.106-.074 2.151-.074 3.257-.074v4.87c-1.168 0-2.151.147-3.011.22-.799.148-1.536.296-2.089.37-.676.147-1.229.295-1.721.442v12.912h-5.592v-17.56z" fill="#fff"/></svg>