<svg width="98" height="40" fill="none" xmlns="http://www.w3.org/2000/svg"><path d="M26.15 22.688c-.7 0-1.306-.14-1.866-.373-.56-.28-.98-.7-1.353-1.307-.467-.886-.887-1.773-1.167-2.753-.28-.933-.467-1.913-.653-2.94a32.3 32.3 0 01-.28-2.986c-.047-1.027-.093-2.007-.093-2.94V7.802c0-.653 0-1.213.046-1.773V4.023l-.233-.047c-.7 1.68-1.493 3.36-2.38 4.993-.84 1.633-1.773 3.22-2.707 4.76h3.547c.42 0 .793.14 1.027.373.28.233.466.513.606.84.14.28.234.56.28.793 0 .234 0 .374-.046.374h-6.813a106.689 106.689 0 01-2.38 3.92c-.747 1.166-1.494 2.193-2.334 3.126-.793.886-1.68 1.68-2.613 2.333-.98.7-2.053 1.26-3.36 1.727-.42.186-.886.14-1.26-.047a2.784 2.784 0 01-1.026-.747 4.062 4.062 0 01-.7-.933c-.14-.28-.233-.42-.187-.42.327-.093.607-.187.887-.28.233-.047.513-.14.793-.186.28-.094.513-.187.747-.28a8.888 8.888 0 001.82-1.074 8.87 8.87 0 001.54-1.353c.84-.84 1.633-1.773 2.38-2.753.746-.98 1.446-2.007 2.006-3.033H4.312c-.42 0-.794-.14-1.074-.374a2.405 2.405 0 01-.606-.793c-.14-.327-.234-.607-.234-.84-.046-.233-.046-.373 0-.373h9.333a282.276 282.276 0 003.034-4.947c.933-1.68 1.913-3.36 2.893-5.086a4.7 4.7 0 00.56-1.073c.14-.374.373-.747.56-1.074.14-.233.326-.42.56-.606.186-.14.42-.234.7-.234h3.033c.233 0 .373.047.513.14.14.094.187.234.28.374.047.14.093.28.093.466v.514c0 .606 0 1.26-.046 1.866 0 .607-.047 1.214-.047 1.82 0 .327.047.933.047 1.727 0 .84.046 1.773.14 2.8.093 1.026.186 2.1.28 3.173.14 1.12.28 2.146.466 3.08.187.886.467 1.633.747 2.24.28.606.607.886 1.026.886.28 0 .514-.047.794-.14.28-.093.56-.233.793-.373.28-.14.513-.327.7-.467.233-.187.42-.327.56-.466.047 0 .093.093.14.373.093.28.093.606.093 1.026 0 .42-.093.794-.233 1.26-.14.42-.42.747-.84 1.027-.28.187-.7.373-1.167.467-.513.14-.933.186-1.26.186zm15.026 0c-1.353 0-2.613-.234-3.826-.7-1.213-.467-2.333-1.12-3.407-1.96-.56-.42-1.073-.98-1.493-1.587a8.482 8.482 0 01-1.12-2.006c-.28-.7-.513-1.447-.653-2.194-.187-.746-.233-1.493-.233-2.24 0-1.586.373-3.126 1.166-4.526.747-1.446 1.773-2.706 2.987-3.826 1.213-1.074 2.613-1.914 4.153-2.567 1.54-.653 3.08-.98 4.62-.98 1.073 0 2.1.14 3.033.42.933.28 1.726.747 2.38 1.307a6.208 6.208 0 011.54 2.193c.373.887.56 1.913.56 3.126l-.047.934c0 .513-.187.98-.514 1.306a3.381 3.381 0 01-1.166.84c-.42.187-.793.327-1.167.374-.326.093-.513.093-.513.046V6.915c0-.467-.093-.98-.28-1.493-.14-.513-.42-.98-.747-1.447-.28-.42-.653-.746-1.12-1.073-.466-.28-.933-.42-1.446-.42-1.167 0-2.38.327-3.547 1.027-1.166.653-2.193 1.54-3.126 2.566-.887 1.073-1.633 2.193-2.193 3.453-.607 1.26-.887 2.473-.887 3.64 0 1.073.233 2.007.653 2.8.467.793 1.027 1.447 1.774 1.96.7.513 1.54.933 2.473 1.166.886.28 1.866.374 2.846.374 1.96 0 3.78-.233 5.507-.7 1.726-.514 3.266-1.213 4.573-2.193.046 0 .093.093.186.373.047.28.094.607.047.98 0 .373-.093.746-.233 1.166-.14.42-.42.747-.794 1.027-.373.233-.886.513-1.54.793-.606.28-1.353.56-2.24.84-.84.28-1.82.467-2.892.654a18.65 18.65 0 01-3.314.28zM60.635 4.255a5.25 5.25 0 00-.98.56c-.326.187-.653.42-.933.7-.233.28-.467.56-.653.887-.187.326-.233.7-.233 1.073 0 .7.233 1.26.7 1.68.466.373 1.026.653 1.68.84a9.969 9.969 0 002.053.373c.746 0 1.353.047 1.866.047h.98c.327 0 .653-.047.98-.047a7.44 7.44 0 001.4-.28c.467-.14.933-.186 1.4-.186.28 0 .513.046.7.186.14.094.233.327.186.607l-.093 1.26c0 .28-.14.42-.326.56-.187.14-.467.186-.7.233-.28.047-.56.047-.84.047-.28-.047-.514-.047-.7-.047-.607 0-1.214.047-1.914.094-.7.093-1.4.186-2.146.326-.7.094-1.4.28-2.053.467-.654.233-1.26.466-1.727.746-.233.14-.467.28-.7.467-.233.187-.467.373-.653.607-.233.186-.373.42-.514.7-.14.233-.186.513-.186.793 0 .56.14 1.026.513 1.4.373.373.84.7 1.353.933.514.234 1.074.373 1.634.467.56.093 1.073.14 1.493.14.84 0 1.727-.047 2.706-.187a31.4 31.4 0 002.894-.56c.98-.28 1.866-.56 2.753-.98.886-.373 1.68-.84 2.333-1.353.047-.047.093.093.187.327.046.28.093.56.093.933s-.047.746-.187 1.166c-.093.42-.373.747-.7 1.027-.466.373-1.166.7-2.053.98-.886.28-1.82.56-2.8.747-.98.233-1.96.42-2.893.513a14.74 14.74 0 01-2.193.187c-.84 0-1.68-.047-2.52-.187-.84-.14-1.633-.373-2.38-.793-.56-.234-1.027-.56-1.54-.887a10.08 10.08 0 01-1.26-1.167 4.517 4.517 0 01-.84-1.446c-.233-.513-.326-1.073-.326-1.727 0-.7.186-1.306.56-1.82.326-.56.793-.98 1.353-1.353.56-.326 1.166-.607 1.82-.84a15.17 15.17 0 011.866-.42 8.097 8.097 0 01-1.773-.653 6.552 6.552 0 01-1.54-1.12 5.91 5.91 0 01-1.12-1.54 4.012 4.012 0 01-.42-1.82c0-.84.234-1.633.747-2.333a9.834 9.834 0 011.633-1.773c.607-.467 1.447-.934 2.613-1.354 1.167-.42 2.38-.746 3.687-.98A21.96 21.96 0 0166.748.01c1.214-.047 2.24.093 2.987.373.42.187.746.42.98.747.186.326.373.653.466.98.094.326.14.653.14.886 0 .28 0 .374-.046.374-.374-.14-.794-.28-1.214-.42a27.35 27.35 0 00-1.26-.28 7.49 7.49 0 00-1.446 0c-1.167.046-2.38.233-3.547.466-1.166.234-2.24.607-3.173 1.12z" fill="#FEFEFE"/><path d="M93.254 22.688c-.607 0-1.214-.14-1.82-.467-.607-.28-1.214-.653-1.82-1.073a16.183 16.183 0 01-1.727-1.4 30.753 30.753 0 00-1.493-1.26l-5.32-4.573v5.553c0 .56-.186.98-.56 1.353-.373.373-.746.653-1.213.84a7.12 7.12 0 01-1.167.42c-.373.047-.56.093-.56.047V7.195c0-.56.187-.98.56-1.353.374-.373.747-.653 1.167-.84.467-.187.84-.327 1.213-.42.374-.047.56-.093.56-.047v7.14c.374 0 .887-.094 1.493-.187.607-.046 1.26-.186 1.96-.326.654-.14 1.354-.327 2.054-.607a9.812 9.812 0 001.866-.84c.56-.327 1.027-.7 1.353-1.167.327-.466.514-.98.514-1.54 0-.606-.14-1.12-.42-1.54-.327-.373-.7-.7-1.167-.98a7.02 7.02 0 00-1.587-.56 24.807 24.807 0 00-1.82-.326c-.606-.047-1.213-.047-1.773-.047h-1.446c-1.82 0-3.64.14-5.413.467-1.82.28-3.593.747-5.32 1.26-.047 0-.093-.093-.093-.327a2.524 2.524 0 010-.84c.093-.373.186-.7.373-1.073.14-.327.42-.607.793-.84.42-.187 1.074-.42 1.914-.607.84-.186 1.773-.326 2.8-.466 1.026-.14 2.1-.234 3.22-.28 1.073-.094 2.1-.14 3.032-.14.607 0 1.26.046 1.914.093.653.047 1.353.14 2.006.28.654.14 1.307.327 1.96.56a6.19 6.19 0 011.633.933c.374.28.794.607 1.167.98.373.42.7.794.98 1.26.28.467.513.934.7 1.4.187.513.28 1.027.28 1.54 0 .653-.187 1.213-.467 1.727-.326.513-.746.98-1.26 1.353-.513.42-1.073.746-1.726 1.073-.654.28-1.307.514-1.96.747-.653.187-1.307.373-1.96.466-.653.14-1.213.234-1.68.327.327.233.747.607 1.213 1.027.467.42.98.84 1.54 1.306.513.467 1.073.934 1.633 1.4.607.467 1.12.887 1.68 1.26.56.373 1.027.654 1.494.887.466.28.84.373 1.166.373.7 0 1.353-.14 1.913-.42.607-.28 1.12-.607 1.587-.933.093-.047.14.047.187.233.046.233.046.467 0 .794 0 .326-.094.7-.234 1.073-.14.42-.326.746-.653 1.073-.327.327-.747.607-1.26.84-.56.233-1.213.327-2.006.327zM20.41 32.86c0-.513-.093-.886-.326-1.073a1.66 1.66 0 00-.886-.233h-.84c-.14 0-.234.047-.28.047v2.333c.14.046.326.046.513.093h.56c.42 0 .747-.093.98-.28.186-.187.28-.467.28-.887zm2.847-.233c0 .56-.093 1.073-.326 1.54a3.45 3.45 0 01-.794 1.167 4.052 4.052 0 01-2.706 1.026c-.28 0-.513-.046-.747-.046-.233-.047-.42-.047-.606-.14v3.593h-1.26a2.32 2.32 0 01-.56-.094c-.187-.093-.374-.186-.514-.326s-.28-.327-.373-.56a2.012 2.012 0 01-.14-.794v-8.26c.187-.046.42-.092.653-.14.28-.046.514-.092.794-.14.28-.046.56-.092.84-.14h1.959c.514 0 1.027.048 1.494.188.42.186.84.373 1.166.653.374.28.607.653.84 1.073.187.42.28.887.28 1.4zm5.6 1.68c-.047-.28-.14-.56-.28-.84-.093-.233-.187-.513-.28-.747-.14-.28-.233-.513-.327-.7-.233.42-.466.934-.653 1.494-.233.56-.373 1.073-.56 1.586h2.38a15.045 15.045 0 01-.28-.793zm2.893 5.46c-.513 0-.933-.094-1.213-.28-.28-.14-.467-.467-.56-.934 0-.186-.047-.42-.093-.606-.047-.187-.094-.42-.187-.607h-3.546c-.047.187-.094.373-.14.607-.047.186-.094.42-.14.653-.047.187-.094.42-.14.607-.047.233-.047.42-.094.56h-1.166c-.42 0-.794-.14-.98-.374a1.37 1.37 0 01-.327-.886c0-.28.047-.607.187-1.073.093-.467.233-.98.42-1.54.14-.56.373-1.167.606-1.774.234-.653.514-1.26.794-1.82.28-.606.56-1.166.84-1.633.326-.513.606-.933.933-1.213h1.073c.513 0 .933.093 1.26.327.327.186.56.466.747.746.233.42.513.933.84 1.633.28.7.56 1.447.84 2.287.326.84.56 1.727.793 2.613.233.933.42 1.82.513 2.707h-1.26zm9.846-9.427c0 .14-.046.374-.14.607-.14.28-.28.56-.466.887-.14.28-.374.606-.56.98-.234.326-.467.7-.7 1.026-.234.327-.467.607-.653.887-.234.28-.42.513-.56.7v4.34h-1.26a2.32 2.32 0 01-.56-.094c-.187-.093-.374-.186-.514-.326-.14-.094-.28-.28-.373-.467a1.705 1.705 0 01-.14-.7v-2.753c-.28-.373-.607-.793-.887-1.26-.326-.42-.606-.933-.886-1.447-.327-.513-.56-1.026-.84-1.586-.233-.56-.467-1.12-.607-1.68h1.4c.467 0 .84.093 1.12.28.327.187.513.373.607.606.233.467.466.98.746 1.494.327.513.607.98.887 1.4.187-.234.327-.514.513-.794.187-.28.373-.56.56-.886.187-.327.327-.7.467-1.027.187-.373.327-.746.42-1.073h1.353c.327 0 .607.093.793.28.187.187.28.373.28.606zm8.634 6.16c0 .514-.094 1.027-.28 1.447a3.23 3.23 0 01-.84 1.12c-.374.28-.84.513-1.354.7a7.47 7.47 0 01-1.82.233c-1.166 0-2.053-.187-2.613-.607-.607-.42-.887-.98-.887-1.726V36.64h.047c.187.187.373.327.607.467.233.093.513.233.793.327.28.093.56.14.886.186.28.047.607.047.887.047.653 0 1.12-.047 1.353-.233.28-.14.374-.42.374-.747 0-.187-.047-.28-.094-.42a1.26 1.26 0 00-.373-.28c-.187-.093-.373-.14-.653-.233-.28-.047-.607-.14-1.027-.234-.56-.093-1.026-.233-1.4-.42-.42-.14-.7-.326-.98-.56a2.107 2.107 0 01-.513-.793c-.14-.327-.187-.653-.187-1.073 0-.467.094-.887.28-1.307.234-.42.514-.793.887-1.12.373-.326.793-.56 1.353-.746.514-.187 1.12-.28 1.773-.28.607 0 1.167.046 1.587.186.467.14.84.28 1.12.514.28.186.467.42.607.7.14.28.186.513.186.793v1.073h-.093c-.14-.14-.373-.28-.607-.42a3.618 3.618 0 00-.746-.327c-.234-.046-.514-.14-.794-.14a5.136 5.136 0 00-.84-.093c-.7 0-1.213.093-1.493.28-.233.187-.373.42-.373.7 0 .093 0 .233.047.327.046.046.14.14.28.233s.373.187.606.28c.28.047.7.14 1.167.28 1.073.187 1.866.513 2.38.98.466.467.746 1.073.746 1.913zm6.345-2.193l-.28-.84c-.093-.233-.233-.513-.326-.747-.093-.28-.187-.513-.327-.7-.186.42-.42.934-.653 1.494-.187.56-.373 1.073-.513 1.586h2.333a7.195 7.195 0 00-.233-.793zm2.847 5.46c-.513 0-.887-.094-1.167-.28-.28-.14-.466-.467-.56-.934-.046-.186-.093-.42-.14-.606-.046-.187-.093-.42-.14-.607H53.87c-.093.187-.14.373-.187.607-.046.186-.093.42-.14.653-.046.187-.093.42-.093.607-.047.233-.093.42-.093.56H52.19c-.467 0-.793-.14-1.026-.374-.187-.233-.28-.513-.28-.886 0-.28.046-.607.14-1.073.093-.467.233-.98.42-1.54.186-.56.373-1.167.653-1.774.233-.653.466-1.26.746-1.82.28-.606.56-1.166.887-1.633a5.45 5.45 0 01.887-1.213h1.12c.513 0 .933.093 1.26.327.326.186.56.466.746.746.233.42.513.933.793 1.633.327.7.607 1.447.887 2.287.28.84.56 1.727.793 2.613.234.933.374 1.82.514 2.707h-1.307zm10.873-1.4c-.14.373-.327.653-.654.886-.28.234-.7.42-1.166.56-.467.14-1.027.187-1.727.187-.7 0-1.4-.14-2.053-.373-.653-.234-1.213-.607-1.726-1.074-.467-.466-.887-.98-1.167-1.633s-.42-1.4-.42-2.193c0-.793.14-1.493.42-2.147.28-.7.653-1.26 1.166-1.773.467-.466 1.12-.886 1.82-1.166.747-.28 1.54-.42 2.427-.42.513 0 .98.046 1.353.14.374.14.7.28.933.513a1.83 1.83 0 01.793 1.54v1.026h-.093c-.233-.233-.606-.466-1.12-.653-.466-.186-1.12-.28-1.913-.28-.42 0-.746.093-1.12.187-.373.14-.653.326-.933.56-.28.28-.467.56-.653.933-.14.373-.234.793-.234 1.307 0 .56.094 1.026.234 1.446.14.373.326.7.56.98.28.28.56.467.886.56.327.14.7.187 1.074.187.233 0 .373 0 .513-.047a.356.356 0 00.233-.093c.094-.093.094-.14.14-.233v-1.4c0-.234 0-.467-.046-.747a9.187 9.187 0 00-.14-.7h1.446c.467 0 .793.14 1.027.42.233.28.373.607.373.98V37.2c0 .467-.093.84-.233 1.167zm9.425.653c-.046.187-.186.327-.372.467-.187.14-.42.233-.747.326-.28.047-.7.094-1.12.094h-1.166c-1.4 0-2.427-.374-3.174-1.027-.7-.7-1.073-1.773-1.073-3.22v-1.726c0-.467.047-.98.047-1.447a64.1 64.1 0 01.14-1.353c.093-.654.326-1.073.7-1.353.373-.234.793-.327 1.306-.327h5.6v.653c0 .514-.14.887-.373 1.213-.28.28-.747.42-1.307.42h-3.173c0 .28-.047.56-.047.887-.046.327-.046.653-.046.887h4.013v1.026c0 .374-.14.654-.42.887-.28.187-.654.28-1.167.28h-2.426v.373c0 .28.046.514.093.7.047.187.14.373.28.467.14.14.28.187.513.28.233.047.56.047.933.047h.747c.42 0 .793 0 1.167-.047.42-.047.793-.14 1.213-.233v1.073c0 .28-.047.466-.14.653zm9.24-2.52c0 .514-.14 1.027-.326 1.447a3.22 3.22 0 01-.84 1.12c-.327.28-.793.513-1.353.7a6.9 6.9 0 01-1.82.233c-1.12 0-2.007-.187-2.614-.607-.56-.42-.886-.98-.886-1.726V36.64h.093c.14.187.374.327.607.467.233.093.466.233.746.327.327.093.607.14.887.186.327.047.607.047.933.047.654 0 1.074-.047 1.354-.233.233-.14.373-.42.373-.747 0-.187-.047-.28-.14-.42-.047-.094-.187-.187-.327-.28-.186-.093-.42-.14-.7-.233-.28-.047-.606-.14-.98-.234a5.887 5.887 0 01-1.446-.42c-.374-.14-.7-.326-.933-.56a3.066 3.066 0 01-.56-.793c-.094-.327-.187-.653-.187-1.073 0-.467.14-.887.327-1.307a3.22 3.22 0 01.84-1.12c.373-.326.84-.56 1.353-.746.56-.187 1.12-.28 1.773-.28.653 0 1.213.046 1.633.186.42.14.794.28 1.074.514.28.186.513.42.606.7.14.28.187.513.187.793v1.073h-.047a6.82 6.82 0 00-.606-.42 3.617 3.617 0 00-.747-.327c-.28-.046-.56-.14-.84-.14-.28-.046-.56-.093-.793-.093-.747 0-1.214.093-1.494.28-.28.187-.42.42-.42.7 0 .093.047.233.094.327 0 .046.093.14.233.233.187.093.373.187.653.28.28.047.654.14 1.12.28 1.074.187 1.867.513 2.38.98.513.467.793 1.073.793 1.913z" fill="#FEFEFE"/></svg>