<svg xmlns="http://www.w3.org/2000/svg" width="1327" height="988" viewBox="0 0 376.48 280.36" shape-rendering="geometricPrecision" text-rendering="geometricPrecision" image-rendering="optimizeQuality" fill-rule="evenodd" clip-rule="evenodd"><defs><style>.fil0{fill:#fff}</style></defs><g id="Plan_x0020_1"><path class="fil0" d="M73.66 252.67c2.78.46 2.6-.2 4.45-.65 1.36-.33.92.03 2.17-.63.83-.44 1.03-.58 2.29-.64 3.72-.17 5.74 1.92 8.38 2.86-.3.26-.14.18-.62.42-.44.22-.31.16-.89.32-.51.15-1.26.32-1.79.46-9.49 2.61-49.01 13.25-54.72 13.36.95-1.03 11.09-6.62 13.19-7.82l26.93-15.62c4.27-2.48 9.15-5.62 13.48-7.75.06 15.47-11.39 12.43-12.87 15.69zM359.55 0h.57c1.74.36 3.23 3.94 4.43 6.34 2.41 4.83 4.69 9.17 6.82 14.17 4.35 10.17 2.07 6.49 2.07 15.24 0 2.79.73 5.99.85 8.8l2.13 26.29c.58 3.85-2.9.4-4.23 5.1-.4 1.41-.38 2.93-.67 4.15-.3 1.28-.64 2.21-.98 3.56-1.22 4.91-2.23 10.11-3.52 15.21-2.04 8.14-3.83 13.99-6.92 21.74-2.79 6.96-4.4 14.77-6.49 21.89-.74 2.51-1.43 4.67-2.14 7.22-.7 2.49-1.87 4.39-1.87 7.5 0 5.04 7.65 6.81 2.21 11.85l-9.07 7.1c-3.97 2.52-5.47 4.89-6.71 9.48-1.98 7.34.52 4.45.52 11.58 0 5.94-9.38 10.78-14.19 14.19l-16.74 11.35c-11.57 7.73-25.8 12.51-39.54 6.34-3.99-1.79-6.44-3.43-9.2-6.41-5.58-5.99-6.27-15.53-7.81-23.41-1.68-8.65-3.09-17.55-4.82-26.39l-3.62-19.94c-.63-3.85-2.69-8.12 1.02-8.93 1.06-.23 2.09.29 2.76.9.92.82 1 1.38 1.33 2.64 1.21 4.6 4.56 8.12 8.4 10.62.91.59 1.55.91 2.48 1.48 2.39 1.47 3.88 3.98 5.5 6.14 8.42 11.26 17.23 12.86 29.35 16.91l17.11 6.16c6.27 2.52 6.8 2.4 12.53-1.42 3.39-2.26 4.26-.15 3.81-5.29-.31-3.56 1.01-9.75 1.13-13.6l1.82-22.58c.69-4.66.57-8.83 1.06-13.42l1.11-13.64c.68-9.02 1.82-18.02 2.26-26.97.44-8.96 3.11-27.93 3.11-35.76-1.47.12-2.44 1.1-3.6 1.79L291.2 83.77c-1.15.72-2 1.24-3.12 1.99L266.4 99.83c-2.11 1.41-4.02 2.68-6.13 4.09-9.7 6.46-21.19 13.65-30.38 20.97-.95.76-1.96 1.45-2.81 2.3-.99 1-1.74 1.46-2.7 2.42-10.72 10.77-18.38 22.4-24.24 37.04-3.33 8.31-3.66 7.16-1.09 10.58.8 1.07 1.45 1.91 2.15 2.96 4.27 6.48 6.11 15.24 7.14 23.5.16 1.35.42 3.1.51 4.6.09 1.34.24 3.22.45 4.66.45 3.07.22 6.77.61 9.6.32 2.31-.88 8.72 1.5 8.72 1.74 0 3.01-.35 4.55-.55 4.03-.54 7.3-2.29 11.34-2.29 7.59 0 13.72 7.09 19.17 11.19l5.6 4.33c1.91 1.56 3.87 2.92 5.83 4.39l11.35 8.51c1.99 1.49 3.5 3.59 6.29 3.65-.66-2.45-8.68-12.45-9.37-15.04 2.38.2 8.3 2.53 10.61 3.3 14.94 4.98 29.24 11.32 43.59 17.7l4.64 2.17c1.63.82 3.01 1.36 4.64 2.18 4.18 2.09 8.53 3.85 12.68 6.04.36.2.26.14.54.31.58.37.19.1.49.36-21.39 0-41.89.29-63.28.29h-61.86c-3.85 0-7.34-3.01-9.88-4.6-3.69-2.3-7.3-4.5-10.64-7.23l-5.8-4.98c-2.19-2.19-5.84-7.31-6.88-7.31-1.31 0-2.49 2.55-5.68 2.55-3.4 0-5.06-1.98-7.66-1.98-3.42 0-6.25 3.56-8.3 5.89-2.45 2.78-5.41 5.24-7.79 8.09l-6.4 6.66c-2.36 2.36-2.63 3.51-7.3 3.48-24.67-.16-49.49.28-74.07.28H25.54c-4.61 0-22.39.45-25.54-.28.77-1.06 14.69-8.55 16.93-9.75l16.85-9.54c5.7-3.28 11.45-6.21 17.07-9.6 1.48-.9 2.83-1.54 4.36-2.45 1.47-.87 2.7-1.52 4.18-2.34 1.49-.84 2.71-1.6 4.18-2.36.94-.49 3.43-1.83 3.97-2.56-.82-.43-.94-.6-2.25-.56l-2.02.02c-9.43-.49-26.38 3.64-26.38-10.24v-12.77c0-5.08 2.24-9 5.22-11.24 1.74-1.3 3.23-1.94 5.67-2.56 2.23-.56 5.04-.41 6.7-1.52 0-2.62-.05-4.7 1.57-5.82 2.72-1.88 16.14-.71 20-.71h29.51c0-3.85-3.12-2.73-3.12-5.67 0-1.43.67-2.94 1.97-3 1.96-.08 4.27 2.02 4.78 3.62 1.35 4.28 4.05 5.11 8.02 5.89 4.4.86 4.01 6.54 7.08 6.54 3.58 0 10.14.46 13.34-.29.47-2.02.28-6.94.28-9.08 0-5.41-.95-16.77 2.2-19.93 2.41-2.43 7.77-2.2 12.56-2.2 4.92 0 9.83-.01 14.75 0 6.4.01 5.76-1.32 7.07-7.68l2.86-11.9c2.98-11.89 4.75-22.1 12.25-32.03 3.17-4.2 6.8-7.92 10.52-11.6.78-.77 1.23-.95 2-1.7l12.49-13.33c.57-.68 1.2-1.22 1.84-1.85l19.44-21.13c3.69-4.47 5.83-1.79 8.72-1.79 2.72 0 6.19-2.24 8.32-3.31l7.47-3.88c5.14-2.61 9.8-5.18 14.95-7.75 14-7 26.65-10.75 39.92-17.41l22.79-11.25c4.38-2.19 11.84-4.77 13.92-9.07l5.18-11.84C358 .96 358.8.16 359.55 0zM233.54 242.9c1.62.89 5.1.51 9.47 6.15 1.61 2.07 3.5 4.97 5.18 6.73 1.93 2.03 1.64 1.2 1.34 2.28-1.24.22-2.96-1.36-4.08-2.08l-20.66-13.11c-3.4-2.1-.71-2.5-2.48-4.34-1.13-1.18-3.74-.9-5.7-1.13 1.96-.86 10.37-3.54 12.65-3.3 2.23.24 3.1 2.41 4.23 4.04.52.76 1.63 1.7 1.7 2.29.18 1.55-1.23.48-1.65 2.47zM95.63 260.49c.99-1.24 22.93-19.16 25.07-20.9 2.91-2.37 5.57-4.61 8.38-6.95l8.41-6.9c1.87-.99 3.22-1.16 5.2-2.46 6.26-4.14 9.32-11.27 15.45-15.2.98-.63 3.98-2.74 4.76-2.88 2.52 6.07-2.38 8.56-4.22 12.18 2.91.2 4.99-1.05 6.36 1.25.39.65 1.91 5.05 1.95 5.84.11 2.53-2.37 2.78-4.1 3.7-1.66.9-3.23 1.78-4.96 2.7-6.67 3.53-13 7.29-20.05 10.61-8.96 4.23-11.1 4.77-20.69 9.95-3.39 1.82-17.4 9.57-21.56 9.06zm106.84-42.83c-1.65-.63-9.28-5.85-11.57-7.3-3.79-2.4-7.41-4.78-11.22-7.24-15.95-10.27-11.81-6.18-12.62-15.23-.69-7.7-.84-9.56 9.17-8.81 7.95.58 14.89-.29 19.82 7.96 3.83 6.41 5.99 21.49 6.42 30.62zm140.33-60.44c.71.56 5.71 6.29 4.15 9.23-.73 1.38-5.95 5.67-7.9 6.48l3.75-15.71zm-50.56 30.94c3.05 1.09 5.71 2.11 8.73 3.19l8.53 2.93c-3.85.85-4.9-.46-9.61-1.52l-28.86-6.9c-13.6-3.58-19.56-3.31-21.5-14.3-.57-3.22-1.6-6.82-1.9-9.9 2.96.57 6.15 2.68 7.93 4.18 4.55 3.86 4.27 11.84 19.11 16.33 6.02 1.82 11.76 3.92 17.57 5.99zm54.79-34.11c-3.41-2.05-2.27-5.56-1.32-9.51.83-3.46 1.62-6.65 2.43-10.06 1.6-6.72 3.22-13.44 4.82-20.15 1.32-5.57 8.56-37.7 9.92-40.3 3.25-.4 1.97 1.49 1.42 3.65l-3.89 14.84c-4.06 15.44-4.32 25.96-8.25 41.68-1.59 6.37-3.22 13.53-5.13 19.85zm10.32-122.04c7.88-2.34 10.44 9.49 2.97 11.37-7.8 1.95-10.88-9.03-2.97-11.37zm-10.52-7.15c.37 1.34-1.91 5.56-2.77 6.77-1.33 1.86-3.57 2.76-5.76 3.9l-82.93 42.79c-3.77 1.98-5.04 3.61-6.22 1.7-2.15-3.48-.28-4.63 2.37-5.88 14.85-6.99 30.99-14.62 45.13-22.38 8.42-4.63 15.85-9.92 24.28-14.61 4.07-2.26 8.56-4.46 12.7-6.59 2.09-1.07 4.2-2.09 6.43-3.23 1.66-.85 5.04-3.16 6.77-2.47z"/><path class="fil0" d="M285.19 177.07l6.36 2.43c4.21 1.63 17.24 5.23 21.45 5.23 3.14 0 2.63-5.59 3.96-11.07 1.6-6.54 1.29-5.15-3.51-12.37-.91-1.37-4.26-6.52-5.28-7.2-1.46.34-2.73.82-4.43 1.24-1.86.47-2.73.63-4.28 1.4-3.84 1.9-9.47 12.6-12.06 16.6-.85 1.32-1.48 2.35-2.21 3.74zM153.52 280.36h28.09c3.46 0 6.21-.28 9.37-.28 0-4.15-2.49-6.61-3.73-10.75-1.12-3.74-2.22-5.93-5.67-8.51-1.9-1.43-4.67-2.88-7.35-2.88-1.45 0-9.02 9.35-10.56 11-.47.5-.83.76-1.27 1.29l-8.88 10.13zm112.65-123.44c0 4.83 7.01 6.6 10.5 11.92 3.98 6.05 4.14 3.73 8.02-.21 3.23-3.27 3.39-9.14.23-12.29-1.17-1.17-3.16-1.94-4.6-3.06-3.99-3.11-3.18-5.02-4.12-7.23-.45-1.05-.97-1.62-1.23-2.75-1 .27-1.12.94-2.36 3.03l-4.45 6.9c-.62.87-1.99 2.33-1.99 3.69zm-38.87 47.39c0 1.61 1.3 3.06 1.9 4.35.72 1.55.95 2.93 1.9 4.33 1.26 1.86 5.39 4.38 8.68 4.38.66 0 4.83-3.19 4.83-7.67 0-1.25-.63-2.54-.97-3.85-1.16-4.49 1.17-9.01-5.29-9.75-4.83-.56-3.97-.15-6.72 2.61-.96.95-4.33 4.1-4.33 5.6zm24.97-56.18c0 2.12 1.67 3.95 2.76 5.18 3.24 3.64 4.47 5.26 7.79 1.11 3.95-4.95-1.19-11.4-2.89-11.4-.32 0-7.66 2.32-7.66 5.11zm17.31-15.04c0-6.93-1.43-6.03-1.7-9.37-2.26 1.52-13.7 13.09-7.36 13.89 2.61.33.26-.54 4.52.61 3.43.92 4.54-3.63 4.54-5.13zm-40.01 51.36c0 .39.4.99.66 1.32 1.19 1.53 4.02 1.57 4.91 1.15 1.26-.6 1.21-1.68 1.81-2.76.55-1 1.83-1.17 2.83-1.7-.11-1.39-.66-1.74-1.63-2.34-5.34-3.28-5 1.4-7.21 2.86-.62.41-1.37.6-1.37 1.47zm19.86 49.37c0 2.36 3.2 3.64 5.53 2.7 1.01-.4 1.38-1.87 1.83-2.72.6-1.12.01-.63 1.2-1.06.88-.32.84-.19 1.66-.62-.15-1.71-3.46-4.39-5.5-3.25-1.15.65-1.61 1.45-2.33 2.52-.53.79-2.39 2.22-2.39 2.43zm-8.51-4.82c2.3.21 5.39 1.35 5.39-2.84 0-1.53-.53-2.21-1.14-3.12-1.88.5-4.2 3.59-4.25 5.96z"/></g></svg>