<svg width="300" height="46" fill="none" xmlns="http://www.w3.org/2000/svg"><path d="M23.843 1.107v26.635H18.25L5.592 7.968v19.774H0V1.107h7.313L18.25 17.929V1.107h5.592zm25.686 15.79v1.549c-.062.442-.062.811-.062 1.18-.061.369-.061.738-.061 1.033H32.261c.246.886.86 1.55 1.782 1.992.922.443 2.274.664 4.056.664h1.168c.491-.074.983-.074 1.536-.074.492-.073 1.045-.073 1.66-.073.552-.074 1.105-.074 1.658-.074a714.8 714.8 0 014.056-.221v4.058c-1.168.22-2.335.442-3.503.664-.983.147-2.089.295-3.257.442-1.167.148-2.273.148-3.318.148-2.15 0-3.994-.074-5.469-.369-1.475-.221-2.704-.738-3.626-1.402-.921-.738-1.597-1.697-1.966-2.951-.43-1.255-.614-2.878-.614-4.87s.184-3.615.614-4.87c.369-1.254 1.045-2.287 1.966-2.95.922-.739 2.151-1.255 3.626-1.476 1.475-.222 3.318-.37 5.47-.37 1.72 0 3.317.148 4.73.37 1.353.22 2.582.664 3.565 1.254.983.664 1.782 1.476 2.335 2.508.492 1.033.799 2.288.799 3.837zm-5.838-.37v-.811a2.907 2.907 0 00-.246-.664c-.123-.222-.368-.443-.798-.59-.37-.148-.922-.296-1.66-.37a28.84 28.84 0 00-2.888-.147c-1.905 0-3.318.221-4.24.664-.922.443-1.475 1.18-1.66 2.213h11.492v-.295zm17.452 11.658c-1.536 0-2.827-.074-3.994-.369-1.168-.221-2.151-.738-2.888-1.402-.8-.738-1.352-1.697-1.783-2.951-.368-1.255-.553-2.878-.553-4.87V9.297h5.592v9.296c0 .738.123 1.328.246 1.845.123.442.369.811.615 1.107a2.77 2.77 0 001.167.663c.43.074.983.148 1.598.148h1.045c.368 0 .676-.074 1.044-.074.307-.073.738-.073 1.106-.147.43 0 .922-.074 1.537-.148V9.297h5.592V26.93c-.8.147-1.537.295-2.335.442-.738.148-1.537.295-2.336.37-.86.147-1.72.22-2.642.368-.922.074-1.905.074-3.011.074zm24.396-16.01v5.164h-5.592v10.403h-5.654v-13.28c0-2.288.123-4.28.43-5.977.246-1.697.8-3.099 1.721-4.28.86-1.106 2.09-1.992 3.749-2.582 1.597-.516 3.748-.811 6.452-.811h1.537v5.312h-1.599c-1.29 0-2.396.148-3.195.443-.799.295-1.475.737-1.966 1.254-.492.59-.8 1.18-1.045 1.918-.184.738-.307 1.55-.369 2.435h5.53zm18.435 15.567L95.248 7.968v19.774h-5.592V1.107h7.681l8.112 18.298 8.172-18.298h7.62v26.635h-5.592V7.968l-8.726 19.774h-2.949zm31.462-18.814c2.213 0 3.995.147 5.469.369 1.475.22 2.704.737 3.626 1.475.922.664 1.598 1.697 1.966 2.951.431 1.255.615 2.878.615 4.87s-.184 3.616-.615 4.87c-.368 1.254-1.044 2.213-1.966 2.951-.922.664-2.151 1.18-3.626 1.402-1.474.295-3.256.369-5.469.369-2.15 0-3.994-.074-5.469-.369-1.475-.221-2.642-.738-3.564-1.402-.922-.738-1.598-1.697-1.966-2.951-.43-1.255-.615-2.878-.615-4.87s.185-3.615.615-4.87c.368-1.254 1.044-2.287 1.966-2.95.922-.739 2.089-1.255 3.564-1.476 1.475-.222 3.319-.37 5.469-.37zm0 13.428c1.168 0 2.09-.074 2.827-.148.737-.073 1.352-.22 1.782-.516.43-.221.676-.664.86-1.107.185-.516.246-1.18.246-1.992 0-.885-.061-1.55-.246-2.066-.184-.516-.43-.885-.86-1.107-.43-.295-1.045-.442-1.782-.59-.737-.073-1.659-.073-2.827-.073-1.106 0-2.089 0-2.826.073-.738.148-1.291.295-1.721.59-.43.222-.737.59-.922 1.107a8.596 8.596 0 00-.246 2.066c0 .812.123 1.476.246 1.992.185.443.492.886.922 1.107.43.295.983.443 1.721.517.737.073 1.72.147 2.826.147zm19.849-13.428l-5.654 1.697v17.117h5.654V8.928zm-.246-5.83c0 .37-.062.812-.246 1.181-.123.37-.307.664-.491.96a2.584 2.584 0 01-.861.664c-.307.22-.614.295-.983.295s-.676-.074-.983-.295a2.57 2.57 0 01-.86-.664c-.185-.296-.369-.59-.492-.96-.184-.369-.246-.811-.246-1.18 0-.443.062-.812.246-1.18.123-.37.307-.738.492-1.034.245-.221.553-.442.86-.664.307-.147.614-.221.983-.221s.676.074.983.221c.307.222.615.443.861.664.184.296.368.664.491 1.033.184.37.246.738.246 1.18zm16.591 5.83c2.213 0 3.995.147 5.47.369 1.536.22 2.703.737 3.625 1.475.922.664 1.598 1.697 1.967 2.951.43 1.255.614 2.878.614 4.87v9.15h-5.961v-9.15c0-.885-.061-1.55-.245-2.066a1.626 1.626 0 00-.861-1.107c-.43-.295-1.044-.442-1.782-.59-.737-.073-1.659-.073-2.827-.073h-1.413c-.553.073-1.106.073-1.72.073-.554.074-1.229.148-1.844.148-.614.074-1.229.074-1.782.147v12.617h-5.592V9.297h4.056l.676.959c.799-.37 1.905-.738 3.257-.96a25.904 25.904 0 014.362-.368zm34.167 13.502c0 1.107-.185 1.992-.553 2.73-.369.811-1.045 1.402-1.967 1.844-.921.443-2.089.812-3.625.96-1.475.22-3.319.22-5.531.22-.86 0-1.72-.073-2.642-.147-.86-.147-1.659-.221-2.458-.369-.799-.073-1.475-.22-2.151-.295-.614-.147-1.106-.221-1.475-.295v-4.28c1.229.075 2.397.148 3.503.148.983.074 1.966.148 2.95.148a29.66 29.66 0 002.335.074c1.229 0 2.212.073 2.949.073.738-.073 1.352-.073 1.721-.147a2.15 2.15 0 00.799-.295c.123-.148.246-.37.246-.517 0-.221 0-.369-.123-.516a2.565 2.565 0 00-.553-.221 13.575 13.575 0 00-1.168-.222c-.492 0-1.106-.074-1.905-.147-2.396-.222-4.363-.517-5.838-.812-1.536-.295-2.703-.738-3.502-1.18-.861-.517-1.414-1.107-1.721-1.845-.307-.738-.43-1.623-.43-2.582 0-1.034.184-1.919.553-2.657.43-.811 1.045-1.402 1.966-1.844.922-.517 2.151-.886 3.626-1.033 1.475-.222 3.318-.295 5.592-.295l2.95.221a78.42 78.42 0 012.642.443c.922.147 1.782.295 2.581.516v4.427a34.218 34.218 0 00-1.905-.221c-.738-.074-1.475-.074-2.274-.148-.799-.074-1.536-.074-2.273-.147-.738 0-1.352-.074-1.844-.074h-2.95a9.26 9.26 0 00-1.72.147c-.43.074-.676.148-.86.296a.738.738 0 00-.185.516c0 .148.062.295.123.443.123.074.246.147.553.221.246.074.615.148 1.106.148a38.72 38.72 0 001.967.221c2.396.221 4.363.443 5.899.812 1.475.295 2.642.737 3.503 1.254.798.443 1.413 1.033 1.659 1.77.307.739.43 1.624.43 2.657zm2.273-7.969c0-2.287.185-4.279.492-5.976s.922-3.099 1.844-4.28c.86-1.106 2.15-1.992 3.809-2.508 1.66-.59 3.872-.885 6.514-.885 1.229 0 2.458 0 3.626.147 1.229.074 2.335.222 3.318.295 1.045.148 1.967.295 2.765.443.799.148 1.414.295 1.905.369v5.46c-.245-.074-.676-.074-1.352-.222-.676-.073-1.536-.22-2.581-.295-1.044-.073-2.212-.221-3.564-.295-1.29-.074-2.703-.074-4.178-.074-1.536 0-2.765.148-3.687.517-.861.369-1.536.885-1.967 1.55-.43.737-.676 1.549-.799 2.508-.122.96-.184 2.066-.184 3.246 0 1.18.062 2.288.184 3.247.123.959.369 1.77.799 2.435.431.664 1.106 1.18 1.967 1.549.922.443 2.151.59 3.687.59 1.659 0 3.134-.073 4.547-.147 1.413-.074 2.704-.222 3.749-.295 1.29-.148 2.458-.296 3.502-.517v5.46c-.43.148-1.044.221-1.843.369a66.83 66.83 0 01-2.766.443c-1.044.147-2.212.221-3.379.295-1.229.147-2.458.147-3.749.147-2.642 0-4.854-.221-6.514-.811-1.659-.59-2.949-1.402-3.809-2.583-.922-1.106-1.537-2.582-1.844-4.279-.307-1.697-.492-3.69-.492-5.903zm32.999-4.5c.676-.222 1.352-.37 2.09-.517.614-.147 1.351-.221 2.15-.369.861-.074 1.659-.147 2.581-.147 2.151 0 3.994.147 5.469.369 1.475.22 2.704.737 3.564 1.475.922.664 1.598 1.697 1.967 2.951.43 1.255.614 2.878.614 4.87v9.15h-5.899v-9.15c0-.885-.061-1.55-.246-2.066-.184-.516-.491-.885-.921-1.107-.431-.295-.984-.442-1.721-.59-.737-.073-1.721-.073-2.827-.073h-1.413c-.553.073-1.106.073-1.721.073-.614.074-1.229.148-1.843.148-.676.074-1.291.074-1.844.147v12.617h-5.592V1.107h5.592V9.96zm43.814 6.935v1.55c0 .442-.061.811-.061 1.18 0 .369-.062.738-.062 1.033h-17.144c.246.886.86 1.55 1.782 1.992.922.443 2.273.664 4.055.664h1.168c.492-.074.983-.074 1.536-.074.492-.073 1.045-.073 1.659-.073.554-.074 1.168-.074 1.66-.074 1.29-.074 2.642-.148 4.055-.221v4.058c-1.167.22-2.273.442-3.441.664a228.05 228.05 0 01-3.318.442c-1.168.148-2.274.148-3.319.148-2.15 0-3.994-.074-5.469-.369-1.474-.221-2.703-.738-3.625-1.402-.922-.738-1.598-1.697-1.967-2.951-.43-1.255-.614-2.878-.614-4.87s.184-3.615.614-4.87c.369-1.254 1.045-2.287 1.967-2.95.922-.739 2.151-1.255 3.625-1.476 1.475-.222 3.319-.37 5.469-.37 1.721 0 3.319.148 4.732.37 1.414.22 2.581.664 3.564 1.254.984.664 1.782 1.476 2.335 2.508.553 1.033.799 2.288.799 3.837zm-5.838-.369v-.811c0-.222-.122-.443-.245-.664-.123-.222-.369-.443-.738-.59a7.469 7.469 0 00-1.72-.37 27.847 27.847 0 00-2.889-.147c-1.904 0-3.318.221-4.24.664-.921.443-1.474 1.18-1.659 2.213h11.491v-.295zm8.542-6.345c.86-.221 1.782-.369 2.827-.59.983-.148 2.028-.222 3.072-.37 1.045-.073 2.151-.147 3.257-.22 1.106-.074 2.151-.074 3.257-.074v4.87c-1.168 0-2.151.147-3.011.22-.799.148-1.536.296-2.089.37-.676.147-1.229.295-1.721.442v12.912h-5.592v-17.56zM16.39 31.032c1.204 0 2.198.299 2.982.896.784.588 1.325 1.395 1.624 2.422h-1.344a3.251 3.251 0 00-1.218-1.554c-.56-.392-1.246-.588-2.058-.588-.644 0-1.223.159-1.736.476-.504.308-.905.756-1.204 1.344-.29.579-.434 1.26-.434 2.044 0 .775.145 1.451.434 2.03.299.579.7 1.027 1.204 1.344a3.308 3.308 0 001.736.462c.812 0 1.498-.191 2.058-.574.56-.392.966-.915 1.218-1.568h1.344c-.299 1.027-.84 1.839-1.624 2.436-.784.588-1.778.882-2.982.882-.924 0-1.74-.21-2.45-.63a4.5 4.5 0 01-1.666-1.778c-.392-.765-.588-1.633-.588-2.604 0-.98.196-1.853.588-2.618a4.38 4.38 0 011.666-1.778c.71-.43 1.526-.644 2.45-.644zm13.38 5.698c0 .27-.019.504-.056.7h-6.146c.028.877.275 1.535.742 1.974.476.439 1.054.658 1.736.658.616 0 1.13-.154 1.54-.462.42-.317.676-.737.77-1.26h1.358a3.187 3.187 0 01-.63 1.428 3.18 3.18 0 01-1.246.98c-.514.233-1.092.35-1.736.35-.738 0-1.39-.159-1.96-.476a3.421 3.421 0 01-1.344-1.358c-.318-.597-.476-1.297-.476-2.1 0-.803.158-1.503.476-2.1a3.399 3.399 0 011.344-1.372c.57-.317 1.222-.476 1.96-.476.746 0 1.395.159 1.946.476.56.317.984.742 1.274 1.274.298.532.448 1.12.448 1.764zm-1.288.084c.028-.57-.066-1.045-.28-1.428a2.046 2.046 0 00-.882-.854 2.685 2.685 0 00-1.218-.28c-.7 0-1.288.22-1.764.658-.476.43-.733 1.064-.77 1.904h4.914zm7-3.626c.896 0 1.62.29 2.17.868.55.57.826 1.395.826 2.478V41h-1.274v-4.354c0-.765-.196-1.353-.588-1.764-.392-.41-.924-.616-1.596-.616-.7 0-1.26.229-1.68.686-.42.448-.63 1.106-.63 1.974V41h-1.274v-7.686h1.274v1.82c.196-.625.541-1.106 1.036-1.442.504-.336 1.083-.504 1.736-.504zM44.1 39.88V41h-.952c-.784 0-1.372-.187-1.764-.56-.383-.373-.574-.999-.574-1.876V34.42h-1.148v-1.106h1.148v-1.918h1.288v1.918h1.988v1.106h-1.988v4.172c0 .495.089.835.266 1.022.187.177.504.266.952.266h.784zm2.829-5.012c.252-.532.62-.943 1.106-1.232.485-.299 1.064-.448 1.736-.448v1.386h-.392c-.719 0-1.307.187-1.764.56-.458.364-.686.97-.686 1.82V41h-1.274v-7.686h1.274v1.554zm11.169 1.862c0 .27-.019.504-.056.7h-6.146c.028.877.275 1.535.742 1.974.476.439 1.055.658 1.736.658.616 0 1.13-.154 1.54-.462.42-.317.676-.737.77-1.26h1.358a3.189 3.189 0 01-.63 1.428 3.18 3.18 0 01-1.246.98c-.513.233-1.092.35-1.736.35-.737 0-1.39-.159-1.96-.476a3.42 3.42 0 01-1.344-1.358c-.317-.597-.476-1.297-.476-2.1 0-.803.159-1.503.476-2.1a3.398 3.398 0 011.344-1.372c.57-.317 1.223-.476 1.96-.476.746 0 1.395.159 1.946.476.56.317.985.742 1.274 1.274.299.532.448 1.12.448 1.764zm-1.288.084c.028-.57-.066-1.045-.28-1.428a2.047 2.047 0 00-.882-.854 2.685 2.685 0 00-1.218-.28c-.7 0-1.288.22-1.764.658-.476.43-.733 1.064-.77 1.904h4.914zm12.195 1.904h-4.34L63.84 41h-1.372l3.654-9.688h1.442L71.203 41h-1.372l-.826-2.282zm-.364-.994l-1.806-4.984-1.806 4.984h3.612zm10.684-4.41V41H78.05v-1.806c-.196.625-.546 1.106-1.05 1.442-.495.327-1.074.49-1.736.49-.887 0-1.606-.285-2.156-.854-.551-.579-.826-1.405-.826-2.478v-4.48h1.274v4.354c0 .765.196 1.358.588 1.778.392.41.924.616 1.596.616.7 0 1.26-.224 1.68-.672.42-.457.63-1.12.63-1.988v-4.088h1.274zm5.709 6.566V41h-.952c-.784 0-1.372-.187-1.764-.56-.383-.373-.574-.999-.574-1.876V34.42h-1.148v-1.106h1.148v-1.918h1.288v1.918h1.988v1.106h-1.988v4.172c0 .495.088.835.266 1.022.186.177.504.266.952.266h.784zm5.04-6.664c.738 0 1.396.159 1.974.476a3.35 3.35 0 011.372 1.372c.336.597.504 1.297.504 2.1 0 .803-.168 1.503-.504 2.1a3.372 3.372 0 01-1.372 1.358c-.578.317-1.236.476-1.974.476-.737 0-1.4-.159-1.988-.476a3.489 3.489 0 01-1.372-1.358c-.336-.597-.504-1.297-.504-2.1 0-.803.168-1.503.504-2.1a3.464 3.464 0 011.372-1.372c.588-.317 1.251-.476 1.988-.476zm0 1.12a2.71 2.71 0 00-1.274.308c-.382.205-.695.523-.938.952-.233.42-.35.943-.35 1.568 0 .616.117 1.139.35 1.568.243.42.556.733.938.938a2.71 2.71 0 001.274.308c.458 0 .878-.103 1.26-.308a2.27 2.27 0 00.938-.938c.243-.43.364-.952.364-1.568 0-.625-.12-1.148-.364-1.568a2.252 2.252 0 00-.938-.952 2.623 2.623 0 00-1.26-.308zm14.961-1.148c.896 0 1.614.29 2.156.868.55.57.826 1.395.826 2.478V41h-1.274v-4.354c0-.756-.187-1.335-.56-1.736-.364-.401-.868-.602-1.512-.602-.672 0-1.214.224-1.624.672-.402.439-.602 1.087-.602 1.946V41h-1.274v-4.354c0-.756-.187-1.335-.56-1.736-.374-.401-.878-.602-1.513-.602-.68 0-1.227.224-1.638.672-.4.439-.601 1.087-.601 1.946V41h-1.274v-7.686h1.274v1.75c.186-.607.517-1.069.994-1.386a2.913 2.913 0 011.666-.49c.653 0 1.218.168 1.694.504.485.327.83.812 1.036 1.456.214-.625.574-1.106 1.078-1.442a2.95 2.95 0 011.708-.518zm8.446.028c.737 0 1.395.159 1.974.476a3.352 3.352 0 011.372 1.372c.336.597.504 1.297.504 2.1 0 .803-.168 1.503-.504 2.1a3.374 3.374 0 01-1.372 1.358c-.579.317-1.237.476-1.974.476-.738 0-1.4-.159-1.988-.476a3.487 3.487 0 01-1.372-1.358c-.336-.597-.504-1.297-.504-2.1 0-.803.168-1.503.504-2.1a3.462 3.462 0 011.372-1.372c.588-.317 1.25-.476 1.988-.476zm0 1.12c-.458 0-.882.103-1.274.308-.383.205-.696.523-.938.952-.234.42-.35.943-.35 1.568 0 .616.116 1.139.35 1.568.242.42.555.733.938.938.392.205.816.308 1.274.308.457 0 .877-.103 1.26-.308.392-.205.704-.518.938-.938.242-.43.364-.952.364-1.568 0-.625-.122-1.148-.364-1.568-.234-.43-.546-.747-.938-.952a2.625 2.625 0 00-1.26-.308zm9.752-1.12c.681 0 1.288.159 1.82.476.532.317.947.775 1.246 1.372.308.597.462 1.297.462 2.1 0 .803-.154 1.503-.462 2.1a3.258 3.258 0 01-1.246 1.358c-.532.317-1.139.476-1.82.476-.747 0-1.382-.187-1.904-.56a2.928 2.928 0 01-1.064-1.498V41h-1.274V30.64h1.274v4.634c.196-.616.55-1.11 1.064-1.484.522-.383 1.157-.574 1.904-.574zm-.364 1.134c-.495 0-.943.117-1.344.35-.402.224-.714.55-.938.98-.224.43-.336.924-.336 1.484 0 .56.112 1.055.336 1.484.224.42.536.747.938.98.401.233.849.35 1.344.35.793 0 1.423-.247 1.89-.742.476-.504.714-1.195.714-2.072s-.238-1.563-.714-2.058c-.467-.504-1.097-.756-1.89-.756zm5.331-3.29c0-.233.08-.42.238-.56.159-.15.369-.224.63-.224.262 0 .472.075.63.224a.71.71 0 01.238.56.752.752 0 01-.238.574c-.158.14-.368.21-.63.21-.261 0-.471-.07-.63-.21a.756.756 0 01-.238-.574zm1.498 2.254V41h-1.274v-7.686h1.274zm3.323-2.674V41h-1.274V30.64h1.274zm9.118 6.09c0 .27-.019.504-.056.7h-6.146c.028.877.275 1.535.742 1.974.476.439 1.055.658 1.736.658.616 0 1.129-.154 1.54-.462.42-.317.677-.737.77-1.26h1.358a3.18 3.18 0 01-.63 1.428c-.317.42-.733.747-1.246.98-.513.233-1.092.35-1.736.35-.737 0-1.391-.159-1.96-.476a3.425 3.425 0 01-1.344-1.358c-.317-.597-.476-1.297-.476-2.1 0-.803.159-1.503.476-2.1a3.403 3.403 0 011.344-1.372c.569-.317 1.223-.476 1.96-.476.747 0 1.395.159 1.946.476.56.317.985.742 1.274 1.274.299.532.448 1.12.448 1.764zm-1.288.084c.028-.57-.065-1.045-.28-1.428a2.05 2.05 0 00-.882-.854 2.683 2.683 0 00-1.218-.28c-.7 0-1.288.22-1.764.658-.476.43-.733 1.064-.77 1.904h4.914zm15.863-3.626c.896 0 1.615.29 2.156.868.551.57.826 1.395.826 2.478V41h-1.274v-4.354c0-.756-.186-1.335-.56-1.736-.364-.401-.868-.602-1.512-.602-.672 0-1.213.224-1.624.672-.401.439-.602 1.087-.602 1.946V41h-1.274v-4.354c0-.756-.186-1.335-.56-1.736-.373-.401-.877-.602-1.512-.602-.681 0-1.227.224-1.638.672-.401.439-.602 1.087-.602 1.946V41h-1.274v-7.686h1.274v1.75c.187-.607.518-1.069.994-1.386a2.916 2.916 0 011.666-.49c.654 0 1.218.168 1.694.504.486.327.831.812 1.036 1.456.215-.625.574-1.106 1.078-1.442a2.953 2.953 0 011.708-.518zm11.792.126V41h-1.274v-1.806c-.196.625-.546 1.106-1.05 1.442-.494.327-1.073.49-1.736.49-.886 0-1.605-.285-2.156-.854-.55-.579-.826-1.405-.826-2.478v-4.48h1.274v4.354c0 .765.196 1.358.588 1.778.392.41.924.616 1.596.616.7 0 1.26-.224 1.68-.672.42-.457.63-1.12.63-1.988v-4.088h1.274zm3.315-2.674V41h-1.274V30.64h1.274zm5.717 9.24V41h-.952c-.784 0-1.372-.187-1.764-.56-.383-.373-.574-.999-.574-1.876V34.42H173.1v-1.106h1.148v-1.918h1.288v1.918h1.988v1.106h-1.988v4.172c0 .495.088.835.266 1.022.186.177.504.266.952.266h.784zm1.33-8.82c0-.233.08-.42.238-.56.159-.15.369-.224.63-.224.262 0 .472.075.63.224a.71.71 0 01.238.56.752.752 0 01-.238.574c-.158.14-.368.21-.63.21-.261 0-.471-.07-.63-.21a.756.756 0 01-.238-.574zm1.498 2.254V41h-1.274v-7.686h1.274zm11.499-.126c.896 0 1.614.29 2.156.868.55.57.826 1.395.826 2.478V41h-1.274v-4.354c0-.756-.187-1.335-.56-1.736-.364-.401-.868-.602-1.512-.602-.672 0-1.214.224-1.624.672-.402.439-.602 1.087-.602 1.946V41h-1.274v-4.354c0-.756-.187-1.335-.56-1.736-.374-.401-.878-.602-1.512-.602-.682 0-1.228.224-1.638.672-.402.439-.602 1.087-.602 1.946V41h-1.274v-7.686h1.274v1.75c.186-.607.518-1.069.994-1.386a2.911 2.911 0 011.666-.49c.653 0 1.218.168 1.694.504.485.327.83.812 1.036 1.456.214-.625.574-1.106 1.078-1.442a2.95 2.95 0 011.708-.518zm8.11.028c.746 0 1.376.187 1.89.56.522.373.886.873 1.092 1.498v-1.96h1.274V41h-1.274v-1.96a2.912 2.912 0 01-1.092 1.498c-.514.373-1.144.56-1.89.56-.682 0-1.288-.159-1.82-.476a3.348 3.348 0 01-1.26-1.358c-.299-.597-.448-1.297-.448-2.1 0-.803.149-1.503.448-2.1.308-.597.728-1.055 1.26-1.372.532-.317 1.138-.476 1.82-.476zm.364 1.134c-.784 0-1.414.252-1.89.756-.467.495-.7 1.18-.7 2.058 0 .877.233 1.568.7 2.072.476.495 1.106.742 1.89.742a2.58 2.58 0 001.344-.35c.401-.233.714-.56.938-.98.224-.43.336-.924.336-1.484 0-.56-.112-1.055-.336-1.484a2.324 2.324 0 00-.938-.98 2.577 2.577 0 00-1.344-.35zm7.193.518a2.786 2.786 0 011.106-1.232c.486-.299 1.064-.448 1.736-.448v1.386h-.392c-.718 0-1.306.187-1.764.56-.457.364-.686.97-.686 1.82V41h-1.274v-7.686h1.274v1.554zm7.333-1.624c.71 0 1.312.173 1.806.518.504.336.868.793 1.092 1.372v-1.82h1.274V44.64h-1.274v-5.516a3.057 3.057 0 01-1.106 1.442c-.494.355-1.092.532-1.792.532a3.636 3.636 0 01-1.848-.476 3.49 3.49 0 01-1.302-1.372c-.308-.597-.462-1.288-.462-2.072s.154-1.47.462-2.058a3.467 3.467 0 011.302-1.386 3.555 3.555 0 011.848-.49zm.28 1.106c-.765 0-1.39.252-1.876.756-.476.495-.714 1.185-.714 2.072s.238 1.577.714 2.072c.476.485 1.102.728 1.876.728.486 0 .924-.112 1.316-.336a2.52 2.52 0 00.952-.98c.234-.43.35-.929.35-1.498 0-.57-.116-1.064-.35-1.484a2.403 2.403 0 00-.952-.98 2.522 2.522 0 00-1.316-.35zm12.752-1.036V41h-1.274v-1.806c-.196.625-.546 1.106-1.05 1.442-.495.327-1.073.49-1.736.49-.887 0-1.605-.285-2.156-.854-.551-.579-.826-1.405-.826-2.478v-4.48h1.274v4.354c0 .765.196 1.358.588 1.778.392.41.924.616 1.596.616.7 0 1.26-.224 1.68-.672.42-.457.63-1.12.63-1.988v-4.088h1.274zm9.111 3.416c0 .27-.019.504-.056.7h-6.146c.028.877.275 1.535.742 1.974.476.439 1.055.658 1.736.658.616 0 1.129-.154 1.54-.462.42-.317.677-.737.77-1.26h1.358a3.18 3.18 0 01-.63 1.428c-.317.42-.733.747-1.246.98-.513.233-1.092.35-1.736.35-.737 0-1.391-.159-1.96-.476a3.425 3.425 0 01-1.344-1.358c-.317-.597-.476-1.297-.476-2.1 0-.803.159-1.503.476-2.1a3.403 3.403 0 011.344-1.372c.569-.317 1.223-.476 1.96-.476.747 0 1.395.159 1.946.476.56.317.985.742 1.274 1.274.299.532.448 1.12.448 1.764zm-1.288.084c.028-.57-.065-1.045-.28-1.428a2.05 2.05 0 00-.882-.854 2.683 2.683 0 00-1.218-.28c-.7 0-1.288.22-1.764.658-.476.43-.733 1.064-.77 1.904h4.914zm9.563-3.598c.747 0 1.377.187 1.89.56.523.373.887.873 1.092 1.498v-1.96h1.274V41h-1.274v-1.96a2.901 2.901 0 01-1.092 1.498c-.513.373-1.143.56-1.89.56-.681 0-1.288-.159-1.82-.476a3.348 3.348 0 01-1.26-1.358c-.298-.597-.448-1.297-.448-2.1 0-.803.15-1.503.448-2.1.308-.597.728-1.055 1.26-1.372.532-.317 1.139-.476 1.82-.476zm.364 1.134c-.784 0-1.414.252-1.89.756-.466.495-.7 1.18-.7 2.058 0 .877.234 1.568.7 2.072.476.495 1.106.742 1.89.742a2.58 2.58 0 001.344-.35c.402-.233.714-.56.938-.98.224-.43.336-.924.336-1.484 0-.56-.112-1.055-.336-1.484a2.318 2.318 0 00-.938-.98 2.577 2.577 0 00-1.344-.35zm.588-2.548v.91l-2.982-1.638v-1.036l2.982 1.764zm17.107 4.256c0 .999-.201 1.871-.602 2.618-.401.737-.994 1.311-1.778 1.722-.775.401-1.708.602-2.8.602h-3.136v-9.87h3.136c1.092 0 2.025.2 2.8.602a3.985 3.985 0 011.778 1.708c.401.737.602 1.61.602 2.618zm-5.278 3.794c1.288 0 2.273-.331 2.954-.994s1.022-1.596 1.022-2.8c0-1.204-.341-2.137-1.022-2.8-.672-.672-1.657-1.008-2.954-1.008H256.3v7.602h1.764zm6.773-8.792a.71.71 0 01.238-.56c.159-.15.369-.224.63-.224s.471.075.63.224a.71.71 0 01.238.56.752.752 0 01-.238.574c-.159.14-.369.21-.63.21s-.471-.07-.63-.21a.752.752 0 01-.238-.574zm1.498 2.254V41h-1.274v-7.686h1.274zm2.776-1.47c-.261 0-.476-.07-.644-.21a.756.756 0 01-.238-.574c0-.233.08-.42.238-.56a.934.934 0 01.644-.224c.252 0 .458.075.616.224a.71.71 0 01.238.56.752.752 0 01-.238.574c-.158.14-.364.21-.616.21zm-2.142 11.676h.532c.336 0 .579-.075.728-.224.159-.15.238-.406.238-.77v-9.212h1.288v9.254c0 1.381-.7 2.072-2.1 2.072h-.686v-1.12zm8.305-10.304c.737 0 1.395.159 1.974.476a3.352 3.352 0 011.372 1.372c.336.597.504 1.297.504 2.1 0 .803-.168 1.503-.504 2.1a3.374 3.374 0 01-1.372 1.358c-.579.317-1.237.476-1.974.476-.738 0-1.4-.159-1.988-.476a3.487 3.487 0 01-1.372-1.358c-.336-.597-.504-1.297-.504-2.1 0-.803.168-1.503.504-2.1a3.462 3.462 0 011.372-1.372c.588-.317 1.25-.476 1.988-.476zm0 1.12c-.458 0-.882.103-1.274.308-.383.205-.696.523-.938.952-.234.42-.35.943-.35 1.568 0 .616.116 1.139.35 1.568.242.42.555.733.938.938.392.205.816.308 1.274.308.457 0 .877-.103 1.26-.308.392-.205.704-.518.938-.938.242-.43.364-.952.364-1.568 0-.625-.122-1.148-.364-1.568-.234-.43-.546-.747-.938-.952a2.625 2.625 0 00-1.26-.308zm9.556-1.148c.896 0 1.619.29 2.17.868.55.57.826 1.395.826 2.478V41h-1.274v-4.354c0-.765-.196-1.353-.588-1.764-.392-.41-.924-.616-1.596-.616-.7 0-1.26.229-1.68.686-.42.448-.63 1.106-.63 1.974V41h-1.274v-7.686h1.274v1.82c.196-.625.541-1.106 1.036-1.442.504-.336 1.082-.504 1.736-.504z" fill="#fff"/></svg>