<svg version="1.1" id="Calque_1" xmlns="http://www.w3.org/2000/svg" x="0" y="0" viewBox="0 0 214.5 21.61" xml:space="preserve"><path d="M177.55 4.97v-3.5h-2v3.5h2zm2.31-1h-3.31v2h3.31v-2zm1 16.17V4.97h-2v15.17h2zm2.61-1h-3.61v2h3.61v-2zm-1-14.17v15.17h2V4.97h-2zm4.4-1h-3.4v2h3.4v-2zm-1-2.5v3.5h2v-3.5h-2zm-9.32 1h10.32v-2h-10.32v2zm0 2.5h-1v1h1v-1zm3.31 0h1v-1h-1v1zm0 15.17h-1v1h1v-1zm3.61 0v1h1v-1h-1zm0-15.17v-1h-1v1h1zm3.4 0v1h1v-1h-1zm0-3.5h1v-1h-1v1zm-10.32 0v-1h-1v1h1zm-16.39 18.67V1.47h-2v18.67h2zm2.55-1h-3.55v2h3.55v-2zm-1-11.25v12.25h2V7.89h-2zm9.84 11.71l-8-12.25-1.67 1.09 8 12.25 1.67-1.09zm2.58-.46h-3.42v2h3.42v-2zm-1-17.67v18.67h2V1.47h-2zm-2.56 1h3.55v-2h-3.55v2zm1 11.29V1.47h-2v12.29h2zm-9.85-11.74l8.01 12.29 1.68-1.09L163.4.92l-1.68 1.1zm-2.56.45h3.4v-2h-3.4v2zm0 17.67h-1v1h1v-1zm3.55 0v1h1v-1h-1zm0-12.25l.84-.55-1.84-2.81v3.36h1zm8 12.25l-.84.55.3.45h.54v-1zm3.42 0v1h1v-1h-1zm0-18.67h1v-1h-1v1zm-3.56 0v-1h-1v1h1zm0 12.29l-.84.55 1.84 2.82v-3.37h-1zm-8.01-12.29l.84-.55-.3-.45h-.54v1zm-3.4 0v-1h-1v1h1zm-12.53 18.67V1.47h-2v18.67h2zm9.19-1h-10.19v2h10.19v-2zm-1-2.49v3.49h2v-3.49h-2zm-5.67 1h6.67v-2h-6.67v2zm-1-5.91v4.91h2v-4.91h-2zm7.67-1h-6.67v2h6.67v-2zm-1-2.41v3.42h2V8.33h-2zm-5.67 1h6.67v-2h-6.67v2zm-1-4.38v3.38h2V4.95h-2zm7.67-1h-6.67v2h6.67v-2zm-1-2.48v3.48h2V1.47h-2zm-9.19 1h10.19v-2h-10.19v2zm0 17.67h-1v1h1v-1zm10.19 0v1h1v-1h-1zm0-3.49h1v-1h-1v1zm-6.67 0h-1v1h1v-1zm0-4.91v-1h-1v1h1zm6.67 0v1h1v-1h-1zm0-3.41h1v-1h-1v1zm-6.67 0h-1v1h1v-1zm0-3.38v-1h-1v1h1zm6.67 0v1h1v-1h-1zm0-3.48h1v-1h-1v1zm-10.19 0v-1h-1v1h1zm-23.86 18.84l3.22-18.67-1.97-.34-3.22 18.67 1.97.34zm2.48-1.17h-3.47v2h3.47v-2zm1.05-10.96l-2.04 11.79 1.97.34 2.04-11.79-1.97-.34zm5.86 11.65l-3.92-11.79-1.9.63 3.92 11.79 1.9-.63zm2.19-.69h-3.14v2h3.14v-2zm3.02-11.11l-3.97 11.79 1.9.64 3.97-11.79-1.9-.64zm3.94 11.95L138.3 8.19l-1.97.34 2.01 11.79 1.97-.34zm2.45-.84h-3.43v2h3.43v-2zm-4.14-17.5l3.15 18.67 1.97-.33-3.15-18.68-1.97.34zm-2.44.83h3.43v-2h-3.43v2zm-3.43 12.34l4.38-13.03-1.9-.64-4.38 13.03 1.9.64zm-6.22-13.03l4.32 13.03 1.9-.63-4.32-13.03-1.9.63zm-2.53.69h3.48v-2H124v2zm-3.22 17.67l-.99-.17-.2 1.17h1.19v-1zm3.47 0v1h.84l.14-.83-.98-.17zm2.04-11.79l.95-.32-1.93.14.98.18zm3.92 11.79l-.95.32.23.68h.72v-1zm3.14 0v1h.72l.23-.68-.95-.32zm3.97-11.79l.99-.17-1.93-.15.94.32zm2.01 11.79l-.99.17.14.83h.84v-1zm3.43 0v1h1.18l-.2-1.17-.98.17zm-3.15-18.67l.99-.17-.14-.83h-.85v1zm-3.43 0v-1h-.72l-.23.68.95.32zM131.8 14.5l-.95.31.94 2.84.95-2.84-.94-.31zm-4.32-13.03l.95-.31-.23-.69h-.72v1zm-3.48 0v-1h-.84l-.14.83.98.17zm-14.32 18.67V1.47h-2v18.67h2zm9.2-1h-10.19v2h10.19v-2zm-1-2.49v3.49h2v-3.49h-2zm-5.67 1h6.67v-2h-6.67v2zm-1-5.91v4.91h2v-4.91h-2zm7.67-1h-6.67v2h6.67v-2zm-1-2.41v3.42h2V8.33h-2zm-5.67 1h6.67v-2h-6.67v2zm-1-4.38v3.38h2V4.95h-2zm7.67-1h-6.67v2h6.67v-2zm-1-2.48v3.48h2V1.47h-2zm-9.2 1h10.19v-2h-10.19v2zm0 17.67h-1v1h1v-1zm10.2 0v1h1v-1h-1zm0-3.49h1v-1h-1v1zm-6.67 0h-1v1h1v-1zm0-4.91v-1h-1v1h1zm6.67 0v1h1v-1h-1zm0-3.41h1v-1h-1v1zm-6.67 0h-1v1h1v-1zm0-3.38v-1h-1v1h1zm6.67 0v1h1v-1h-1zm0-3.48h1v-1h-1v1zm-10.2 0v-1h-1v1h1zM91.96 20.14V1.47h-2v18.67h2zm2.6-1h-3.61v2h3.61v-2zm-1-7.18v8.19h2v-8.19h-2zm7.25-1h-6.25v2h6.25v-2zm1 9.18v-8.19h-2v8.19h2zm2.59-1h-3.59v2h3.59v-2zm-1-17.67v18.67h2V1.47h-2zm-2.59 1h3.59v-2h-3.59v2zm1 6.05V1.47h-2v7.05h2zm-7.25 1h6.25v-2h-6.25v2zm-1-8.05v7.05h2V1.47h-2zm-2.6 1h3.61v-2h-3.61v2zm0 17.67h-1v1h1v-1zm3.6 0v1h1v-1h-1zm0-8.18v-1h-1v1h1zm6.25 0h1v-1h-1v1zm0 8.18h-1v1h1v-1zm3.59 0v1h1v-1h-1zm0-18.67h1v-1h-1v1zm-3.59 0v-1h-1v1h1zm0 7.05v1h1v-1h-1zm-6.25 0h-1v1h1v-1zm0-7.05h1v-1h-1v1zm-3.6 0v-1h-1v1h1zm-7.22 1.42c1.3.59 2.41 1.43 3.35 2.52l1.52-1.3a11.593 11.593 0 00-4.04-3.04l-.83 1.82zM79.71 2c1.39 0 2.73.29 4.03.89l.83-1.82C83.02.36 81.4 0 79.71 0v2zm-4.59 1.19A9.322 9.322 0 0179.71 2V0c-1.98 0-3.84.48-5.57 1.45l.98 1.74zm-3.24 3.13C72.63 5.04 73.7 4 75.12 3.2l-.98-1.74c-1.71.96-3.05 2.25-3.99 3.86l1.73 1zm-1.12 4.46c0-1.71.38-3.18 1.12-4.46l-1.73-1c-.94 1.62-1.39 3.45-1.39 5.46h2zm2.47 6.37c-1.64-1.64-2.47-3.73-2.47-6.38h-2c0 3.11 1.01 5.74 3.06 7.79l1.41-1.41zm6.43 2.46c-2.67 0-4.79-.84-6.43-2.47l-1.41 1.42c2.06 2.04 4.7 3.04 7.84 3.04v-1.99zm3.81-.69c-1.08.46-2.35.7-3.81.7v2c1.68 0 3.22-.28 4.59-.85l-.78-1.85zm3.6-2.6c-1.33 1.29-2.53 2.14-3.61 2.6l.79 1.84c1.38-.59 2.78-1.61 4.22-3.01l-1.4-1.43zm-2.43-1.11l2.41 2.51 1.44-1.38-2.41-2.51-1.44 1.38zm-1.68 2.33c1-.46 2.04-1.25 3.11-2.31l-1.41-1.42c-.98.97-1.82 1.59-2.53 1.91l.83 1.82zm-3.25.66c1.16 0 2.24-.21 3.24-.66l-.81-1.83c-.71.32-1.52.48-2.42.48v2.01zm-3.79-.95c1.15.64 2.42.95 3.79.95v-2c-1.05 0-1.98-.24-2.82-.7l-.97 1.75zm-2.68-2.66c.63 1.13 1.54 2.02 2.68 2.66l.97-1.75a4.824 4.824 0 01-1.91-1.89l-1.74.98zm-.94-3.8c0 1.39.3 2.67.94 3.8l1.74-.98c-.45-.8-.68-1.73-.68-2.82h-2zm2.12-5.22c-1.41 1.41-2.12 3.17-2.12 5.21h2c0-1.53.51-2.78 1.54-3.8l-1.42-1.41zm5.23-2.12c-2.04 0-3.8.71-5.22 2.12l1.41 1.42c1.03-1.03 2.28-1.54 3.81-1.54v-2zm6.44 2.99c-1.85-1.95-4-2.99-6.44-2.99v2c1.8 0 3.45.74 4.99 2.37l1.45-1.38zm1.07-2.41L84.67 6.4l1.38 1.45 2.49-2.37-1.38-1.45zm-3.01-2.05l-.42.91.42-.91zm-9.52.34l-.49-.87.49.87zm-3.62 3.49l-.86-.5.86.5zm1.52 12.05l-.71.71.71-.71zm11.33 1.98l.39.92h.01l-.4-.92zm3.91-2.81l.7.72.71-.69-.69-.72-.72.69zm-2.41-2.51l.72-.69-.7-.73-.72.72.7.7zm-2.82 2.11l.41.91h.01l-.42-.91zM75.13 6.28l-.7-.71.7.71zm10.23.85l-.73.69.69.73.73-.69-.69-.73zm2.49-2.37l.69.72.69-.66-.62-.72-.76.66zm-25.14.88c-1.38-1.43-3.09-2.16-5.07-2.16v2c1.44 0 2.63.51 3.64 1.55l1.43-1.39zm2.07 5.2c0-2.03-.69-3.78-2.07-5.2l-1.43 1.39c1 1.03 1.51 2.28 1.51 3.81h1.99zm-2.06 5.2c1.38-1.42 2.06-3.17 2.06-5.2h-2c0 1.54-.5 2.79-1.49 3.81l1.43 1.39zm-5.02 2.13c1.96 0 3.65-.72 5.02-2.13l-1.43-1.39c-1 1.03-2.18 1.53-3.59 1.53v1.99zm-4.6-1.63c1.33 1.09 2.87 1.63 4.59 1.63v-2c-1.26 0-2.36-.39-3.33-1.18l-1.26 1.55zm-2.59-5.68c0 2.34.86 4.27 2.59 5.68l1.26-1.55c-1.23-.99-1.85-2.33-1.85-4.12h-2zm2.05-5.28c-1.38 1.41-2.05 3.2-2.05 5.28h2c0-1.62.51-2.89 1.48-3.88l-1.43-1.4zm5.07-2.1c-1.99 0-3.7.7-5.07 2.1l1.43 1.4c.98-1 2.17-1.5 3.64-1.5v-2zm-4.34-.3A8.57 8.57 0 0157.67 2V0c-1.92 0-3.72.49-5.39 1.46l1.01 1.72zM50.1 6.37a8.64 8.64 0 013.19-3.19l-1-1.73c-1.66.96-2.97 2.27-3.92 3.92l1.73 1zm-1.17 4.43c0-1.62.39-3.09 1.16-4.43l-1.73-1c-.95 1.66-1.43 3.47-1.43 5.43h2zm2.51 6.22c-1.68-1.75-2.5-3.81-2.5-6.22h-2c0 2.93 1.03 5.47 3.06 7.6l1.44-1.38zm6.26 2.59c-2.54 0-4.6-.87-6.26-2.6l-1.45 1.38c2.05 2.15 4.64 3.22 7.71 3.22v-2zm6.1-2.53c-1.68 1.7-3.7 2.53-6.11 2.53v2c2.94 0 5.47-1.05 7.53-3.13l-1.42-1.4zm2.53-6.22c0 2.47-.84 4.52-2.53 6.21l1.42 1.41c2.07-2.08 3.11-4.64 3.11-7.62h-2zm-2.56-6.29c1.71 1.72 2.57 3.8 2.57 6.29h2c0-3.01-1.05-5.6-3.15-7.7l-1.42 1.41zM57.67 2c2.37 0 4.38.85 6.09 2.57l1.42-1.41C63.11 1.07 60.59 0 57.67 0v2zm4.32 4.33l-.72.69.72-.69zm-8.25 9.43l.63-.77-.63.77zm-.46-9.48l.71.7-.71-.7zm-.5-3.96l.5.87-.5-.87zm11.73 15.46l-.71-.71.71.71zm-.03-13.91l-.71.7.71-.7zM36.56 4.95v3.82h2V4.95h-2zm1.98-1h-.98v2h.98v-2zm2.31.27c-.55-.21-1.37-.27-2.31-.27v2c.96 0 1.44.08 1.6.14l.71-1.87zm1.32 1.01c-.33-.48-.79-.82-1.34-1.02l-.67 1.88c.16.06.28.15.37.28l1.64-1.14zm.49 1.62c0-.59-.16-1.15-.5-1.63l-1.63 1.16c.08.11.13.25.13.47h2zm-1.08 2.3c.78-.54 1.08-1.4 1.08-2.3h-2c0 .47-.14.59-.21.65l1.13 1.65zm-2.9.62c.61 0 1.15-.04 1.62-.13.46-.09.92-.24 1.29-.5L40.44 7.5c-.05.04-.2.11-.51.17-.31.06-.72.09-1.25.09v2.01zm-1.12 0h1.12v-2h-1.12v2zm-2.55 10.37V1.47h-2v18.67h2zm2.55-1h-3.55v2h3.55v-2zm-1-6.9v7.91h2v-7.91h-2zm1.33-1h-.33v2h.33v-2zm5.09 8.44l-4.2-7.91-1.77.94 4.2 7.91 1.77-.94zm3-.54H42.1v2h3.88v-2zm-5.3-6.83l4.42 8.3 1.77-.94-4.42-8.3-1.77.94zM43.4 9.4c-.44.62-1.13 1.13-2.17 1.5l.67 1.88c1.33-.47 2.4-1.2 3.13-2.23L43.4 9.4zm.7-2.51c0 1.06-.25 1.88-.7 2.5l1.63 1.16c.74-1.03 1.07-2.27 1.07-3.67h-2zm-.64-2.5c.42.67.65 1.49.65 2.5h2c0-1.32-.3-2.53-.95-3.56l-1.7 1.06zM41.8 2.95c.68.28 1.22.74 1.65 1.43l1.7-1.06c-.64-1.02-1.5-1.77-2.59-2.22l-.76 1.85zm-4.02-.48c2.05 0 3.34.19 4.01.48l.79-1.84c-1.07-.46-2.72-.64-4.8-.64v2zm-3.77 0h3.77v-2h-3.77v2zm3.55 2.48v-1h-1v1h1zm2.94.2l-.36.93h.02l.34-.93zm.85.65l-.82.57.01.01.81-.58zm-.33 2.53l-.57-.83-.01.01.58.82zm-3.46.44h-1v1h1v-1zm-3.55 11.37h-1v1h1v-1zm3.55 0v1h1v-1h-1zm0-7.9v-1h-1v1h1zm.33 0l.88-.47-.28-.53h-.6v1zm4.2 7.9l-.88.47.28.53h.6v-1zm3.89 0v1h1.66l-.78-1.47-.88.47zm-4.42-8.3l-.34-.94-1.09.39.54 1.02.89-.47zm2.65-1.86l-.81-.59.81.59zm-2.03-7.95l-.39.92h.01l.38-.92zm-8.17-.56v-1h-1v1h1zM15.53 20.14V1.47h-2v18.67h2zm2.56-1h-3.55v2h3.55v-2zm-1-11.25v12.25h2V7.89h-2zm9.83 11.71l-8-12.25-1.67 1.09 8 12.25 1.67-1.09zm2.58-.46h-3.42v2h3.42v-2zm-1-17.67v18.67h2V1.47h-2zm-2.55 1h3.55v-2h-3.55v2zm1 11.29V1.47h-2v12.29h2zM17.1 2.02l8.01 12.29 1.68-1.09L18.77.92l-1.67 1.1zm-2.57.45h3.4v-2h-3.4v2zm0 17.67h-1v1h1v-1zm3.56 0v1h1v-1h-1zm0-12.25l.84-.55-1.84-2.81v3.36h1zm8 12.25l-.84.55.3.45h.54v-1zm3.41 0v1h1v-1h-1zm0-18.67h1v-1h-1v1zm-3.55 0v-1h-1v1h1zm0 12.29l-.84.55 1.84 2.82v-3.37h-1zM17.94 1.47l.84-.55-.3-.45h-.54v1zm-3.41 0v-1h-1v1h1zM2 20.14V1.47H0v18.67h2zm9.19-1H1v2h10.19v-2zm-1-2.49v3.49h2v-3.49h-2zm-5.66 1h6.67v-2H4.53v2zm-1-5.91v4.91h2v-4.91h-2zm7.66-1H4.53v2h6.67v-2zm-1-2.41v3.42h2V8.33h-2zm-5.66 1h6.67v-2H4.53v2zm-1-4.38v3.38h2V4.95h-2zm7.66-1H4.53v2h6.67v-2zm-1-2.48v3.48h2V1.47h-2zM1 2.47h10.19v-2H1v2zm0 17.67H0v1h1v-1zm10.19 0v1h1v-1h-1zm0-3.49h1v-1h-1v1zm-6.66 0h-1v1h1v-1zm0-4.91v-1h-1v1h1zm6.66 0v1h1v-1h-1zm0-3.41h1v-1h-1v1zm-6.66 0h-1v1h1v-1zm0-3.38v-1h-1v1h1zm6.66 0v1h1v-1h-1zm0-3.48h1v-1h-1v1zM1 1.47v-1H0v1h1z" fill="#fff"/><path d="M176.55 1.47h10.32v3.5h-3.4v15.17h-3.61V4.97h-3.31v-3.5zm-17.39 0h3.4l8.01 12.29V1.47h3.55v18.67h-3.42l-8-12.25v12.25h-3.55V1.47zm-13.53 0h10.19v3.48h-6.67v3.38h6.67v3.42h-6.67v4.91h6.67v3.49h-10.19V1.47zm-21.63 0h3.48l4.32 13.03 4.38-13.03h3.43l3.15 18.67h-3.43l-2.01-11.79-3.97 11.79h-3.14l-3.92-11.79-2.04 11.79h-3.47L124 1.47zm-15.32 0h10.19v3.48h-6.67v3.38h6.67v3.42h-6.67v4.91h6.67v3.49h-10.19V1.47zm-17.72 0h3.61v7.05h6.25V1.47h3.59v18.67h-3.59v-8.19h-6.25v8.19h-3.61V1.47zm-3.11 3.29l-2.49 2.37c-1.69-1.79-3.6-2.68-5.71-2.68-1.79 0-3.29.61-4.52 1.83C73.91 7.5 73.3 9 73.3 10.79c0 1.24.27 2.35.81 3.31s1.31 1.72 2.3 2.27 2.09.83 3.3.83c1.03 0 1.98-.19 2.83-.57.85-.39 1.79-1.09 2.82-2.11l2.41 2.51c-1.38 1.35-2.68 2.28-3.91 2.81-1.23.52-2.63.77-4.2.77-2.9 0-5.28-.92-7.13-2.75-1.85-1.85-2.77-4.21-2.77-7.08 0-1.86.42-3.52 1.26-4.96.85-1.45 2.05-2.61 3.62-3.49C76.21 1.44 77.9 1 79.71 1c1.54 0 3.02.33 4.44.98 1.43.65 2.67 1.58 3.7 2.78zm-30.22-.28c-1.73 0-3.18.6-4.35 1.8-1.18 1.2-1.76 2.73-1.76 4.58 0 2.07.74 3.7 2.22 4.9a6.08 6.08 0 003.96 1.41c1.68 0 3.12-.61 4.3-1.83 1.18-1.22 1.78-2.72 1.78-4.51 0-1.78-.6-3.28-1.79-4.51-1.2-1.22-2.65-1.84-4.36-1.84zM57.67 1c2.64 0 4.91.96 6.8 2.87 1.9 1.91 2.86 4.24 2.86 7 0 2.73-.94 5.03-2.82 6.92-1.87 1.89-4.14 2.83-6.82 2.83-2.8 0-5.13-.97-6.98-2.91s-2.78-4.24-2.78-6.91c0-1.79.43-3.43 1.29-4.93s2.05-2.68 3.55-3.55A9.662 9.662 0 0157.67 1zM37.56 8.77h1.12c1.13 0 1.91-.15 2.34-.44.43-.3.65-.79.65-1.47a1.775 1.775 0 00-1.17-1.7c-.36-.14-1.01-.2-1.96-.2h-.98v3.81zm-3.55-7.3h3.77c2.07 0 3.53.19 4.41.56.87.36 1.58.97 2.11 1.83.53.85.8 1.87.8 3.03 0 1.23-.3 2.26-.89 3.08-.58.82-1.47 1.44-2.65 1.87l4.42 8.3H42.1l-4.2-7.91h-.33v7.91h-3.55V1.47zm-19.48 0h3.4l8.01 12.29V1.47h3.55v18.67h-3.42l-8-12.25v12.25h-3.55V1.47zM1 1.47h10.19v3.48H4.53v3.38h6.67v3.42H4.53v4.91h6.67v3.49H1V1.47z"/><path d="M208.77 1.03h5.73v20.11h-3.8V4.63h-4.14l2.21-3.6zm-15.43 6.48h-3.73c.1-2.17.78-3.87 2.04-5.11 1.27-1.25 2.89-1.87 4.87-1.87 1.22 0 2.3.26 3.23.78.94.51 1.69 1.25 2.24 2.23.57.97.85 1.95.85 2.95 0 1.19-.34 2.48-1.03 3.86-.67 1.38-1.91 3-3.72 4.88l-2.26 2.38H203v3.54h-13.93v-1.83l6.22-6.34c1.5-1.52 2.5-2.74 2.99-3.66.5-.93.75-1.77.75-2.52 0-.77-.26-1.41-.78-1.91-.51-.51-1.17-.77-1.98-.77-.82 0-1.5.31-2.05.92-.55.6-.84 1.43-.88 2.47z" fill="#ffc300"/></svg>