<svg width="88" height="76" fill="none" xmlns="http://www.w3.org/2000/svg"><g clip-path="url(#clip0)"><path d="M79.048 73.907a6.989 6.989 0 01-1.496-.164l-15.368-3.387a48.037 48.037 0 01-18.196 3.55c-11.04 0-21.466-3.637-29.32-10.24C6.573 56.86 2.097 47.746 2.097 38s4.465-18.86 12.57-25.663c7.868-6.606 18.28-10.244 29.32-10.244 11.039 0 21.466 3.638 29.317 10.245 8.093 6.801 12.57 15.916 12.57 25.662a31.96 31.96 0 01-4.705 16.569l4.177 9.955a6.727 6.727 0 01-.622 6.359 6.82 6.82 0 01-2.457 2.216 6.888 6.888 0 01-3.22.808z" fill="#EA5B0D"/><path d="M44 4.186c10.536 0 20.467 3.46 27.956 9.746 7.622 6.4 11.82 14.946 11.82 24.068a29.903 29.903 0 01-4.962 16.394l4.596 10.953a4.648 4.648 0 01-.442 4.387 4.711 4.711 0 01-1.699 1.526 4.759 4.759 0 01-3.257.443l-16.03-3.534a45.738 45.738 0 01-17.992 3.645c-10.54 0-20.467-3.46-27.955-9.746C8.409 55.668 4.21 47.121 4.21 38c0-9.122 4.198-17.668 11.824-24.068C23.523 7.653 33.45 4.186 43.99 4.186H44zM43.99 0C32.45 0 21.556 3.813 13.304 10.74 4.718 17.947-.012 27.626-.012 38c0 10.374 4.73 20.053 13.316 27.26C21.556 72.187 32.451 76 43.99 76a50.376 50.376 0 0018.383-3.457l14.72 3.244c1.6.354 3.267.265 4.82-.256a8.949 8.949 0 003.984-2.701 8.831 8.831 0 001.988-4.36 8.796 8.796 0 00-.587-4.748l-3.776-9A33.951 33.951 0 0087.988 38c0-10.374-4.73-20.053-13.316-27.26C66.424 3.813 55.525 0 43.99 0z" fill="#fff"/><path d="M44.002 70.419C22.842 70.419 5.644 55.877 5.644 38c0-17.877 17.212-32.419 38.358-32.419 21.145 0 38.357 14.542 38.357 32.419a28.616 28.616 0 01-5.13 16.237l4.884 11.637a3.267 3.267 0 01-.3 3.084c-.302.45-.71.82-1.19 1.076a3.345 3.345 0 01-2.297.315L61.85 66.718a44.266 44.266 0 01-17.848 3.7z" fill="#fff"/><path d="M44.002 6.976c20.41 0 36.95 13.89 36.95 31.024a27.257 27.257 0 01-5.332 16.046L80.807 66.4a1.878 1.878 0 01-.172 1.778 1.925 1.925 0 01-2.013.8l-16.937-3.736a42.457 42.457 0 01-17.694 3.78c-20.41 0-36.95-13.89-36.95-31.023 0-17.134 16.54-31.024 36.95-31.024h.01zm-.01-2.79c-10.54 0-20.467 3.46-27.956 9.746C8.41 20.332 4.212 28.879 4.212 38c0 9.122 4.198 17.668 11.824 24.068 7.489 6.28 17.416 9.746 27.955 9.746a45.742 45.742 0 0017.993-3.645l16.029 3.534a4.76 4.76 0 003.26-.446 4.711 4.711 0 001.699-1.532 4.658 4.658 0 00.429-4.395l-4.596-10.953a29.903 29.903 0 004.962-16.394c0-9.122-4.198-17.668-11.82-24.069-7.49-6.278-17.42-9.746-27.956-9.746v.018z" fill="#EA5B0D"/><path d="M75.63 54.056a27.258 27.258 0 005.332-16.045c0-17.134-16.54-31.024-36.95-31.024-20.41 0-36.95 13.89-36.95 31.023 0 17.134 16.54 31.024 36.95 31.024a42.454 42.454 0 0017.694-3.781l16.937 3.736a1.927 1.927 0 001.88-.633 1.886 1.886 0 00.298-1.945l-5.19-12.355z" fill="#0E4D9F" stroke="#fff" stroke-width="3.28" stroke-linecap="square" stroke-linejoin="bevel"/><path d="M40.148 59.201a6.271 6.271 0 01-3.46-1.041 6.19 6.19 0 01-2.295-2.772 6.127 6.127 0 01-.355-3.569 6.162 6.162 0 011.947-3.393h-2.062l-.278-1.768c-.419-2.637-.239-4.866.539-6.628a10.426 10.426 0 013.28-4.186 14.81 14.81 0 014.532-2.277c1.488-.457 2.9-.862 4.191-1.204a24.068 24.068 0 002.953-.955 6.016 6.016 0 00-.352-.14 13.918 13.918 0 00-2.988-.502c-1.429-.122-3.311-.185-5.595-.185a125.5 125.5 0 00-6.088.143l-2.375.115.82-11.832 1.847-.112a93.152 93.152 0 015.69-.17c4.198 0 7.742.279 10.557.833 2.967.583 5.279 1.396 7.07 2.515 1.925 1.193 3.273 2.686 4.008 4.437.705 1.724.984 3.59.813 5.442v.042c-.208 2.093-.915 3.802-2.111 5.085a11.961 11.961 0 01-3.833 2.749 23.936 23.936 0 01-4.314 1.479c-1.235.294-2.45.664-3.639 1.106a6.587 6.587 0 00-2.248 1.332c-.127.122-.514.492-.514 1.619v3.055h-1.59l.242.227a6.171 6.171 0 011.701 3.165 6.138 6.138 0 01-.355 3.568 6.2 6.2 0 01-2.292 2.774 6.282 6.282 0 01-3.46 1.048h.014z" fill="#EA5B0D"/><path d="M40.1 20.817c4.076 0 7.46.264 10.148.792 2.689.528 4.81 1.274 6.362 2.24 1.553.962 2.61 2.117 3.168 3.463a9.512 9.512 0 01.657 4.48c-.161 1.627-.68 2.917-1.555 3.871a9.7 9.7 0 01-3.167 2.264 21.596 21.596 0 01-3.93 1.346c-1.314.317-2.606.71-3.872 1.18a8.623 8.623 0 00-2.963 1.782c-.777.74-1.164 1.779-1.164 3.139v.963h-8.055c-.355-2.247-.224-4.068.39-5.463a8.291 8.291 0 012.622-3.37 12.596 12.596 0 013.87-1.95c1.458-.448 2.825-.841 4.104-1.178a25.877 25.877 0 003.252-1.047c.89-.348 1.368-.89 1.432-1.562a2.424 2.424 0 00-.352-1.444c-.26-.419-.804-.768-1.63-1.047a15.796 15.796 0 00-3.47-.6c-1.491-.128-3.417-.193-5.778-.195-2.172 0-4.236.049-6.193.146L34.511 21a91.323 91.323 0 015.56-.168l.028-.014zm.02 28.122a4.168 4.168 0 012.636.923c.744.6 1.255 1.44 1.445 2.372.19.932.048 1.901-.402 2.741a4.13 4.13 0 01-2.067 1.866 4.18 4.18 0 01-2.791.14 4.143 4.143 0 01-2.248-1.647 4.082 4.082 0 01.514-5.192 4.003 4.003 0 012.914-1.203zm-.049-32.294c-1.95 0-3.906.06-5.82.175l-3.695.227-.257 3.662-.518 7.615-.327 4.702 4.75-.234a125.12 125.12 0 014.382-.129c-.844.427-1.648.927-2.404 1.493a12.459 12.459 0 00-3.937 5.034c-.954 2.159-1.18 4.709-.704 7.785l.56 3.537h.06a8.302 8.302 0 00-.38 2.505c0 2.195.879 4.3 2.445 5.852a8.388 8.388 0 005.905 2.425 8.388 8.388 0 005.905-2.424 8.24 8.24 0 002.445-5.853 8.204 8.204 0 00-.485-2.812v-4.841a1.997 1.997 0 010-.238 4.774 4.774 0 011.39-.757c1.108-.41 2.24-.753 3.389-1.029a26.014 26.014 0 004.697-1.611 13.926 13.926 0 004.505-3.24c1.499-1.623 2.39-3.74 2.643-6.28v-.083a13.64 13.64 0 00-.968-6.411c-.908-2.16-2.534-3.977-4.839-5.407-2.01-1.245-4.553-2.16-7.777-2.79-2.987-.587-6.577-.873-10.972-.873h.007z" fill="#fff"/></g><defs><clipPath id="clip0"><path fill="#fff" d="M0 0h88v76H0z"/></clipPath></defs></svg>