<svg width="378" height="447" fill="none" xmlns="http://www.w3.org/2000/svg"><g clip-path="url(#clip0)"><path d="M193.594 83.58a17.579 17.579 0 008.322-6.393 17.402 17.402 0 003.162-9.97 17.376 17.376 0 00-1.336-6.688 17.458 17.458 0 00-3.81-5.67 17.587 17.587 0 00-5.703-3.79 17.682 17.682 0 00-6.729-1.333 17.648 17.648 0 00-12.415 5.12 17.43 17.43 0 00-5.152 12.338c0 3.57 1.1 7.053 3.153 9.983a17.566 17.566 0 008.326 6.404 25.719 25.719 0 00-14.086 9.034 25.45 25.45 0 00-5.487 15.743l.888.882h49.558l.888-.882a25.458 25.458 0 00-5.49-15.743 25.732 25.732 0 00-14.089-9.034z" fill="#EA5B0D"/><path d="M187.5 49.736c2.309 0 4.596.453 6.729 1.332a17.589 17.589 0 015.703 3.79 17.458 17.458 0 013.81 5.67 17.375 17.375 0 011.336 6.689 17.395 17.395 0 01-3.155 9.966 17.572 17.572 0 01-8.311 6.397 25.732 25.732 0 0114.085 9.036 25.455 25.455 0 015.487 15.742l-.887.882h-49.558l-.888-.882a25.452 25.452 0 015.482-15.74 25.723 25.723 0 0114.079-9.038 17.567 17.567 0 01-8.314-6.396 17.397 17.397 0 01-3.153-9.967 17.42 17.42 0 015.138-12.35 17.639 17.639 0 0112.417-5.131zm0-11.76a29.52 29.52 0 00-20.776 8.568 29.154 29.154 0 00-8.618 20.65 28.944 28.944 0 003.656 14.058 37.732 37.732 0 00-3.609 3.898A37.213 37.213 0 00150 108.334a11.72 11.72 0 003.461 8.314l.888.882a11.824 11.824 0 003.841 2.551c1.436.591 2.976.896 4.531.895h49.558a11.87 11.87 0 008.366-3.446l.888-.882a11.723 11.723 0 003.467-8.314 37.217 37.217 0 00-8.159-23.184 36.402 36.402 0 00-3.609-3.898 28.935 28.935 0 003.68-14.035 29.157 29.157 0 00-8.616-20.67 29.522 29.522 0 00-20.796-8.57z" fill="#fff"/><path d="M193.594 83.58a17.579 17.579 0 008.322-6.393 17.402 17.402 0 003.162-9.97 17.376 17.376 0 00-1.336-6.688 17.458 17.458 0 00-3.81-5.67 17.587 17.587 0 00-5.703-3.79 17.682 17.682 0 00-6.729-1.333 17.648 17.648 0 00-12.415 5.12 17.43 17.43 0 00-5.152 12.338c0 3.57 1.1 7.053 3.153 9.983a17.566 17.566 0 008.326 6.404 25.719 25.719 0 00-14.086 9.034 25.45 25.45 0 00-5.487 15.743l.888.882h49.558l.888-.882a25.458 25.458 0 00-5.49-15.743 25.732 25.732 0 00-14.089-9.034z" fill="#fff"/><path d="M187.5 49.736c2.309 0 4.596.454 6.729 1.333a17.587 17.587 0 015.703 3.79 17.458 17.458 0 013.81 5.67 17.376 17.376 0 011.336 6.688 17.395 17.395 0 01-3.155 9.966 17.573 17.573 0 01-8.311 6.397 25.731 25.731 0 0114.085 9.036 25.453 25.453 0 015.487 15.742l-.887.882h-49.558l-.888-.882a25.451 25.451 0 015.482-15.74 25.724 25.724 0 0114.079-9.037 17.567 17.567 0 01-8.314-6.397 17.397 17.397 0 01-3.153-9.967 17.42 17.42 0 015.138-12.35 17.638 17.638 0 0112.417-5.13zm0-4.704a22.397 22.397 0 00-15.758 6.5 22.115 22.115 0 00-6.536 15.661 22.133 22.133 0 006.337 15.47 30.514 30.514 0 00-7.834 6.91 30.12 30.12 0 00-6.609 18.785 4.698 4.698 0 001.385 3.328l.887.882a4.747 4.747 0 003.349 1.376h49.558a4.747 4.747 0 003.349-1.376l.887-.882a4.7 4.7 0 001.385-3.328 30.16 30.16 0 00-6.609-18.786 30.533 30.533 0 00-7.84-6.909 22.141 22.141 0 006.361-15.446c0-5.882-2.35-11.523-6.534-15.683a22.395 22.395 0 00-15.778-6.502z" fill="#EA5B0D"/><path d="M187.5 82.457c8.718 0 15.786-7.023 15.786-15.687s-7.068-15.687-15.786-15.687-15.786 7.023-15.786 15.687 7.068 15.687 15.786 15.687z" fill="#0E4D9F"/><path d="M187.5 51.083a15.878 15.878 0 016.05 1.192 15.8 15.8 0 015.128 3.404 15.691 15.691 0 013.426 5.097 15.611 15.611 0 011.199 6.012 15.642 15.642 0 01-4.625 11.09 15.84 15.84 0 01-11.16 4.597 15.875 15.875 0 01-6.047-1.189 15.798 15.798 0 01-5.127-3.4 15.67 15.67 0 01-3.426-5.09 15.593 15.593 0 01-.004-12.013 15.68 15.68 0 013.422-5.092 15.79 15.79 0 015.122-3.402 15.867 15.867 0 016.042-1.195v-.011zm0-1.752a17.644 17.644 0 00-12.413 5.12 17.421 17.421 0 00-5.148 12.337 17.417 17.417 0 005.149 12.335 17.634 17.634 0 0024.834.004 17.417 17.417 0 005.156-12.34 17.417 17.417 0 00-5.148-12.336 17.64 17.64 0 00-12.412-5.12h-.018z" fill="#fff"/><path d="M162.721 107.947a24.549 24.549 0 017.258-17.413 24.857 24.857 0 0117.521-7.212 24.857 24.857 0 0117.521 7.212 24.549 24.549 0 017.258 17.413h-49.558z" fill="#0E4D9F"/><path d="M212.279 108.799h-49.558l-.888-.882a25.456 25.456 0 017.527-18.027 25.775 25.775 0 0118.14-7.48 25.779 25.779 0 0118.151 7.49 25.458 25.458 0 017.516 18.047l-.888.852zm-48.659-1.764h47.754a23.702 23.702 0 00-7.304-16.208 23.995 23.995 0 00-16.57-6.652 24.001 24.001 0 00-16.572 6.651 23.705 23.705 0 00-7.308 16.209z" fill="#fff"/></g><path d="M218 30c0-16.569 13.431-30 30-30h111c10.493 0 19 8.507 19 19s-8.507 19-19 19H221a3 3 0 01-3-3v-5z" fill="#F25900"/><path d="M0 19C0 8.507 8.507 0 19 0h111c16.569 0 30 13.431 30 30v5a3 3 0 01-3 3H19C8.507 38 0 29.493 0 19z" fill="#0E4D9F"/><path d="M23.285 12.848v8.24c0 .917-.282 1.653-.848 2.208-.565.544-1.312.816-2.24.816-.938 0-1.69-.277-2.255-.832-.566-.565-.849-1.333-.849-2.304h1.456c.011.544.15.987.416 1.328.278.341.689.512 1.233.512.543 0 .949-.16 1.215-.48.267-.33.4-.747.4-1.248v-8.24h1.473zm10.869 6.432c0 .277-.016.57-.048.88h-7.008c.053.864.347 1.541.88 2.032.544.48 1.2.72 1.968.72.63 0 1.152-.144 1.568-.432.427-.299.725-.693.896-1.184h1.568a3.808 3.808 0 01-1.408 2.064c-.704.523-1.579.784-2.624.784-.832 0-1.579-.187-2.24-.56A3.992 3.992 0 0126.17 22c-.373-.693-.56-1.493-.56-2.4 0-.907.181-1.701.544-2.384a3.78 3.78 0 011.52-1.568c.661-.373 1.419-.56 2.272-.56.832 0 1.568.181 2.208.544a3.7 3.7 0 011.472 1.504c.352.63.528 1.344.528 2.144zm-1.504-.304c0-.555-.123-1.03-.368-1.424a2.317 2.317 0 00-1.008-.912 3.006 3.006 0 00-1.392-.32c-.736 0-1.366.235-1.888.704-.512.47-.805 1.12-.88 1.952h5.536zm10.955 3.68l2.72-7.424h1.552L44.437 24h-1.696l-3.44-8.768h1.568l2.736 7.424zM57.31 19.28c0 .277-.016.57-.048.88h-7.008c.053.864.347 1.541.88 2.032.544.48 1.2.72 1.968.72.63 0 1.152-.144 1.568-.432.427-.299.725-.693.896-1.184h1.568a3.807 3.807 0 01-1.408 2.064c-.704.523-1.578.784-2.624.784-.832 0-1.578-.187-2.24-.56A3.993 3.993 0 0149.326 22c-.373-.693-.56-1.493-.56-2.4 0-.907.181-1.701.544-2.384a3.782 3.782 0 011.52-1.568c.662-.373 1.419-.56 2.272-.56.832 0 1.568.181 2.208.544a3.7 3.7 0 011.472 1.504c.352.63.528 1.344.528 2.144zm-1.504-.304c0-.555-.122-1.03-.368-1.424a2.316 2.316 0 00-1.008-.912 3.006 3.006 0 00-1.392-.32c-.736 0-1.365.235-1.888.704-.512.47-.805 1.12-.88 1.952h5.536zm11.202-3.744V24h-1.456v-1.296c-.277.448-.667.8-1.168 1.056a3.598 3.598 0 01-1.632.368c-.683 0-1.296-.139-1.84-.416a3.184 3.184 0 01-1.296-1.28c-.31-.565-.464-1.253-.464-2.064v-5.136h1.44v4.944c0 .864.219 1.53.656 2 .437.459 1.035.688 1.792.688.779 0 1.392-.24 1.84-.72.448-.48.672-1.179.672-2.096v-4.816h1.456zM74.042 24l-2.08-3.264-2 3.264h-1.52l2.832-4.352-2.832-4.416h1.648l2.08 3.248 1.984-3.248h1.52l-2.816 4.336L75.69 24h-1.648zm6.802-4.416c0-.896.182-1.68.544-2.352a3.95 3.95 0 011.488-1.584 4.15 4.15 0 012.128-.56c.768 0 1.435.165 2 .496.566.33.987.747 1.264 1.248v-1.6h1.472V24h-1.472v-1.632c-.288.512-.72.939-1.296 1.28-.565.33-1.226.496-1.984.496a3.974 3.974 0 01-2.112-.576 4.04 4.04 0 01-1.488-1.616c-.362-.693-.544-1.483-.544-2.368zm7.424.016c0-.661-.133-1.237-.4-1.728a2.754 2.754 0 00-1.088-1.12 2.854 2.854 0 00-1.488-.4c-.544 0-1.04.128-1.488.384-.448.256-.805.63-1.072 1.12-.266.49-.4 1.067-.4 1.728 0 .672.134 1.259.4 1.76a2.9 2.9 0 001.072 1.136c.448.256.944.384 1.488.384s1.04-.128 1.488-.384a2.864 2.864 0 001.088-1.136c.267-.501.4-1.083.4-1.744zm3.389 0c0-.907.181-1.696.544-2.368a3.917 3.917 0 011.504-1.584c.65-.373 1.392-.56 2.224-.56 1.077 0 1.962.261 2.656.784.704.523 1.168 1.248 1.392 2.176h-1.568a2.239 2.239 0 00-.88-1.264c-.427-.31-.96-.464-1.6-.464-.832 0-1.504.288-2.016.864-.512.565-.768 1.37-.768 2.416 0 1.056.256 1.872.768 2.448.512.576 1.184.864 2.016.864.64 0 1.173-.15 1.6-.448.426-.299.72-.725.88-1.28h1.568c-.235.896-.704 1.616-1.408 2.16-.704.533-1.584.8-2.64.8-.832 0-1.574-.187-2.224-.56A3.917 3.917 0 0192.2 22c-.363-.683-.544-1.483-.544-2.4zm14.615-4.528c.661 0 1.258.144 1.792.432a2.92 2.92 0 011.248 1.264c.309.565.464 1.253.464 2.064V24h-1.44v-4.96c0-.875-.219-1.541-.656-2-.438-.47-1.035-.704-1.792-.704-.768 0-1.382.24-1.84.72-.448.48-.672 1.179-.672 2.096V24h-1.456V12.16h1.456v4.32a2.875 2.875 0 011.184-1.04 3.91 3.91 0 011.712-.368zm13.882 4.208c0 .277-.016.57-.048.88h-7.008c.053.864.347 1.541.88 2.032.544.48 1.2.72 1.968.72.629 0 1.152-.144 1.568-.432.427-.299.725-.693.896-1.184h1.568a3.81 3.81 0 01-1.408 2.064c-.704.523-1.579.784-2.624.784-.832 0-1.579-.187-2.24-.56A3.988 3.988 0 01112.17 22c-.373-.693-.56-1.493-.56-2.4 0-.907.181-1.701.544-2.384a3.781 3.781 0 011.52-1.568c.661-.373 1.419-.56 2.272-.56.832 0 1.568.181 2.208.544a3.7 3.7 0 011.472 1.504c.352.63.528 1.344.528 2.144zm-1.504-.304c0-.555-.123-1.03-.368-1.424a2.313 2.313 0 00-1.008-.912 3.006 3.006 0 00-1.392-.32c-.736 0-1.365.235-1.888.704-.512.47-.805 1.12-.88 1.952h5.536zm5.202-2.544V21.6c0 .427.09.73.272.912.181.17.496.256.944.256h1.072V24h-1.312c-.811 0-1.419-.187-1.824-.56-.406-.373-.608-.987-.608-1.84v-5.168h-1.136v-1.2h1.136v-2.208h1.456v2.208h2.288v1.2h-2.288zm12.052 2.848c0 .277-.016.57-.048.88h-7.008c.053.864.347 1.541.88 2.032.544.48 1.2.72 1.968.72.629 0 1.152-.144 1.568-.432.427-.299.725-.693.896-1.184h1.568a3.81 3.81 0 01-1.408 2.064c-.704.523-1.579.784-2.624.784-.832 0-1.579-.187-2.24-.56A3.988 3.988 0 01127.92 22c-.373-.693-.56-1.493-.56-2.4 0-.907.181-1.701.544-2.384a3.781 3.781 0 011.52-1.568c.661-.373 1.419-.56 2.272-.56.832 0 1.568.181 2.208.544a3.7 3.7 0 011.472 1.504c.352.63.528 1.344.528 2.144zm-1.504-.304c0-.555-.123-1.03-.368-1.424a2.313 2.313 0 00-1.008-.912 3.006 3.006 0 00-1.392-.32c-.736 0-1.365.235-1.888.704-.512.47-.805 1.12-.88 1.952h5.536zm4.882-2.32a2.81 2.81 0 011.088-1.168c.48-.277 1.061-.416 1.744-.416v1.504h-.384c-1.632 0-2.448.885-2.448 2.656V24h-1.456v-8.768h1.456v1.424zm104.793-3.808v8.24c0 .917-.283 1.653-.848 2.208-.566.544-1.312.816-2.24.816-.939 0-1.691-.277-2.256-.832-.566-.565-.848-1.333-.848-2.304h1.456c.01.544.149.987.416 1.328.277.341.688.512 1.232.512s.949-.16 1.216-.48c.266-.33.4-.747.4-1.248v-8.24h1.472zm10.868 6.432c0 .277-.016.57-.048.88h-7.008c.053.864.347 1.541.88 2.032.544.48 1.2.72 1.968.72.629 0 1.152-.144 1.568-.432.427-.299.725-.693.896-1.184h1.568a3.81 3.81 0 01-1.408 2.064c-.704.523-1.579.784-2.624.784-.832 0-1.579-.187-2.24-.56A3.988 3.988 0 01246.959 22c-.373-.693-.56-1.493-.56-2.4 0-.907.181-1.701.544-2.384a3.781 3.781 0 011.52-1.568c.661-.373 1.419-.56 2.272-.56.832 0 1.568.181 2.208.544a3.7 3.7 0 011.472 1.504c.352.63.528 1.344.528 2.144zm-1.504-.304c0-.555-.123-1.03-.368-1.424a2.313 2.313 0 00-1.008-.912 3.006 3.006 0 00-1.392-.32c-.736 0-1.365.235-1.888.704-.512.47-.805 1.12-.88 1.952h5.536zm10.955 3.68l2.72-7.424h1.552L265.226 24h-1.696l-3.44-8.768h1.568l2.736 7.424zm13.705-3.376c0 .277-.016.57-.048.88h-7.008c.054.864.347 1.541.88 2.032.544.48 1.2.72 1.968.72.63 0 1.152-.144 1.568-.432.427-.299.726-.693.896-1.184h1.568a3.804 3.804 0 01-1.408 2.064c-.704.523-1.578.784-2.624.784-.832 0-1.578-.187-2.24-.56A4.001 4.001 0 01270.115 22c-.373-.693-.56-1.493-.56-2.4 0-.907.182-1.701.544-2.384a3.787 3.787 0 011.52-1.568c.662-.373 1.419-.56 2.272-.56.832 0 1.568.181 2.208.544a3.7 3.7 0 011.472 1.504c.352.63.528 1.344.528 2.144zm-1.504-.304c0-.555-.122-1.03-.368-1.424a2.313 2.313 0 00-1.008-.912 3.006 3.006 0 00-1.392-.32c-.736 0-1.365.235-1.888.704-.512.47-.805 1.12-.88 1.952h5.536zm11.202-3.744V24h-1.456v-1.296c-.277.448-.667.8-1.168 1.056a3.6 3.6 0 01-1.632.368c-.683 0-1.296-.139-1.84-.416a3.184 3.184 0 01-1.296-1.28c-.309-.565-.464-1.253-.464-2.064v-5.136h1.44v4.944c0 .864.219 1.53.656 2 .437.459 1.035.688 1.792.688.779 0 1.392-.24 1.84-.72.448-.48.672-1.179.672-2.096v-4.816h1.456zM294.831 24l-2.08-3.264-2 3.264h-1.52l2.832-4.352-2.832-4.416h1.648l2.08 3.248 1.984-3.248h1.52l-2.816 4.336L296.479 24h-1.648zm10.61-1.344l2.72-7.424h1.552L306.273 24h-1.696l-3.44-8.768h1.568l2.736 7.424zm13.705-3.376c0 .277-.016.57-.048.88h-7.008c.053.864.347 1.541.88 2.032.544.48 1.2.72 1.968.72.629 0 1.152-.144 1.568-.432.427-.299.725-.693.896-1.184h1.568a3.81 3.81 0 01-1.408 2.064c-.704.523-1.579.784-2.624.784-.832 0-1.579-.187-2.24-.56A3.988 3.988 0 01311.162 22c-.373-.693-.56-1.493-.56-2.4 0-.907.181-1.701.544-2.384a3.781 3.781 0 011.52-1.568c.661-.373 1.419-.56 2.272-.56.832 0 1.568.181 2.208.544a3.7 3.7 0 011.472 1.504c.352.63.528 1.344.528 2.144zm-1.504-.304c0-.555-.123-1.03-.368-1.424a2.313 2.313 0 00-1.008-.912 3.006 3.006 0 00-1.392-.32c-.736 0-1.365.235-1.888.704-.512.47-.805 1.12-.88 1.952h5.536zm7.698-3.904c1.067 0 1.931.325 2.592.976.661.64.992 1.568.992 2.784V24h-1.44v-4.96c0-.875-.219-1.541-.656-2-.437-.47-1.035-.704-1.792-.704-.768 0-1.381.24-1.84.72-.448.48-.672 1.179-.672 2.096V24h-1.456v-8.768h1.456v1.248a2.9 2.9 0 011.168-1.04 3.699 3.699 0 011.648-.368zm5.418 4.512c0-.896.182-1.68.544-2.352a3.956 3.956 0 011.488-1.584 4.178 4.178 0 012.144-.56c.683 0 1.318.16 1.904.48.587.31 1.035.72 1.344 1.232v-4.64h1.472V24h-1.472v-1.648c-.288.523-.714.955-1.28 1.296-.565.33-1.226.496-1.984.496a4.059 4.059 0 01-2.128-.576 4.045 4.045 0 01-1.488-1.616c-.362-.693-.544-1.483-.544-2.368zm7.424.016c0-.661-.133-1.237-.4-1.728a2.747 2.747 0 00-1.088-1.12 2.854 2.854 0 00-1.488-.4c-.544 0-1.04.128-1.488.384-.448.256-.805.63-1.072 1.12-.266.49-.4 1.067-.4 1.728 0 .672.134 1.259.4 1.76.267.49.624.87 1.072 1.136.448.256.944.384 1.488.384s1.04-.128 1.488-.384a2.857 2.857 0 001.088-1.136c.267-.501.4-1.083.4-1.744zm5.389-2.944a2.81 2.81 0 011.088-1.168c.48-.277 1.061-.416 1.744-.416v1.504h-.384c-1.632 0-2.448.885-2.448 2.656V24h-1.456v-8.768h1.456v1.424zm12.513 2.624c0 .277-.016.57-.048.88h-7.008c.053.864.346 1.541.88 2.032.544.48 1.2.72 1.968.72.629 0 1.152-.144 1.568-.432.426-.299.725-.693.896-1.184h1.568a3.81 3.81 0 01-1.408 2.064c-.704.523-1.579.784-2.624.784-.832 0-1.579-.187-2.24-.56A3.988 3.988 0 01348.1 22c-.374-.693-.56-1.493-.56-2.4 0-.907.181-1.701.544-2.384a3.775 3.775 0 011.52-1.568c.661-.373 1.418-.56 2.272-.56.832 0 1.568.181 2.208.544.64.363 1.13.864 1.472 1.504.352.63.528 1.344.528 2.144zm-1.504-.304c0-.555-.123-1.03-.368-1.424a2.324 2.324 0 00-1.008-.912 3.006 3.006 0 00-1.392-.32c-.736 0-1.366.235-1.888.704-.512.47-.806 1.12-.88 1.952h5.536z" fill="#fff"/><g clip-path="url(#clip1)"><path d="M122.691 202.658a4.294 4.294 0 01-3.71-2.131l-9.672-16.686a4.249 4.249 0 011.565-5.821 4.301 4.301 0 012.139-.572h1.764a7.847 7.847 0 00-2.862-3.809 7.9 7.9 0 00-4.546-1.46H94.222a22.93 22.93 0 01-16.153-6.676 22.736 22.736 0 01-6.7-16.086V64.83c0-1.985.792-3.888 2.201-5.29a7.53 7.53 0 015.313-2.192 7.53 7.53 0 015.313 2.191 7.466 7.466 0 012.201 5.29v84.564a7.784 7.784 0 002.294 5.509 7.85 7.85 0 005.531 2.284h13.117a22.982 22.982 0 0115.233 5.825 22.797 22.797 0 017.485 14.437h2.293a4.294 4.294 0 012.167.58 4.261 4.261 0 012.12 3.758 4.246 4.246 0 01-.63 2.143l-9.618 16.598a4.312 4.312 0 01-3.698 2.131z" fill="#fff"/><path d="M78.866 59.684a5.179 5.179 0 013.65 1.509 5.135 5.135 0 011.512 3.637v84.563a10.125 10.125 0 002.984 7.163 10.214 10.214 0 007.193 2.972h13.135a20.566 20.566 0 0114.436 5.932 20.392 20.392 0 016.065 14.33h4.516a1.928 1.928 0 011.928 1.92c.002.361-.1.715-.294 1.019l-9.642 16.627a1.927 1.927 0 01-1.67.96 1.925 1.925 0 01-1.669-.96l-9.678-16.685a1.916 1.916 0 01.706-2.623c.293-.169.625-.258.964-.258h4.515a10.132 10.132 0 00-3.049-7.044 10.22 10.22 0 00-7.128-2.909H94.194a20.57 20.57 0 01-14.492-5.988 20.394 20.394 0 01-6.01-14.432V64.83c0-1.364.544-2.672 1.512-3.637a5.179 5.179 0 013.65-1.51h.012zM78.854 55a9.899 9.899 0 00-6.974 2.883 9.815 9.815 0 00-2.891 6.947v84.563a25.076 25.076 0 007.389 17.743 25.292 25.292 0 0017.816 7.362h13.146a5.479 5.479 0 013.24 1.065 6.62 6.62 0 00-3.838 3.966 6.584 6.584 0 00.516 5.483l9.677 16.686a6.634 6.634 0 002.429 2.415 6.669 6.669 0 003.315.887 6.669 6.669 0 003.315-.887 6.637 6.637 0 002.43-2.415l9.612-16.574a6.578 6.578 0 00.098-6.66 6.62 6.62 0 00-2.432-2.457 6.661 6.661 0 00-3.345-.901h-.282a25.165 25.165 0 00-8.734-14.529 25.352 25.352 0 00-16.001-5.733H94.194a5.497 5.497 0 01-3.87-1.598 5.447 5.447 0 01-1.604-3.853V64.83a9.815 9.815 0 00-2.891-6.947A9.899 9.899 0 0078.854 55z" fill="#EA5B0D"/><path d="M122.691 199.356a.972.972 0 01-.835-.48l-9.672-16.685a.942.942 0 010-.96.961.961 0 01.835-.48h5.491v-.802a11.097 11.097 0 00-3.282-7.847 11.194 11.194 0 00-7.889-3.248H94.193a19.603 19.603 0 01-13.81-5.707 19.436 19.436 0 01-5.727-13.753V64.83a4.17 4.17 0 011.23-2.956 4.207 4.207 0 015.936 0 4.171 4.171 0 011.23 2.956v84.564c0 2.945 1.173 5.77 3.261 7.855a11.196 11.196 0 007.88 3.268h13.146a19.605 19.605 0 0113.811 5.707 19.443 19.443 0 015.727 13.754v.802h5.473a.97.97 0 01.84.478.956.956 0 01.001.962l-9.677 16.686a.966.966 0 01-.354.35.967.967 0 01-.481.13l.012-.03z" fill="#0E4D9F"/><path d="M78.866 61.61c.857 0 1.68.339 2.286.943.606.604.947 1.423.947 2.277v84.563a12.047 12.047 0 003.55 8.523 12.15 12.15 0 008.556 3.538h13.134a18.624 18.624 0 0113.128 5.422 18.475 18.475 0 015.446 13.072v1.757h6.437l-9.671 16.685-9.672-16.685h6.467v-1.757a12.037 12.037 0 00-3.549-8.52 12.14 12.14 0 00-8.556-3.534H94.222a18.641 18.641 0 01-13.128-5.426 18.48 18.48 0 01-5.444-13.075V64.83c0-.854.34-1.673.947-2.277a3.241 3.241 0 012.286-.943h-.017zm.017-1.926a5.179 5.179 0 00-3.65 1.509 5.136 5.136 0 00-1.512 3.637v84.563a20.396 20.396 0 006.01 14.433 20.57 20.57 0 0014.492 5.988h13.116a10.214 10.214 0 017.128 2.909 10.131 10.131 0 013.05 7.044h-4.51a1.935 1.935 0 00-1.674.957 1.915 1.915 0 00-.001 1.923l9.677 16.686a1.925 1.925 0 001.67.959 1.93 1.93 0 001.67-.959l9.642-16.627a1.916 1.916 0 00-.271-2.377 1.933 1.933 0 00-1.364-.562h-4.515a20.396 20.396 0 00-6.065-14.331 20.571 20.571 0 00-14.437-5.932H94.193A10.21 10.21 0 0187 156.532a10.123 10.123 0 01-2.984-7.162V64.83a5.136 5.136 0 00-1.512-3.637 5.179 5.179 0 00-3.65-1.51h.03z" fill="#fff"/></g><g clip-path="url(#clip2)"><path d="M258.309 202.658a4.288 4.288 0 01-3.704-2.131l-9.624-16.598a4.239 4.239 0 01-.084-4.307c.372-.66.914-1.21 1.571-1.592a4.29 4.29 0 012.164-.582h2.281a22.804 22.804 0 017.485-14.438 22.99 22.99 0 0115.233-5.824h13.146a7.85 7.85 0 005.532-2.284 7.786 7.786 0 002.294-5.509V64.83a7.463 7.463 0 012.126-5.43 7.51 7.51 0 012.464-1.678 7.549 7.549 0 018.318 1.678 7.463 7.463 0 012.125 5.43v84.563a22.74 22.74 0 01-6.703 16.087 22.942 22.942 0 01-16.156 6.676h-13.146a7.9 7.9 0 00-4.546 1.461 7.85 7.85 0 00-2.862 3.808h1.764a4.291 4.291 0 013.704 2.132 4.245 4.245 0 010 4.261l-9.672 16.686a4.287 4.287 0 01-1.565 1.571 4.318 4.318 0 01-2.145.583z" fill="#fff"/><path d="M302.135 59.684a5.184 5.184 0 013.652 1.509 5.138 5.138 0 011.515 3.637v84.563a20.397 20.397 0 01-6.013 14.433 20.574 20.574 0 01-14.494 5.988h-13.14a10.214 10.214 0 00-7.13 2.907 10.124 10.124 0 00-3.047 7.046h4.485a1.94 1.94 0 011.67.96 1.895 1.895 0 010 1.92l-9.671 16.686a1.935 1.935 0 01-.71.702 1.938 1.938 0 01-.966.258 1.949 1.949 0 01-1.67-.96l-9.642-16.627a1.919 1.919 0 011.635-2.928h4.515a20.4 20.4 0 016.069-14.33 20.577 20.577 0 0114.438-5.932h13.146a10.21 10.21 0 007.193-2.972 10.125 10.125 0 002.985-7.162V64.83c0-1.364.543-2.672 1.511-3.637a5.18 5.18 0 013.651-1.51h.018zM302.117 55a9.9 9.9 0 00-6.975 2.883 9.815 9.815 0 00-2.891 6.947v84.563a5.44 5.44 0 01-1.605 3.853 5.496 5.496 0 01-3.869 1.598h-13.14a25.352 25.352 0 00-16.004 5.731 25.154 25.154 0 00-8.736 14.531h-.277a6.652 6.652 0 00-3.347.897 6.609 6.609 0 00-2.435 2.458 6.579 6.579 0 00.103 6.663l9.607 16.574a6.622 6.622 0 002.427 2.418 6.654 6.654 0 006.634 0 6.622 6.622 0 002.427-2.418l9.678-16.686a6.585 6.585 0 00-.969-7.883 6.626 6.626 0 00-2.353-1.566 5.47 5.47 0 013.245-1.065h13.14a25.296 25.296 0 0017.819-7.362 25.08 25.08 0 007.392-17.743V64.83a9.822 9.822 0 00-2.894-6.948A9.906 9.906 0 00302.117 55z" fill="#EA5B0D"/><path d="M258.309 199.356a.98.98 0 01-.835-.48l-9.671-16.685a.942.942 0 010-.96.961.961 0 01.835-.48h5.474v-.802a19.433 19.433 0 015.727-13.754 19.601 19.601 0 0113.81-5.707h13.128a11.195 11.195 0 007.88-3.268 11.102 11.102 0 003.262-7.856V64.83c0-1.108.442-2.172 1.229-2.956a4.208 4.208 0 015.937 0 4.173 4.173 0 011.23 2.956v84.564a19.44 19.44 0 01-5.727 13.753 19.605 19.605 0 01-13.811 5.707h-13.146a11.192 11.192 0 00-7.888 3.248 11.097 11.097 0 00-3.283 7.847v.802h5.503a.966.966 0 01.835.48.952.952 0 010 .96l-9.677 16.685a.961.961 0 01-.812.48z" fill="#0E4D9F"/><path d="M302.134 61.61c.858 0 1.68.339 2.287.943.606.604.947 1.423.947 2.277v84.563a18.482 18.482 0 01-5.445 13.075 18.64 18.64 0 01-13.128 5.426h-13.146a12.144 12.144 0 00-8.557 3.534 12.042 12.042 0 00-3.549 8.52v1.757h6.467l-9.677 16.685-9.672-16.685h6.438v-1.757a18.474 18.474 0 015.445-13.072 18.626 18.626 0 0113.128-5.422h13.105a12.149 12.149 0 008.557-3.538 12.044 12.044 0 003.549-8.523V64.83c0-.854.341-1.673.947-2.277a3.242 3.242 0 012.287-.943h.017zm-.023-1.926a5.18 5.18 0 00-3.651 1.509 5.135 5.135 0 00-1.511 3.637v84.563a10.125 10.125 0 01-2.985 7.163 10.206 10.206 0 01-7.192 2.971h-13.147a20.578 20.578 0 00-14.434 5.934 20.402 20.402 0 00-6.067 14.329h-4.51a1.935 1.935 0 00-1.674.958 1.92 1.92 0 00-.001 1.923l9.677 16.685a1.939 1.939 0 001.67.96 1.935 1.935 0 001.67-.96l9.642-16.627a1.908 1.908 0 00-.271-2.376 1.929 1.929 0 00-1.364-.563h-4.515a10.129 10.129 0 013.05-7.044 10.218 10.218 0 017.127-2.909h13.152a20.568 20.568 0 0014.492-5.988 20.394 20.394 0 006.01-14.432V64.83a5.136 5.136 0 00-1.512-3.637 5.179 5.179 0 00-3.65-1.51h-.006z" fill="#fff"/></g><g clip-path="url(#clip3)"><path d="M332.509 385.367c-2.614-.938-6.067-1.452-9.729-1.452-3.661 0-7.117.514-9.732 1.452-3.751 1.342-4.539 3.066-4.539 4.276v21.099c-.678-.71-1.784-1.431-3.569-2.07-2.614-.934-6.071-1.449-9.732-1.449-3.662 0-7.115.515-9.729 1.449-3.754 1.346-4.539 3.07-4.539 4.279v19.994a.973.973 0 00.044.278c.396 3.117 7.421 4.968 14.224 4.968a34.608 34.608 0 008.218-.947c.128.142.262.296.399.417a11.892 11.892 0 003.895 2.554c1.456.587 3.014.882 4.585.868.362 0 .734 0 1.1-.045 2.164-.194 4.249-.9 6.083-2.058a13.596 13.596 0 004.461-4.598c6.413-.198 12.674-2.011 13.046-4.948a.96.96 0 00.044-.277v-39.514c.009-1.21-.785-2.925-4.53-4.276zm-20.196 54.749h.271-.271z" fill="#EA5B0D"/><path d="M322.78 383.914c3.662 0 7.115.514 9.729 1.452 3.754 1.342 4.539 3.066 4.539 4.276v39.517a.973.973 0 01-.044.278c-.372 2.936-6.633 4.749-13.046 4.947a13.615 13.615 0 01-4.461 4.598 13.725 13.725 0 01-6.083 2.059 14.03 14.03 0 01-1.101.044 11.923 11.923 0 01-8.479-3.421 10.426 10.426 0 01-.399-.417c-2.691.643-5.451.96-8.218.946-6.803 0-13.828-1.851-14.224-4.968a.973.973 0 01-.044-.278v-19.994c0-1.209.785-2.933 4.539-4.279 2.614-.934 6.067-1.449 9.729-1.449 3.661 0 7.117.515 9.732 1.449 1.785.636 2.882 1.358 3.569 2.07v-21.099c0-1.21.788-2.934 4.539-4.276 2.615-.938 6.071-1.452 9.732-1.452l-.009-.003zm-10.475 56.189h.288-.297.009zm10.475-62.1c-4.393 0-8.456.621-11.746 1.8-2.676.959-4.678 2.215-6.121 3.845a8.958 8.958 0 00-2.353 6v12.305a40.62 40.62 0 00-7.343-.636c-4.393 0-8.453.621-11.746 1.801-2.677.958-4.679 2.215-6.121 3.844a8.947 8.947 0 00-2.35 6v19.994c0 .482.052.963.155 1.434.476 2.662 2.418 6.104 8.721 8.123 3.218 1.035 7.245 1.603 11.341 1.603 2.174 0 4.346-.164 6.496-.491a17.96 17.96 0 0010.6 3.383c.53 0 1.068-.02 1.601-.068a19.563 19.563 0 0013.233-6.831 33.497 33.497 0 007.575-1.585c5.839-2.046 7.662-5.355 8.12-7.919.103-.472.155-.954.155-1.437v-39.526a8.957 8.957 0 00-2.35-6c-1.442-1.627-3.444-2.883-6.121-3.844-3.293-1.183-7.353-1.801-11.746-1.801v.006z" fill="#fff"/><path d="M332.509 385.367c-2.614-.938-6.067-1.452-9.729-1.452-3.661 0-7.117.514-9.732 1.452-3.751 1.342-4.539 3.066-4.539 4.276v21.099c-.678-.71-1.784-1.431-3.569-2.07-2.614-.934-6.071-1.449-9.732-1.449-3.662 0-7.115.515-9.729 1.449-3.754 1.346-4.539 3.07-4.539 4.279v19.994a.973.973 0 00.044.278c.396 3.117 7.421 4.968 14.224 4.968a34.608 34.608 0 008.218-.947c.128.142.262.296.399.417a11.892 11.892 0 003.895 2.554c1.456.587 3.014.882 4.585.868.362 0 .734 0 1.1-.045 2.164-.194 4.249-.9 6.083-2.058a13.596 13.596 0 004.461-4.598c6.413-.198 12.674-2.011 13.046-4.948a.96.96 0 00.044-.277v-39.514c.009-1.21-.785-2.925-4.53-4.276zm-20.196 54.749h.271-.271z" fill="#fff"/><path d="M322.78 383.915c3.662 0 7.115.514 9.729 1.451 3.754 1.343 4.539 3.067 4.539 4.277v39.516a.967.967 0 01-.044.278c-.372 2.937-6.633 4.75-13.046 4.948a13.612 13.612 0 01-4.461 4.597 13.7 13.7 0 01-6.083 2.059c-.366.03-.738.045-1.101.045a11.976 11.976 0 01-4.584-.868 11.892 11.892 0 01-3.895-2.554 10.426 10.426 0 01-.399-.417 34.614 34.614 0 01-8.218.947c-6.803 0-13.828-1.852-14.224-4.968a.973.973 0 01-.044-.278v-19.994c0-1.209.785-2.933 4.539-4.279 2.614-.934 6.067-1.449 9.729-1.449 3.661 0 7.117.515 9.732 1.449 1.785.636 2.882 1.357 3.569 2.07v-21.099c0-1.21.788-2.934 4.539-4.277 2.615-.937 6.071-1.452 9.732-1.452l-.009-.002zm-10.475 56.189h.288-.297.009zm10.475-59.439c-4.03 0-7.879.591-10.838 1.644-2.243.801-3.885 1.815-5.021 3.096a6.342 6.342 0 00-1.684 4.241v15.702c-2.834-.887-6.353-1.369-10.02-1.369-4.028 0-7.879.591-10.839 1.644-2.242.802-3.884 1.816-5.021 3.096a6.335 6.335 0 00-1.68 4.241v19.994c.001.31.036.619.104.922.949 5.586 9.94 7.576 17.436 7.576a39.752 39.752 0 007.213-.65 15.254 15.254 0 009.883 3.548c.456 0 .92-.017 1.378-.056a16.92 16.92 0 006.766-2.077 16.84 16.84 0 005.312-4.656 32.056 32.056 0 008.064-1.544c2.626-.92 5.83-2.688 6.38-5.914.071-.303.107-.612.107-.923v-39.537a6.333 6.333 0 00-1.68-4.241c-1.137-1.28-2.778-2.295-5.021-3.096-2.96-1.062-6.811-1.644-10.839-1.644v.003z" fill="#EA5B0D"/><path d="M308.509 412.957h-26.585v19.994h26.585v-19.994z" fill="#0E4D9F"/><path d="M308.973 432.947c0 2.629-6.16 4.761-13.756 4.761-7.597 0-13.754-2.132-13.754-4.761" fill="#0E4D9F"/><path d="M309.485 412.954a.97.97 0 00-.604-.897.982.982 0 00-.375-.073h-26.585a.973.973 0 00-.975.97v19.993a.967.967 0 00.044.278c.396 3.117 7.421 4.968 14.224 4.968 6.802 0 13.828-1.851 14.223-4.968a.933.933 0 00.048-.278v-19.993zm-1.003 19.993c0 1.035-1.35 2.094-3.703 2.907-2.546.887-5.948 1.369-9.565 1.369-3.617 0-7.017-.487-9.566-1.369-2.352-.813-3.7-1.872-3.7-2.907a.46.46 0 00-.027-.147v-19.846h26.585V432.8a.522.522 0 00-.021.147h-.003z" fill="#fff"/><path d="M295.217 417.715c7.341 0 13.292-2.13 13.292-4.758s-5.951-4.758-13.292-4.758-13.293 2.13-13.293 4.758 5.952 4.758 13.293 4.758z" fill="#0E4D9F"/><path d="M295.208 408.196c7.341 0 13.292 2.129 13.292 4.758s-5.948 4.761-13.292 4.761c-7.344 0-13.293-2.132-13.293-4.761s5.949-4.758 13.293-4.758zm0-.97c-3.662 0-7.115.515-9.729 1.449-3.754 1.346-4.539 3.07-4.539 4.279 0 1.21.785 2.937 4.539 4.279 2.614.938 6.067 1.452 9.729 1.452 3.661 0 7.118-.514 9.732-1.452 3.751-1.342 4.539-3.066 4.539-4.279 0-1.212-.788-2.933-4.539-4.279-2.614-.934-6.071-1.449-9.732-1.449z" fill="#fff"/><path d="M295.208 423.916c-7.002 0-14.241-1.963-14.241-5.246a.484.484 0 01.831-.342.486.486 0 01.144.342c0 1.035 1.348 2.094 3.7 2.907 2.549.887 5.949 1.366 9.566 1.366 3.617 0 7.019-.485 9.565-1.366 2.353-.813 3.704-1.872 3.704-2.907a.484.484 0 01.831-.342.486.486 0 01.144.342c.009 3.283-7.234 5.246-14.244 5.246z" fill="#fff"/><path d="M295.208 428.674c-7.002 0-14.241-1.96-14.241-5.243a.474.474 0 01.141-.345.495.495 0 01.346-.143.493.493 0 01.488.488c0 1.032 1.348 2.091 3.7 2.907 2.549.887 5.949 1.366 9.566 1.366 3.617 0 7.019-.485 9.565-1.366 2.353-.816 3.704-1.875 3.704-2.907a.495.495 0 01.141-.345.495.495 0 01.346-.143.493.493 0 01.488.488c.009 3.283-7.234 5.243-14.244 5.243z" fill="#fff"/><path d="M295.208 433.441c-7.002 0-14.241-1.963-14.241-5.246a.478.478 0 01.3-.448.491.491 0 01.532.105.483.483 0 01.143.343c0 1.032 1.348 2.094 3.7 2.907 2.549.887 5.949 1.367 9.566 1.367 3.617 0 7.019-.485 9.565-1.367 2.353-.813 3.704-1.875 3.704-2.907a.476.476 0 01.3-.448.491.491 0 01.532.105.483.483 0 01.143.343c.009 3.277-7.234 5.246-14.244 5.246z" fill="#fff"/><path d="M336.073 409.166h-26.585v19.993h26.585v-19.993zm.461 19.993c0 2.629-6.157 4.761-13.754 4.761-7.596 0-13.756-2.132-13.756-4.761" fill="#0E4D9F"/><path d="M337.048 409.166a.96.96 0 00-.285-.686.975.975 0 00-.69-.284h-26.588a.968.968 0 00-.979.97v19.993a.938.938 0 00.048.278c.395 3.117 7.421 4.968 14.223 4.968 6.803 0 13.828-1.851 14.224-4.968a.967.967 0 00.044-.278l.003-19.993zm-1.002 19.993c0 1.035-1.347 2.094-3.7 2.907-2.549.887-5.949 1.366-9.566 1.366-3.617 0-7.019-.484-9.565-1.366-2.353-.813-3.703-1.872-3.703-2.907a.533.533 0 00-.024-.148v-19.845h26.585v19.84a.497.497 0 00-.027.153z" fill="#fff"/><path d="M322.78 413.924c7.341 0 13.293-2.13 13.293-4.758s-5.952-4.758-13.293-4.758c-7.341 0-13.292 2.13-13.292 4.758s5.951 4.758 13.292 4.758z" fill="#0E4D9F"/><path d="M322.78 404.407c7.341 0 13.293 2.13 13.293 4.759 0 2.628-5.949 4.761-13.293 4.761-7.343 0-13.292-2.133-13.292-4.761 0-2.629 5.949-4.759 13.292-4.759zm0-.969c-3.661 0-7.117.514-9.732 1.448-3.751 1.346-4.539 3.07-4.539 4.28 0 1.209.788 2.936 4.539 4.279 2.615.937 6.071 1.452 9.732 1.452 3.662 0 7.115-.515 9.729-1.452 3.754-1.343 4.539-3.067 4.539-4.279 0-1.213-.785-2.934-4.539-4.28-2.614-.934-6.067-1.448-9.729-1.448z" fill="#fff"/><path d="M322.78 420.134c-7.001 0-14.244-1.964-14.244-5.246a.487.487 0 01.675-.449.48.48 0 01.301.449c0 1.035 1.35 2.093 3.703 2.907 2.546.887 5.948 1.366 9.565 1.366 3.617 0 7.017-.485 9.566-1.366 2.353-.814 3.7-1.872 3.7-2.907a.487.487 0 01.675-.449.48.48 0 01.301.449c0 3.276-7.24 5.246-14.242 5.246z" fill="#fff"/><path d="M322.78 424.886c-7.001 0-14.244-1.96-14.244-5.246a.492.492 0 01.833-.343.487.487 0 01.143.343c0 1.035 1.35 2.094 3.703 2.907 2.546.887 5.948 1.369 9.565 1.369 3.617 0 7.017-.488 9.566-1.369 2.353-.813 3.7-1.872 3.7-2.907a.492.492 0 01.833-.343.487.487 0 01.143.343c0 3.286-7.24 5.246-14.242 5.246z" fill="#fff"/><path d="M322.78 429.644c-7.001 0-14.244-1.961-14.244-5.243a.487.487 0 01.675-.449.48.48 0 01.301.449c0 1.032 1.35 2.094 3.703 2.907 2.546.887 5.948 1.366 9.565 1.366 3.617 0 7.017-.485 9.566-1.366 2.353-.813 3.7-1.875 3.7-2.907a.487.487 0 01.675-.449.48.48 0 01.301.449c0 3.282-7.24 5.243-14.242 5.243z" fill="#fff"/><path d="M336.073 389.646h-26.585v19.993h26.585v-19.993z" fill="#0E4D9F"/><path d="M336.534 409.636c0 2.629-6.157 4.761-13.754 4.761-7.596 0-13.756-2.132-13.756-4.761" fill="#0E4D9F"/><path d="M337.048 389.642a.967.967 0 00-.975-.97h-26.588a.993.993 0 00-.692.283.972.972 0 00-.287.687v19.994a.944.944 0 00.048.278c.395 3.117 7.421 4.968 14.223 4.968 6.803 0 13.828-1.851 14.224-4.968a.973.973 0 00.044-.278l.003-19.994zm-1.002 19.994c0 1.035-1.347 2.094-3.7 2.907-2.549.887-5.949 1.369-9.566 1.369-3.617 0-7.019-.485-9.565-1.369-2.353-.813-3.703-1.872-3.703-2.907a.533.533 0 00-.024-.148v-19.846h26.585v19.846a.467.467 0 00-.027.148z" fill="#fff"/><path d="M322.78 394.403c7.341 0 13.293-2.13 13.293-4.758s-5.952-4.758-13.293-4.758c-7.341 0-13.292 2.13-13.292 4.758s5.951 4.758 13.292 4.758z" fill="#0E4D9F"/><path d="M322.78 384.885c7.341 0 13.293 2.132 13.293 4.758s-5.949 4.761-13.293 4.761c-7.343 0-13.292-2.132-13.292-4.761s5.949-4.758 13.292-4.758zm0-.97c-3.661 0-7.117.514-9.732 1.452-3.751 1.342-4.539 3.066-4.539 4.276 0 1.209.788 2.936 4.539 4.279 2.615.937 6.071 1.452 9.732 1.452 3.662 0 7.115-.515 9.729-1.452 3.754-1.343 4.539-3.067 4.539-4.279 0-1.213-.785-2.934-4.539-4.276-2.614-.938-6.067-1.452-9.729-1.452z" fill="#fff"/><path d="M322.78 400.617c-7.001 0-14.244-1.964-14.244-5.246a.492.492 0 01.833-.343.485.485 0 01.143.343c0 1.035 1.35 2.093 3.703 2.907 2.546.887 5.948 1.366 9.565 1.366 3.617 0 7.017-.485 9.566-1.366 2.353-.814 3.7-1.872 3.7-2.907a.492.492 0 01.833-.343.485.485 0 01.143.343c0 3.27-7.24 5.246-14.242 5.246z" fill="#fff"/><path d="M322.78 405.363c-7.001 0-14.244-1.961-14.244-5.243a.49.49 0 01.939-.187.48.48 0 01.037.187c0 1.032 1.35 2.09 3.703 2.907 2.546.887 5.948 1.366 9.565 1.366 3.617 0 7.017-.485 9.566-1.366 2.353-.817 3.7-1.875 3.7-2.907a.49.49 0 01.939-.187.48.48 0 01.037.187c0 3.282-7.24 5.243-14.242 5.243z" fill="#fff"/><path d="M322.78 410.124c-7.001 0-14.244-1.964-14.244-5.246a.487.487 0 01.675-.449.48.48 0 01.301.449c0 1.035 1.35 2.094 3.703 2.907 2.546.887 5.948 1.366 9.565 1.366 3.617 0 7.017-.485 9.566-1.366 2.353-.813 3.7-1.872 3.7-2.907a.487.487 0 01.675-.449.48.48 0 01.301.449c0 3.282-7.24 5.246-14.242 5.246z" fill="#fff"/><path d="M324.83 427.231c.27 6.544-4.875 12.302-11.496 12.855-6.621.553-11.99-4.332-11.99-10.915 0-6.583 5.149-12.337 11.499-12.855 6.35-.517 11.716 4.353 11.987 10.915z" fill="#0E4D9F"/><path d="M313.762 416.263c5.949 0 10.812 4.731 11.068 10.942.27 6.544-4.875 12.301-11.496 12.854-.345.03-.684.045-1.021.045-6.145 0-10.969-4.732-10.969-10.96 0-6.582 5.149-12.337 11.499-12.854.297-.027.616-.039.919-.039v.012zm0-.982c-.33 0-.666 0-.999.042-6.841.556-12.395 6.757-12.395 13.821a11.863 11.863 0 003.466 8.52 11.892 11.892 0 003.895 2.554c1.456.587 3.014.882 4.584.868.363 0 .735 0 1.101-.045 7.138-.591 12.683-6.801 12.391-13.866a12.517 12.517 0 00-3.691-8.46 11.84 11.84 0 00-8.352-3.422v-.012z" fill="#fff"/><path d="M317.084 431.735a4.062 4.062 0 01-1.362 1.384 5.467 5.467 0 01-2.136.778v1.319l-1.038.124v-1.319c-1.148.041-2.073-.189-2.775-.692-.705-.503-1.076-1.257-1.121-2.265l2.954-.346c.065.637.379 1.013.942 1.129v-2.546a14.94 14.94 0 01-2.022-.39 2.884 2.884 0 01-1.321-.831c-.38-.408-.568-1.006-.568-1.792a3.241 3.241 0 011.095-2.481 5.498 5.498 0 012.816-1.319v-1.304l1.038-.119v1.305c1.137-.042 2.035.184 2.695.677.661.493 1.029 1.237 1.107 2.232l-2.975.343a1.063 1.063 0 00-.829-1.029v2.493c.7.103 1.395.242 2.082.417.5.147.951.426 1.305.808.416.487.623 1.116.577 1.753a3.302 3.302 0 01-.464 1.671zm-5.258-5.282c.206.188.453.326.722.403v-2.239c-.274.071-.522.22-.713.429a1.103 1.103 0 00-.259.76.856.856 0 00.25.647zm2.531 4.827c.192-.219.298-.5.297-.79a.83.83 0 00-.267-.654 1.892 1.892 0 00-.789-.363v2.283a1.5 1.5 0 00.759-.476z" fill="#fff"/></g><g clip-path="url(#clip4)"><path d="M137.636 270.653a4.844 4.844 0 01-3.047-1.075 4.762 4.762 0 01-1.673-2.741l-6.743-33.086a4.734 4.734 0 01.201-2.595 4.78 4.78 0 011.547-2.104c.265-.2 6.565-5.052 17.821-10.456a149.808 149.808 0 0115.456-6.364 152.847 152.847 0 0150.212-8.462 4.841 4.841 0 013.116 1.131l28.831 24.242a4.752 4.752 0 011.701 3.639v26.9a4.743 4.743 0 01-1.068 2.993 4.821 4.821 0 01-2.728 1.667l-28.831 6.201c-.336.073-.678.11-1.021.11h-73.774z" fill="#EA5B0D"/><path d="M211.41 208.54l28.831 24.243v26.899l-28.831 6.201h-73.774l-6.719-33.086s6.025-4.675 16.959-9.922a144.409 144.409 0 0114.955-6.154 148.13 148.13 0 0148.579-8.181zm0-9.54a157.642 157.642 0 00-51.763 8.687 154.493 154.493 0 00-15.971 6.573c-11.728 5.629-18.418 10.781-18.698 10.971a9.546 9.546 0 00-3.097 4.204 9.456 9.456 0 00-.409 5.189l6.743 33.086a9.524 9.524 0 003.341 5.502 9.695 9.695 0 006.104 2.159h73.75a9.805 9.805 0 002.042-.219l28.831-6.202a9.64 9.64 0 005.456-3.334 9.483 9.483 0 002.135-5.987V232.74a9.461 9.461 0 00-.878-4.005 9.56 9.56 0 00-2.493-3.27l-28.832-24.199A9.688 9.688 0 00211.41 199z" fill="#fff"/><path d="M136.061 267.791l-7.268-35.777.963-.725c.251-.195 6.31-4.861 17.306-10.136a146.83 146.83 0 0115.152-6.24 149.828 149.828 0 0149.225-8.271h.708l30.05 25.282v29.313l-30.575 6.554h-75.561z" fill="#fff"/><path d="M211.41 208.54l28.831 24.243v26.899l-28.831 6.201h-73.774l-6.719-33.086s6.025-4.675 16.959-9.922a144.188 144.188 0 0114.955-6.154 148.104 148.104 0 0148.579-8.181zm1.416-3.816h-1.416a151.7 151.7 0 00-49.855 8.381 147.614 147.614 0 00-15.365 6.321c-11.174 5.362-17.392 10.151-17.652 10.351l-1.869 1.431.482 2.304 6.743 33.087.621 3.067h77.348l.404-.091 28.832-6.201 3.034-.649v-31.712l-1.358-1.14-28.832-24.243-1.079-.906h-.038z" fill="#EA5B0D"/><path d="M211.41 266.651a.798.798 0 01-.699-.446.769.769 0 01-.077-.336v-57.328a.784.784 0 01.482-.711.791.791 0 01.843.114l28.831 24.243a.761.761 0 01.28.596v26.899a.783.783 0 01-.622.763l-28.831 6.202a.684.684 0 01-.207.004z" fill="#0E4D9F"/><path d="M211.41 208.541l28.831 24.242v26.899l-28.831 6.201v-57.342zm0-1.57c-.23 0-.457.05-.665.148a1.55 1.55 0 00-.915 1.431v57.333c0 .415.166.813.463 1.107a1.588 1.588 0 001.454.42l28.831-6.202c.353-.075.668-.267.894-.545.226-.278.349-.624.349-.981v-26.89a1.566 1.566 0 00-.554-1.197l-28.831-24.242a1.601 1.601 0 00-1.026-.372v-.01z" fill="#fff"/><path d="M137.636 266.651a.806.806 0 01-.501-.178.783.783 0 01-.274-.452l-6.743-33.086a.784.784 0 01.289-.773c.062-.043 6.218-4.77 17.103-10.017 4.89-2.347 9.91-4.417 15.037-6.201a148.643 148.643 0 0148.863-8.186.785.785 0 01.79.782v57.343a.776.776 0 01-.232.553.792.792 0 01-.558.229l-73.774-.014z" fill="#0E4D9F"/><path d="M211.41 208.54v57.343h-73.774l-6.719-33.086s6.025-4.675 16.959-9.922a144.188 144.188 0 0114.955-6.154 148.104 148.104 0 0148.579-8.181zm0-1.569a149.431 149.431 0 00-49.128 8.257 145.482 145.482 0 00-15.124 6.201c-10.957 5.248-16.992 9.903-17.243 10.099a1.557 1.557 0 00-.578 1.541l6.719 33.086c.072.355.266.674.549.903.283.23.637.355 1.002.356h73.803c.419 0 .821-.165 1.117-.458a1.56 1.56 0 00.463-1.107V208.54a1.562 1.562 0 00-.974-1.45 1.592 1.592 0 00-.606-.119z" fill="#fff"/><path d="M131 233h80v-10h-63.184s-11.589 5.738-16.816 10zm10.74 54.23a15.994 15.994 0 01-11.253-4.616 15.688 15.688 0 01-4.661-11.145c0-4.18 1.677-8.189 4.661-11.144a15.991 15.991 0 0111.253-4.617h90.549c4.221 0 8.268 1.661 11.253 4.617a15.684 15.684 0 014.661 11.144c0 4.18-1.677 8.189-4.661 11.145a15.996 15.996 0 01-11.253 4.616H141.74z" fill="#EA5B0D"/><path d="M232.28 260.478a11.15 11.15 0 017.846 3.219 10.937 10.937 0 013.251 7.772c0 2.915-1.169 5.71-3.251 7.771a11.147 11.147 0 01-7.846 3.22h-90.55a11.15 11.15 0 01-7.847-3.22 10.936 10.936 0 01-3.25-7.771 10.94 10.94 0 013.25-7.772 11.153 11.153 0 017.847-3.219h90.55zm0-9.54h-90.55a20.831 20.831 0 00-14.658 6.013A20.433 20.433 0 00121 271.469a20.433 20.433 0 006.072 14.518A20.831 20.831 0 00141.73 292h90.55c5.497 0 10.77-2.163 14.658-6.013a20.433 20.433 0 006.072-14.518 20.433 20.433 0 00-6.072-14.518 20.835 20.835 0 00-14.658-6.013z" fill="#fff"/><path d="M141.74 284.368a13.087 13.087 0 01-9.209-3.778 12.835 12.835 0 01-3.815-9.121c0-3.421 1.372-6.702 3.815-9.121a13.087 13.087 0 019.209-3.778h90.549c3.454 0 6.767 1.359 9.209 3.778a12.835 12.835 0 013.815 9.121c0 3.421-1.372 6.702-3.815 9.121a13.087 13.087 0 01-9.209 3.778H141.74z" fill="#fff"/><path d="M232.28 260.479a11.15 11.15 0 017.846 3.219 10.933 10.933 0 013.251 7.771c0 2.915-1.169 5.711-3.251 7.772a11.15 11.15 0 01-7.846 3.219h-90.55a11.153 11.153 0 01-7.847-3.219 10.938 10.938 0 01-3.25-7.772c0-2.915 1.169-5.71 3.25-7.771a11.153 11.153 0 017.847-3.219h90.55zm0-3.816h-90.55c-3.965 0-7.768 1.56-10.571 4.336a14.734 14.734 0 00-4.379 10.47c0 3.927 1.575 7.693 4.379 10.47a15.021 15.021 0 0010.571 4.337h90.55c3.965 0 7.767-1.56 10.571-4.337a14.734 14.734 0 004.379-10.47c0-3.927-1.575-7.693-4.379-10.47a15.026 15.026 0 00-10.571-4.336z" fill="#EA5B0D"/><path d="M141.74 283.242c-3.153 0-6.176-1.24-8.406-3.448a11.718 11.718 0 01-3.481-8.325c0-3.122 1.252-6.117 3.481-8.325a11.951 11.951 0 018.406-3.448h90.549c3.153 0 6.176 1.241 8.406 3.448a11.718 11.718 0 013.481 8.325c0 3.122-1.252 6.117-3.481 8.325a11.947 11.947 0 01-8.406 3.448H141.74z" fill="#fff"/><path d="M232.28 260.478a11.15 11.15 0 017.846 3.219 10.935 10.935 0 013.251 7.772c0 2.915-1.169 5.71-3.251 7.771a11.15 11.15 0 01-7.846 3.219h-90.55a11.153 11.153 0 01-7.847-3.219 10.936 10.936 0 01-3.25-7.771c0-2.915 1.169-5.711 3.25-7.772a11.153 11.153 0 017.847-3.219h90.55zm0-1.564h-90.55a12.739 12.739 0 00-8.964 3.677 12.495 12.495 0 00-3.713 8.878c0 3.33 1.336 6.523 3.713 8.878a12.743 12.743 0 008.964 3.677h90.55c3.362 0 6.586-1.323 8.963-3.677a12.494 12.494 0 003.714-8.878c0-3.33-1.336-6.524-3.714-8.878a12.735 12.735 0 00-8.963-3.677z" fill="#fff"/><g clip-path="url(#clip5)"><path d="M150.166 225.267v6.429h-1.212l-2.742-4.773v4.773H145v-6.429h1.584l2.37 4.061v-4.061h1.212zm5.565 3.812v.373c-.013.107-.013.196-.013.285-.013.089-.013.178-.013.25h-3.715a.728.728 0 00.386.48c.2.107.493.161.879.161h.253c.106-.018.213-.018.333-.018.106-.018.226-.018.359-.018.12-.018.24-.018.36-.018l.878-.053v.98l-.759.16c-.213.035-.452.071-.705.107-.253.035-.493.035-.719.035-.466 0-.866-.018-1.185-.089a1.696 1.696 0 01-.786-.338 1.412 1.412 0 01-.426-.713c-.093-.302-.133-.694-.133-1.175 0-.481.04-.873.133-1.176.08-.302.227-.552.426-.712.2-.178.466-.303.786-.356a7.323 7.323 0 011.185-.089c.373 0 .719.036 1.025.089.293.053.559.16.772.303.213.16.386.356.506.605.107.25.173.552.173.926v.001zm-1.265-.09v-.195a.691.691 0 00-.053-.161.305.305 0 00-.173-.142c-.08-.036-.2-.072-.359-.089a5.461 5.461 0 00-.626-.036c-.413 0-.719.053-.919.16-.2.107-.319.285-.36.534h2.49v-.071zm3.782 2.814c-.333 0-.613-.018-.866-.089a1.237 1.237 0 01-.625-.338c-.174-.178-.293-.41-.387-.713-.079-.302-.12-.694-.12-1.175v-2.244h1.212v2.244c0 .178.027.321.053.445.027.107.08.196.134.268a.6.6 0 00.252.16c.094.017.213.035.347.035h.226c.08 0 .147-.018.226-.018.067-.017.16-.017.24-.035.093 0 .2-.018.333-.036v-3.063h1.212v4.256c-.174.036-.333.072-.506.107-.16.036-.333.071-.507.089-.186.036-.372.053-.572.089-.2.018-.413.018-.652.018zm5.285-3.864v1.246h-1.211v2.511h-1.225v-3.205c0-.552.026-1.033.093-1.443.053-.41.173-.748.373-1.033.186-.267.453-.481.812-.623.346-.125.812-.196 1.398-.196h.333v1.282h-.346c-.28 0-.519.036-.693.107a1.122 1.122 0 00-.426.303 1.407 1.407 0 00-.226.463c-.04.178-.066.374-.08.588h1.198zm3.995 3.757l-1.891-4.773v4.773h-1.212v-6.429h1.665l1.757 4.417 1.771-4.417h1.651v6.429h-1.212v-4.773l-1.89 4.773h-.639zm6.816-4.541c.48 0 .866.036 1.185.089.32.053.586.178.786.356.2.16.346.41.426.712.093.303.133.695.133 1.176s-.04.873-.133 1.175c-.08.303-.226.535-.426.713-.2.16-.466.285-.786.338-.319.071-.705.089-1.185.089-.465 0-.865-.018-1.184-.089a1.646 1.646 0 01-.773-.338 1.412 1.412 0 01-.426-.713c-.093-.302-.133-.694-.133-1.175 0-.481.04-.873.133-1.176.08-.302.227-.552.426-.712.2-.178.453-.303.773-.356a7.32 7.32 0 011.184-.089zm0 3.241c.254 0 .453-.018.613-.035.16-.018.293-.054.386-.125.093-.053.147-.16.186-.267a1.63 1.63 0 00.054-.481c0-.214-.014-.374-.054-.499-.039-.124-.093-.213-.186-.267-.093-.071-.226-.107-.386-.142-.16-.018-.359-.018-.613-.018-.239 0-.452 0-.612.018-.16.035-.28.071-.373.142a.45.45 0 00-.199.267 2.23 2.23 0 000 .98c.04.107.106.214.199.267.093.071.213.107.373.125.16.017.373.035.612.035zm4.301-3.241l-1.225.41v4.131h1.225v-4.541zm-.053-1.407a.72.72 0 01-.054.285c-.026.089-.066.16-.106.232a.58.58 0 01-.186.16.32.32 0 01-.213.071.317.317 0 01-.213-.071.572.572 0 01-.187-.16c-.04-.072-.08-.143-.106-.232a.72.72 0 01-.054-.285c0-.107.014-.196.054-.285.026-.089.066-.178.106-.249.053-.054.12-.107.187-.161a.437.437 0 01.213-.053.44.44 0 01.213.053c.066.054.133.107.186.161.04.071.08.16.106.249.04.089.054.178.054.285zm3.595 1.407c.479 0 .865.036 1.185.089.332.053.585.178.785.356.2.16.346.41.426.712.093.303.133.695.133 1.176v2.209h-1.291v-2.209a1.69 1.69 0 00-.053-.499.43.43 0 00-.066-.157.373.373 0 00-.121-.11c-.093-.071-.226-.107-.386-.142-.16-.018-.359-.018-.612-.018h-.307c-.119.018-.239.018-.372.018-.12.018-.267.035-.4.035-.133.018-.266.018-.386.036v3.045h-1.212v-4.452h.879l.147.232c.173-.09.412-.179.705-.232.313-.059.629-.089.946-.089zm7.402 3.259c0 .267-.04.481-.119.659a.879.879 0 01-.427.445 2.105 2.105 0 01-.785.232c-.32.053-.719.053-1.198.053-.187 0-.373-.018-.573-.035-.186-.036-.359-.054-.532-.09-.174-.017-.32-.053-.467-.071-.133-.035-.239-.053-.319-.071v-1.033c.266.018.519.036.759.036.213.018.426.035.639.035.168.014.337.02.506.018.266 0 .479.018.639.018.16-.018.293-.018.373-.036a.421.421 0 00.173-.071.251.251 0 00.053-.125c0-.053 0-.089-.026-.124a.51.51 0 00-.12-.053 2.779 2.779 0 00-.253-.054c-.107 0-.24-.018-.413-.036a10.958 10.958 0 01-1.265-.196 2.441 2.441 0 01-.759-.284.921.921 0 01-.373-.446 1.815 1.815 0 01-.093-.623c0-.25.04-.463.12-.641a.933.933 0 01.426-.445c.2-.125.466-.214.786-.25.319-.053.719-.071 1.211-.071l.639.053c.192.032.383.068.573.107.2.036.386.072.559.125v1.068a7.17 7.17 0 00-.413-.053c-.16-.018-.319-.018-.492-.036-.173-.017-.333-.017-.493-.035-.16 0-.293-.018-.399-.018h-.64a1.79 1.79 0 00-.372.036c-.093.017-.147.035-.187.071a.195.195 0 00-.04.125c0 .035.014.071.027.106.027.018.053.036.12.054a.745.745 0 00.239.036c.142.021.284.039.427.053.519.053.945.107 1.278.196.319.071.572.178.759.303.173.106.306.249.359.427.067.178.093.392.093.641zm.493-1.923c0-.552.04-1.033.106-1.443.067-.41.2-.748.4-1.033.186-.267.466-.481.825-.605.36-.143.839-.214 1.412-.214.266 0 .532 0 .785.035.267.018.506.054.719.072.227.035.426.071.599.107.173.035.307.071.413.089v1.318c-.053-.018-.146-.018-.293-.054-.146-.018-.333-.053-.559-.071-.226-.018-.479-.054-.772-.071-.28-.018-.586-.018-.906-.018-.332 0-.599.035-.798.125a.951.951 0 00-.427.374 1.704 1.704 0 00-.173.605c-.026.232-.04.499-.04.784 0 .284.014.552.04.783.027.232.08.428.173.588.094.16.24.285.427.374.199.107.466.142.798.142.36 0 .679-.017.986-.035.306-.018.585-.054.812-.071.279-.036.532-.072.759-.125v1.318c-.094.036-.227.053-.4.089-.199.04-.399.076-.599.107-.226.035-.479.053-.732.071-.266.036-.533.036-.812.036-.573 0-1.052-.054-1.412-.196-.359-.143-.639-.339-.825-.624-.2-.267-.333-.623-.4-1.033a9.029 9.029 0 01-.106-1.424zm7.15-1.087c.146-.053.293-.089.452-.124.133-.036.293-.054.466-.089.187-.018.36-.036.559-.036.467 0 .866.036 1.185.089.32.053.586.178.773.356.199.16.346.41.426.712.093.303.133.695.133 1.176v2.209h-1.278v-2.209c0-.214-.013-.374-.054-.499a.449.449 0 00-.199-.267c-.093-.071-.213-.107-.373-.142-.16-.018-.373-.018-.613-.018h-.306c-.119.018-.239.018-.373.018a2.986 2.986 0 01-.399.035c-.146.018-.28.018-.399.036v3.045h-1.212v-6.429h1.212v2.137zm9.493 1.674v.374c0 .107-.014.196-.014.285 0 .089-.013.178-.013.25h-3.715a.732.732 0 00.387.48c.199.107.492.161.878.161h.253c.107-.018.213-.018.333-.018.107-.018.226-.018.359-.018.121-.018.254-.018.36-.018l.879-.053v.98c-.253.053-.493.106-.746.16-.239.037-.479.073-.719.107-.253.035-.492.035-.719.035-.466 0-.865-.018-1.185-.089a1.697 1.697 0 01-.785-.338c-.2-.178-.346-.41-.426-.713-.094-.302-.133-.694-.133-1.175 0-.481.039-.873.133-1.176.08-.302.226-.552.426-.712.2-.178.466-.303.785-.356.32-.053.719-.089 1.185-.089.373 0 .719.036 1.025.089.307.053.56.16.773.303.213.16.386.356.506.605.119.25.173.552.173.926zm-1.265-.089v-.195c0-.054-.027-.107-.053-.161a.32.32 0 00-.16-.142 1.47 1.47 0 00-.373-.089 5.461 5.461 0 00-.626-.036c-.412 0-.719.053-.919.16-.199.107-.319.285-.359.534h2.49v-.071zm1.851-1.531c.186-.054.386-.089.612-.143.213-.035.439-.053.666-.089.226-.018.466-.035.705-.053.24-.018.466-.018.706-.018v1.176c-.253 0-.466.035-.652.053-.173.035-.333.071-.453.089a4.264 4.264 0 00-.373.107v3.116h-1.211v-4.238z" fill="#fff"/></g><path d="M156.064 267.504V276h-2.652v-4.236L152.104 276h-2.28l-1.308-4.236V276h-2.664v-8.496h3.264l1.872 5.1 1.824-5.1h3.252zm6.65 7.212h-2.832l-.42 1.284h-2.796l3.108-8.496h3.072l3.096 8.496h-2.808l-.42-1.284zm-.648-2.004l-.768-2.364-.768 2.364h1.536zM174.695 276h-2.664l-2.82-4.272V276h-2.664v-8.496h2.664l2.82 4.344v-4.344h2.664V276zm4.744-8.496c.888 0 1.664.18 2.328.54.672.36 1.188.86 1.548 1.5.36.64.54 1.368.54 2.184 0 .808-.18 1.536-.54 2.184a3.917 3.917 0 01-1.548 1.536c-.664.368-1.44.552-2.328.552h-3.54v-8.496h3.54zm-.24 6.12c.6 0 1.076-.164 1.428-.492.352-.328.528-.796.528-1.404 0-.608-.176-1.076-.528-1.404-.352-.328-.828-.492-1.428-.492h-.636v3.792h.636zm11.066 1.092h-2.832l-.42 1.284h-2.796l3.108-8.496h3.072l3.096 8.496h-2.808l-.42-1.284zm-.648-2.004l-.768-2.364-.768 2.364h1.536zm11.153-5.208v2.112h-2.256V276h-2.664v-6.384h-2.232v-2.112h7.152zm6.171 7.212h-2.832l-.42 1.284h-2.796l3.108-8.496h3.072l3.096 8.496h-2.808l-.42-1.284zm-.648-2.004l-.768-2.364-.768 2.364h1.536zm7.145-5.208V276h-2.664v-8.496h2.664zm5.475 8.496l-1.596-3.048h-.012V276h-2.664v-8.496h3.96c.688 0 1.276.124 1.764.372.488.24.852.572 1.092.996.248.416.372.888.372 1.416 0 .568-.16 1.072-.48 1.512-.312.44-.764.756-1.356.948l1.848 3.252h-2.928zm-1.608-4.824h1.056c.256 0 .448-.056.576-.168.128-.12.192-.304.192-.552 0-.224-.068-.4-.204-.528-.128-.128-.316-.192-.564-.192h-1.056v1.44zm8.039-1.548v1.044h2.64v2.004h-2.64v1.2h3V276h-5.664v-8.496h5.664v2.124h-3z" fill="#0E4D9F"/></g><g clip-path="url(#clip6)"><path d="M107.29 439.647c-1.748 0-3.472-.416-5.031-1.216a10.797 10.797 0 01-5.641-4.626H59.732a11.191 11.191 0 01-4.078 4.266 11.054 11.054 0 01-5.662 1.576 11.035 11.035 0 01-6.484-2.117 11.194 11.194 0 01-4.036-5.544l-.199-.073c-.577-.235-.995-.412-.995-.412a3.712 3.712 0 01-1.61-1.34l-1.716-2.556a3.769 3.769 0 01-.637-2.097v-7.577c-.002-.93.198-1.85.585-2.695a6.379 6.379 0 011.655-2.195c1.079-5.025 4.291-9.426 6.18-11.835a4.276 4.276 0 01-.08-2.22c.332-1.451 1.347-2.616 3.023-3.464.806-.409 2.323-1.169 16.218-1.169 1.48 0 2.986 0 4.5.027 5.31.07 17.98.335 21.102 1.39 3.76 1.266 14.237 8.113 18.186 10.739 3.113.613 12.358 2.787 16.885 7.684 2.625 2.844 3.62 6.716 2.877 11.195a20.56 20.56 0 01-1.746 5.52 3.73 3.73 0 01-2.724 1.983l-3.787.603a11.162 11.162 0 01-4.087 4.491 11.016 11.016 0 01-5.812 1.662z" fill="#EA5B0D"/><path d="M61.895 397.699c1.51 0 3.017 0 4.464.026 8.522.111 18.04.53 20.094 1.22 3.753 1.262 16.778 9.935 17.966 10.719 1.105.197 11.406 2.13 15.723 6.803 1.899 2.05 2.602 4.94 2.035 8.354a17.097 17.097 0 01-1.427 4.538.373.373 0 01-.282.208l-3.866.616h-.06a.384.384 0 01-.325-.177l-1.414.422a7.847 7.847 0 01-2.767 4.221 7.718 7.718 0 01-8.47.676 7.414 7.414 0 01-2.952-1.791 7.51 7.51 0 01-1.836-2.942l-.588-.171a.31.31 0 01-.113.02H59.204a.384.384 0 01-.295-.14 5.595 5.595 0 01-1.623.854 7.833 7.833 0 01-2.85 3.725 7.72 7.72 0 01-9.59-.557 7.86 7.86 0 01-2.563-4.907 38.44 38.44 0 01-1.255-1.128v.14a.394.394 0 01-.169.335.398.398 0 01-.362.04c-.53-.214-.909-.378-.912-.378a.41.41 0 01-.17-.141l-1.715-2.559a.39.39 0 01-.067-.218v-7.577a3.073 3.073 0 011.105-2.368 10.2 10.2 0 01.863-.646c.664-5.249 4.6-10.21 6.306-12.344.331-.402.57-.717.663-.877.093-.161.057-.335-.252-.741-.242-.335-.547-.723-.435-1.222.103-.439.508-.828 1.281-1.22 1.195-.602 7.965-.81 14.725-.81l.006-.003zm-.006-6.696c-14.695 0-16.364.844-17.705 1.524-3.239 1.641-4.38 4.019-4.768 5.694a7.796 7.796 0 00-.193 2.077c-1.918 2.569-4.467 6.465-5.668 11a9.765 9.765 0 00-2.562 6.622v7.577a7.077 7.077 0 001.211 3.976l1.713 2.556a7.013 7.013 0 002.986 2.516 14.515 14.515 0 005.316 6.149 14.313 14.313 0 007.76 2.295 14.335 14.335 0 006.45-1.548 14.487 14.487 0 005.088-4.294h33.391a14.131 14.131 0 006.043 4.355 14.323 14.323 0 006.339 1.48 14.286 14.286 0 006.781-1.711 14.45 14.45 0 005.185-4.733l2.244-.355a7.02 7.02 0 003.025-1.264 7.096 7.096 0 002.132-2.508 23.83 23.83 0 002.064-6.488c.909-5.467-.415-10.448-3.724-14.032-4.874-5.276-13.821-7.681-18.026-8.558-5.678-3.765-14.602-9.477-18.418-10.756-1.191-.402-3.15-.817-9.358-1.162-3.604-.198-8.134-.335-12.753-.399-1.523-.02-3.053-.03-4.547-.03l-.006.017z" fill="#fff"/><path d="M107.29 437.637a9.063 9.063 0 01-4.248-1.058 8.785 8.785 0 01-3.109-1.84 8.868 8.868 0 01-2.117-2.944H59.1a6.49 6.49 0 01-.806.412 9.18 9.18 0 01-3.355 3.95 9.06 9.06 0 01-4.941 1.484 9.053 9.053 0 01-5.818-2.128 9.202 9.202 0 01-3.122-5.392 1.702 1.702 0 01-1.042-.074 34.365 34.365 0 01-.953-.395 1.718 1.718 0 01-.737-.617l-1.715-2.559a1.73 1.73 0 01-.296-.968v-7.577a4.414 4.414 0 011.59-3.403c.16-.131.332-.258.474-.375.9-5.393 4.796-10.287 6.495-12.417l.196-.248a2.555 2.555 0 01-.465-2.054c.256-1.132 1.251-1.751 1.991-2.117.468-.237 1.885-.954 15.325-.954 1.47 0 2.987 0 4.477.027 2.894.036 17.482.274 20.499 1.289 3.71 1.246 15.212 8.84 18.049 10.719 2.225.43 4.42 1.005 6.571 1.722 4.42 1.48 7.656 3.309 9.624 5.436 2.187 2.369 3.006 5.648 2.369 9.49a18.697 18.697 0 01-1.553 4.931 1.725 1.725 0 01-1.258.921l-3.866.613a1.688 1.688 0 01-.753-.051l-.193.057a9.169 9.169 0 01-3.332 4.444 9.035 9.035 0 01-5.266 1.676z" fill="#fff"/><path d="M61.896 397.699c1.51 0 3.016 0 4.463.027 8.522.111 18.04.529 20.094 1.219 3.753 1.263 16.778 9.935 17.967 10.719 1.105.198 11.405 2.131 15.723 6.803 1.898 2.05 2.602 4.941 2.034 8.354a17.056 17.056 0 01-1.427 4.539.372.372 0 01-.282.208l-3.866.616h-.06a.39.39 0 01-.272-.11.678.678 0 01-.053-.067l-1.414.422a7.84 7.84 0 01-2.767 4.221 7.72 7.72 0 01-4.746 1.634 7.645 7.645 0 01-3.723-.958 7.418 7.418 0 01-2.953-1.791 7.513 7.513 0 01-1.836-2.942l-.587-.171a.334.334 0 01-.113.02H59.204a.376.376 0 01-.295-.14c-.49.372-1.04.661-1.623.854a7.834 7.834 0 01-2.85 3.725 7.71 7.71 0 01-4.45 1.406 7.716 7.716 0 01-5.14-1.964 7.857 7.857 0 01-2.563-4.906 38.615 38.615 0 01-1.254-1.129v.141a.394.394 0 01-.17.335.407.407 0 01-.219.067.434.434 0 01-.142-.027c-.531-.214-.91-.378-.913-.378a.411.411 0 01-.17-.141l-1.715-2.559a.39.39 0 01-.066-.218v-7.577a3.049 3.049 0 011.105-2.368c.276-.231.564-.447.863-.647.663-5.248 4.6-10.209 6.305-12.343.332-.402.57-.717.664-.878.093-.16.056-.335-.253-.74-.242-.335-.547-.723-.434-1.222.102-.439.507-.828 1.28-1.22 1.195-.603 7.965-.81 14.725-.81l.007-.004zm-.007-2.676c-13.752 0-15.212.74-15.929 1.095-.557.282-2.247 1.139-2.675 3.015a3.666 3.666 0 00.176 2.204c-1.838 2.345-5.283 6.9-6.322 12.059l-.103.087a5.715 5.715 0 00-1.531 1.984 5.772 5.772 0 00-.543 2.454v7.577c0 .614.183 1.214.525 1.722l1.715 2.556c.33.488.79.872 1.328 1.105 0 0 .398.174.969.402.157.064.319.114.484.151a10.529 10.529 0 003.756 5.444 10.365 10.365 0 006.236 2.096 10.4 10.4 0 005.448-1.563 10.533 10.533 0 003.844-4.199l.15-.08h37.556a10.167 10.167 0 005.525 4.689 10.354 10.354 0 0010.384-.494 10.493 10.493 0 003.846-4.45c.091 0 .18-.01.269-.03l3.859-.613a3.034 3.034 0 001.31-.548c.388-.284.704-.656.924-1.086a19.772 19.772 0 001.682-5.32c.707-4.267-.229-7.942-2.711-10.625-4.457-4.827-13.732-6.944-16.653-7.51-3.205-2.13-14.372-9.469-18.139-10.719-3.123-1.048-16.788-1.303-20.907-1.356-1.506 0-3.016-.027-4.496-.027l.023-.02z" fill="#EA5B0D"/><path d="M45.947 427.002l1.636.954a.771.771 0 001.153-.572.784.784 0 00-.38-.777l-1.636-.955c-.338.398-.6.856-.773 1.35zm2.409 3.313a.774.774 0 00.38-.777.776.776 0 00-1.153-.573l-1.636.955c.174.49.436.944.773 1.34l1.636-.945zm.212-1.852a.352.352 0 00.352.335.335.335 0 00.332-.335.343.343 0 00-.091-.248.333.333 0 00-.24-.104.356.356 0 00-.352.352z" fill="#133C68"/><path d="M43.574 421.605a13.983 13.983 0 00-1.347-2.204c-.69-.743-2.18-1.494-4.105-2.18-.064.23-.097.468-.097.706v7.577l1.716 2.556s.372.161.903.379a9.475 9.475 0 01.766-3.722 9.41 9.41 0 012.164-3.112z" fill="#DFE0DA"/><path d="M117.372 429.682l-5.333 1.594-12.518-.455-2.714-.784H59.2s-1.417 1.651-5.164 1.598c-3.746-.054-10.655-1.27-10.655-1.27s-3.87-3.209-3.87-3.849v-8.752h78.48l-.62 11.918z" fill="#133C68"/><path d="M49.992 436.301c4.289 0 7.765-3.509 7.765-7.838 0-4.329-3.476-7.838-7.765-7.838s-7.765 3.509-7.765 7.838c0 4.329 3.476 7.838 7.765 7.838z" fill="#696C6C"/><path d="M49.992 433.638c2.832 0 5.127-2.317 5.127-5.176 0-2.858-2.295-5.175-5.127-5.175s-5.127 2.317-5.127 5.175c0 2.859 2.295 5.176 5.127 5.176z" fill="#EBECE6"/><path d="M49.992 434.036a5.493 5.493 0 01-3.896-1.631 5.6 5.6 0 01-1.616-3.933 5.6 5.6 0 011.616-3.933 5.496 5.496 0 013.896-1.634 5.496 5.496 0 013.898 1.633 5.598 5.598 0 011.617 3.934 5.6 5.6 0 01-1.618 3.933 5.496 5.496 0 01-3.897 1.631zm0-10.35a4.726 4.726 0 00-3.35 1.404 4.812 4.812 0 00.001 6.763 4.727 4.727 0 003.349 1.403 4.723 4.723 0 003.351-1.402 4.818 4.818 0 00.004-6.771 4.725 4.725 0 00-3.355-1.407v.01zm55.821 12.005c4.106 0 7.434-3.359 7.434-7.503s-3.328-7.503-7.434-7.503c-4.105 0-7.433 3.359-7.433 7.503s3.328 7.503 7.433 7.503z" fill="#133C68"/><path d="M107.29 436.301c4.289 0 7.765-3.509 7.765-7.838 0-4.329-3.476-7.838-7.765-7.838s-7.765 3.509-7.765 7.838c0 4.329 3.476 7.838 7.765 7.838z" fill="#696C6C"/><path d="M107.29 433.638c2.832 0 5.127-2.317 5.127-5.176 0-2.858-2.295-5.175-5.127-5.175s-5.127 2.317-5.127 5.175c0 2.859 2.295 5.176 5.127 5.176z" fill="#EBECE6"/><path d="M107.29 434.036a5.496 5.496 0 01-3.897-1.631 5.594 5.594 0 01-.001-7.867 5.497 5.497 0 013.898-1.633 5.499 5.499 0 013.888 1.633 5.6 5.6 0 011.618 3.924 5.603 5.603 0 01-1.611 3.937 5.49 5.49 0 01-3.895 1.637zm0-10.35a4.724 4.724 0 00-3.351 1.404 4.815 4.815 0 00-1.391 3.382 4.815 4.815 0 001.391 3.382 4.722 4.722 0 003.351 1.402 4.727 4.727 0 003.349-1.403 4.818 4.818 0 001.031-5.214 4.785 4.785 0 00-1.026-1.556 4.743 4.743 0 00-1.538-1.04 4.706 4.706 0 00-1.816-.367v.01z" fill="#133C68"/><path d="M107.29 426.885a.774.774 0 00.546-.229.79.79 0 00.227-.551v-1.91a4.266 4.266 0 00-1.546 0v1.91a.79.79 0 00.227.551.774.774 0 00.546.229zm1.351.787a.777.777 0 001.058.285l1.636-.955a4.264 4.264 0 00-.773-1.34l-1.636.955a.792.792 0 00-.285 1.055zm-5.4-.67l1.64.954a.771.771 0 001.055-.284.789.789 0 00.077-.592.779.779 0 00-.359-.473l-1.639-.955a4.385 4.385 0 00-.774 1.35zm8.094 2.917l-1.636-.954a.772.772 0 00-1.058.284.786.786 0 00.285 1.066l1.636.954c.338-.398.6-.856.773-1.35zm-3.272 2.808v-1.909a.786.786 0 00-.227-.551.77.77 0 00-.546-.23.77.77 0 00-.546.23.786.786 0 00-.227.551v1.909c.255.047.514.071.773.07.259.001.518-.023.773-.07zm-2.409-2.412a.781.781 0 00.282-1.065.77.77 0 00-1.055-.285l-1.64.955c.177.49.439.943.774 1.34l1.639-.945zm1.765-2.585a.352.352 0 00.289-.403.35.35 0 10-.688.112c.03.192.209.322.399.291zm-1.553.733a.332.332 0 00.332.334.325.325 0 00.246-.092.335.335 0 00.103-.242.342.342 0 00-.097-.255.318.318 0 00-.116-.075.314.314 0 00-.136-.022.33.33 0 00-.311.218.34.34 0 00-.021.134zm1.424 1.433a.35.35 0 00.349-.351.35.35 0 00-.349-.352.35.35 0 00-.348.352.35.35 0 00.348.351zm1.42-1.433a.341.341 0 00-.096-.255.326.326 0 00-.116-.075.317.317 0 00-.136-.022.327.327 0 00-.241.104.347.347 0 00-.071.114.358.358 0 00-.02.134.335.335 0 00.332.334.32.32 0 00.245-.092.337.337 0 00.077-.11.353.353 0 00.026-.132z" fill="#133C68"/><path d="M119.861 416.742c-4.431-4.793-15.597-6.699-15.597-6.699s-14.098-9.436-17.944-10.719c-3.846-1.283-36.434-1.752-38.986-.459-2.552 1.293.279 1.913-.442 3.045-.663 1.065-6.258 7.001-6.935 13.241-.348.216-.68.456-.996.717a2.683 2.683 0 00-.962 2.067v7.577l1.715 2.556s.372.16.903.378a9.482 9.482 0 012.746-6.657 9.302 9.302 0 016.602-2.755c2.48 0 4.858.994 6.61 2.763a9.482 9.482 0 012.603 8.274H98.05a9.483 9.483 0 012.602-8.274 9.307 9.307 0 016.611-2.763c2.479 0 4.857.994 6.61 2.763a9.483 9.483 0 012.642 8.012l3.866-.616s3.909-7.657-.521-12.451z" fill="#0E4D9F"/><path d="M58.487 417.221c-1.51.586 4.613 5.024 3.913 9.295h35.74a9.451 9.451 0 012.928-5.095c-5.91-1.634-31.009-6.736-42.58-4.2z" fill="#133C68"/><path d="M93.468 425.662H66.004a.848.848 0 00-.789.534.867.867 0 00.186.939.85.85 0 00.603.252h27.468a.85.85 0 00.603-.252.864.864 0 00.185-.94.87.87 0 00-.464-.468.86.86 0 00-.328-.065z" fill="#3C7ABC"/><path d="M93.65 428.693H71.557a2.28 2.28 0 01-1.509-.574 2.323 2.323 0 01-.76-1.435l-1.547-12.2a.23.23 0 01.02-.134l1.778-3.564.415.211-1.746 3.497 1.537 12.129c.057.445.272.853.606 1.15.333.296.762.46 1.206.461H93.65c.403 0 .794-.134 1.113-.382.32-.248.549-.595.652-.988 1.48-5.6 2.264-9.348 2.144-10.28a5.006 5.006 0 00-1.225-2.709l.332-.335a5.416 5.416 0 011.361 2.981c.17 1.356-1.278 7.138-2.157 10.461a2.31 2.31 0 01-.821 1.238 2.273 2.273 0 01-1.4.473z" fill="#0B3460"/><path d="M121.941 423.569c-2.953.67-6.358 1.403-3.477 5.932l1.944-.308a16.812 16.812 0 001.533-5.624z" fill="#133C68"/><path d="M98.078 430.456H59.204a.385.385 0 01-.295-.141.381.381 0 01-.086-.315 9.088 9.088 0 00-2.492-7.933 8.918 8.918 0 00-6.336-2.649c-2.372 0-4.649.95-6.328 2.642a9.087 9.087 0 00-2.632 6.382.394.394 0 01-.169.335.386.386 0 01-.362.041c-.53-.215-.909-.379-.912-.379a.404.404 0 01-.17-.141l-1.715-2.559a.39.39 0 01-.067-.217v-7.577a3.074 3.074 0 011.105-2.369c.277-.23.565-.446.863-.646.664-5.249 4.6-10.21 6.306-12.344.331-.401.57-.716.663-.877.093-.161.057-.335-.252-.74-.242-.335-.547-.724-.435-1.223.103-.439.508-.827 1.281-1.219 1.46-.741 11.247-.885 19.188-.784 8.522.11 18.04.529 20.094 1.219 3.753 1.263 16.778 9.935 17.967 10.719 1.105.198 11.405 2.13 15.723 6.803 1.898 2.05 2.602 4.941 2.034 8.354a17.079 17.079 0 01-1.427 4.539.372.372 0 01-.282.208l-3.866.616a.385.385 0 01-.427-.261.397.397 0 01-.018-.181 9.089 9.089 0 00-2.531-7.685 8.92 8.92 0 00-6.336-2.649 8.92 8.92 0 00-6.336 2.649 9.089 9.089 0 00-2.491 7.933.384.384 0 01-.385.449zm-38.426-.781H97.63a9.884 9.884 0 012.776-8.163 9.7 9.7 0 016.884-2.884 9.698 9.698 0 016.88 2.883 9.88 9.88 0 012.853 6.945c0 .288 0 .583-.039.881l3.162-.503c.528-1.152 3.262-7.687-.567-11.831-4.291-4.642-15.266-6.562-15.369-6.578a.374.374 0 01-.149-.061c-.143-.093-14.1-9.422-17.854-10.685-3.753-1.263-36.328-1.675-38.69-.476-.727.369-.85.61-.87.697-.033.141.133.358.292.569.289.382.723.955.289 1.638-.123.195-.375.51-.72.945-1.68 2.107-5.605 7.034-6.156 12.129a.394.394 0 01-.183.288 8.634 8.634 0 00-.936.67 2.272 2.272 0 00-.823 1.765v7.457l1.587 2.345.278.12a9.885 9.885 0 013.05-6.556 9.71 9.71 0 016.667-2.676 9.7 9.7 0 016.882 2.882 9.884 9.884 0 012.855 6.946c0 .421-.025.842-.077 1.26v-.007z" fill="#fff"/><path d="M49.965 426.902a.767.767 0 00.547-.229.784.784 0 00.227-.552v-1.909a4.456 4.456 0 00-.773-.07 4.417 4.417 0 00-.77.07v1.909a.78.78 0 00.769.781zm1.355.79a.776.776 0 001.055.285l1.64-.955a4.358 4.358 0 00-.774-1.34l-1.64.951a.793.793 0 00-.282 1.059zm-5.4-.67l1.64.955a.773.773 0 001.055-.285.793.793 0 00-.286-1.068l-1.636-.952c-.336.4-.598.857-.773 1.35zm8.094 2.914l-1.64-.954a.77.77 0 00-1.055.284.795.795 0 00.282 1.069l1.64.951a4.35 4.35 0 00.773-1.35zm-3.275 2.811v-1.909a.784.784 0 00-.227-.552.767.767 0 00-1.091.001.783.783 0 00-.225.551v1.909c.254.045.511.069.77.07.259-.001.517-.024.773-.07zm-2.409-2.395a.796.796 0 00.285-1.069.769.769 0 00-1.055-.284l-1.64.954c.176.49.438.944.773 1.34l1.636-.941zm1.766-2.599a.351.351 0 00-.11-.694.35.35 0 00-.29.403.35.35 0 00.4.291zm-1.551.726a.339.339 0 00.091.248.332.332 0 00.372.077.332.332 0 00.2-.325.334.334 0 00-.331-.334.335.335 0 00-.332.334zm2.857 0a.334.334 0 00-.331-.335.331.331 0 00-.322.203.339.339 0 00-.027.132.34.34 0 00.097.255.334.334 0 00.252.097.328.328 0 00.24-.104.342.342 0 00.091-.248z" fill="#133C68"/><path d="M101.025 413.014a2.008 2.008 0 00.851-1.681 2.019 2.019 0 00-.904-1.652c-4.796-3.132-12.61-8.083-15.116-8.92-1.822-.613-13.059-1.153-24.05-1.153h-1.53c-3.411 1.923-6.793 5.735-8.007 8.589a1.296 1.296 0 00.576 1.643c.187.1.396.151.608.149 10.646-.127 37.26 3.015 44.326 3.862a4.572 4.572 0 003.193-.804l.053-.033z" fill="#0B3460"/><path d="M67.633 407.678a1.497 1.497 0 01-.504 1.021 1.466 1.466 0 01-1.075.356c-4.646-.355-8.857-.59-11.947-.59h-.295c1.105-2.308 3.85-5.517 6.876-7.336h1.125c1.596 0 3.172 0 4.712.031a1.464 1.464 0 011.06.479 1.486 1.486 0 01.387 1.105l-.339 4.934zm17.745-5.473c-.996-.335-6.027-.697-12.677-.905a1.09 1.09 0 00-1.122 1.186l.475 6.153a1.092 1.092 0 00.995 1.005c8.4.774 17.004 1.752 22.188 2.368l.027-.036a3.308 3.308 0 00.566-2.578 3.307 3.307 0 00-1.492-2.169c-4.44-2.767-7.706-4.602-8.96-5.014v-.01z" fill="#97D6DD"/><path d="M75.644 409.899l1.942.187 3.07-8.414a88.958 88.958 0 00-1.969-.121l-3.043 8.348zm7.258-8.053l-.972-.084-3.083 8.451.969.098 3.086-8.465zm-16.712-.686h-.996l-2.79 7.647.995.064 2.79-7.711zm-7.039 7.449c.64.034 1.298.067 1.971.108l2.765-7.577h-1.991l-2.745 7.469z" fill="#E0F2F5"/><path d="M115.055 414.839c1.471.195 4.447 2.891 5.051 5.785.604 2.894-3.016 1.598-3.922.456-.906-1.142-2.864-6.472-1.129-6.241z" fill="#E8E7E6"/><path d="M114.435 416.551c.262 1.598 1.201 3.835 1.749 4.529a4.246 4.246 0 002.044 1.192c.146-.442.22-.904.219-1.37a4.376 4.376 0 00-1.156-2.974 4.297 4.297 0 00-2.856-1.377z" fill="#fff"/><path d="M73.165 412.933c-1.24-.154-2.28.001-2.323.362-.043.362.926.767 2.168.921 1.24.154 2.28 0 2.322-.365.044-.365-.925-.78-2.167-.918z" fill="#0E4D9F"/><path d="M44.686 414.447c1.28.165.331-3.711 1.682-4.354 1.079-.526-.282-1.719-4.022-.925a17.369 17.369 0 00-1.958 5.983 9.696 9.696 0 014.298-.704z" fill="#EA5B0D"/><path d="M44.709 414.448c.76.097.74-1.223.876-2.449a45.23 45.23 0 00-4.729.901 13.71 13.71 0 00-.445 2.244 9.693 9.693 0 014.298-.696z" fill="#EA5B0D" opacity=".5"/><path d="M44.483 410.086H43.13a.48.48 0 00-.48.483.487.487 0 00.48.485h1.354a.464.464 0 00.34-.142.482.482 0 00.138-.343.488.488 0 00-.295-.446.479.479 0 00-.183-.037z" fill="#fff"/><path d="M95.503 410.891c-.996-.453-2.934.572-2.904 2.77l.242 1.487s2.323.62 3.92 0c1.101-.784 2.097-2.727-1.258-4.257z" fill="#0E4D9F"/><path d="M97.746 412.95c-1.135.925-3.717.71-5.144.503v.207l.242 1.488s2.323.619 3.92 0c.633-.449 1.224-1.28.982-2.198z" fill="#133C68"/></g><g clip-path="url(#clip7)"><path d="M87.775 381.572a4.393 4.393 0 01-3.81-2.209l-9.899-17.201a4.426 4.426 0 011.53-6.118 4.39 4.39 0 012.226-.606h2.364a23.7 23.7 0 017.703-14.966 23.535 23.535 0 0115.67-6.034h13.516a8.041 8.041 0 005.69-2.368 8.103 8.103 0 002.359-5.711v-12.175a7.778 7.778 0 012.339-5.348 7.722 7.722 0 015.393-2.197c2.013 0 3.948.788 5.392 2.197a7.773 7.773 0 012.339 5.348v12.175a23.663 23.663 0 01-6.896 16.675 23.492 23.492 0 01-16.616 6.917h-13.516a8.088 8.088 0 00-4.679 1.513 8.131 8.131 0 00-2.947 3.949h1.815a4.407 4.407 0 013.809 2.215 4.437 4.437 0 010 4.419l-9.948 17.292a4.412 4.412 0 01-3.834 2.233z" fill="#fff"/><path d="M132.853 308.854c1.408 0 2.759.562 3.756 1.561a5.344 5.344 0 011.559 3.768v12.175a21.23 21.23 0 01-6.185 14.961 21.077 21.077 0 01-14.908 6.203h-13.516a10.462 10.462 0 00-7.333 3.014 10.535 10.535 0 00-3.135 7.304h4.638a1.988 1.988 0 011.982 1.996 2 2 0 01-.264.996l-9.948 17.292a1.975 1.975 0 01-1.724.995 1.985 1.985 0 01-1.718-.995l-9.917-17.231a2.027 2.027 0 01-.302-1.056 1.998 1.998 0 01.579-1.412 1.985 1.985 0 011.405-.585h4.644a21.235 21.235 0 016.245-14.853 21.077 21.077 0 0114.848-6.147h13.516a10.47 10.47 0 007.397-3.082 10.547 10.547 0 003.071-7.424v-12.175a5.343 5.343 0 011.557-3.766 5.308 5.308 0 013.753-1.563v.024zm0-4.879a10.14 10.14 0 00-7.172 2.986 10.212 10.212 0 00-2.976 7.198v12.175a5.672 5.672 0 01-1.652 3.992 5.634 5.634 0 01-3.978 1.659h-13.516a25.946 25.946 0 00-16.46 5.939 26.114 26.114 0 00-8.987 15.061h-.284A6.82 6.82 0 0073 354.993a6.872 6.872 0 00-2 4.844 6.78 6.78 0 00.986 3.532l9.881 17.183a6.832 6.832 0 002.497 2.506 6.804 6.804 0 009.32-2.506l9.954-17.292a6.864 6.864 0 00.53-5.685 6.85 6.85 0 00-1.526-2.488 6.814 6.814 0 00-2.421-1.623 5.574 5.574 0 013.338-1.111h13.516a25.911 25.911 0 0018.325-7.629 26.106 26.106 0 007.606-18.39v-12.175a10.212 10.212 0 00-2.978-7.2 10.138 10.138 0 00-7.175-2.984z" fill="#EA5B0D"/><path d="M87.775 378.149a.992.992 0 01-.858-.497l-9.948-17.292a.983.983 0 010-.995.982.982 0 01.859-.498h5.63v-.831a20.232 20.232 0 015.89-14.259 20.081 20.081 0 0114.205-5.916h13.522a11.464 11.464 0 008.094-3.378 11.549 11.549 0 003.366-8.123v-12.175c0-1.15.455-2.252 1.264-3.065a4.313 4.313 0 013.054-1.269c1.145 0 2.243.457 3.053 1.269a4.345 4.345 0 011.264 3.065v12.175a20.225 20.225 0 01-5.893 14.254 20.078 20.078 0 01-14.202 5.914h-13.522a11.472 11.472 0 00-8.105 3.388 11.555 11.555 0 00-3.355 8.144v.831h5.636a.992.992 0 01.992.996.998.998 0 01-.133.497l-9.954 17.292a.987.987 0 01-.859.473z" fill="#0E4D9F"/><path d="M132.853 310.853c.882 0 1.728.351 2.351.977.624.626.975 1.476.975 2.361v12.175a19.232 19.232 0 01-5.601 13.552 19.087 19.087 0 01-13.503 5.621h-13.522a12.447 12.447 0 00-8.801 3.668 12.536 12.536 0 00-3.65 8.835v1.821h6.652L87.8 377.154l-9.948-17.291h6.652v-1.821a19.231 19.231 0 015.6-13.554 19.09 19.09 0 0113.503-5.625h13.522a12.448 12.448 0 008.8-3.666 12.537 12.537 0 003.652-8.831v-12.175c0-.885.35-1.735.974-2.361a3.32 3.32 0 012.352-.977h-.054zm.054-1.967a5.31 5.31 0 00-3.753 1.563 5.347 5.347 0 00-1.557 3.766v12.175a10.545 10.545 0 01-3.071 7.424 10.468 10.468 0 01-7.397 3.082h-13.522a21.073 21.073 0 00-14.846 6.148 21.227 21.227 0 00-6.24 14.852h-4.64a1.986 1.986 0 00-1.716 1 2.006 2.006 0 000 1.992l9.947 17.292a1.984 1.984 0 003.441 0l9.912-17.231a1.97 1.97 0 00.302-1.056 2.001 2.001 0 00-.578-1.412 1.984 1.984 0 00-1.405-.585h-4.639a10.529 10.529 0 013.132-7.303 10.453 10.453 0 017.33-3.015h13.522a21.069 21.069 0 0014.904-6.206 21.23 21.23 0 006.184-14.958v-12.175a5.349 5.349 0 00-1.557-3.766 5.304 5.304 0 00-3.753-1.562v-.025z" fill="#fff"/></g><g clip-path="url(#clip8)"><path d="M285.225 381.572a4.411 4.411 0 01-3.816-2.209l-9.948-17.291a4.443 4.443 0 01.001-4.422 4.415 4.415 0 013.815-2.212h1.814a8.124 8.124 0 00-2.943-3.949 8.087 8.087 0 00-4.677-1.514h-13.522a23.492 23.492 0 01-16.612-6.918 23.666 23.666 0 01-6.894-16.673v-12.175a7.77 7.77 0 012.264-5.485 7.712 7.712 0 0110.93 0 7.773 7.773 0 012.263 5.485v12.175a8.1 8.1 0 002.359 5.71 8.043 8.043 0 005.69 2.368h13.522a23.537 23.537 0 0115.666 6.037 23.694 23.694 0 017.701 14.963h2.359a4.406 4.406 0 013.845 2.256 4.43 4.43 0 01-.084 4.469l-9.893 17.2a4.43 4.43 0 01-1.629 1.608 4.398 4.398 0 01-2.211.577z" fill="#fff"/><path d="M240.148 308.856a5.302 5.302 0 013.752 1.562 5.345 5.345 0 011.557 3.766v12.176a10.543 10.543 0 003.071 7.423 10.47 10.47 0 007.397 3.083h13.522a21.07 21.07 0 0114.846 6.147 21.225 21.225 0 016.241 14.853h4.645a1.964 1.964 0 011.404.585 1.995 1.995 0 01.579 1.411c.001.374-.104.74-.302 1.056l-9.918 17.231a1.983 1.983 0 01-1.717.995 1.987 1.987 0 01-1.718-.995l-9.954-17.291a2.008 2.008 0 01.002-1.995 1.983 1.983 0 011.722-.997h4.638a10.544 10.544 0 00-3.137-7.303 10.461 10.461 0 00-7.331-3.015h-13.522a21.077 21.077 0 01-14.904-6.206 21.227 21.227 0 01-6.183-14.958v-12.175a5.341 5.341 0 011.557-3.767 5.302 5.302 0 013.753-1.562v-.024zm0-4.832a10.144 10.144 0 00-7.172 2.987 10.212 10.212 0 00-2.976 7.198v12.175a26.096 26.096 0 007.602 18.389 25.908 25.908 0 0018.323 7.63h13.522a5.572 5.572 0 013.332 1.111 6.842 6.842 0 00-3.947 4.111 6.888 6.888 0 00-.354 2.901c.092.981.394 1.93.884 2.784l9.954 17.291a6.858 6.858 0 002.499 2.504 6.809 6.809 0 003.41.919 6.805 6.805 0 003.409-.919 6.85 6.85 0 002.499-2.504l9.887-17.182a6.861 6.861 0 00.101-6.904 6.833 6.833 0 00-2.502-2.547 6.803 6.803 0 00-3.44-.934h-.291a26.112 26.112 0 00-8.985-15.058 25.95 25.95 0 00-16.456-5.942h-13.522a5.63 5.63 0 01-3.977-1.658 5.668 5.668 0 01-1.653-3.992v-12.175a10.212 10.212 0 00-2.976-7.198 10.144 10.144 0 00-7.171-2.987z" fill="#EA5B0D"/><path d="M285.225 378.149a.983.983 0 01-.859-.497l-9.924-17.292a.981.981 0 010-.995.98.98 0 01.859-.498h5.63v-.832c0-3.058-1.211-5.991-3.365-8.154a11.473 11.473 0 00-8.125-3.377h-13.522a20.087 20.087 0 01-14.203-5.915 20.228 20.228 0 01-5.892-14.254V314.16a4.34 4.34 0 011.264-3.064 4.309 4.309 0 016.107 0 4.345 4.345 0 011.264 3.064v12.175a11.554 11.554 0 003.376 8.135 11.47 11.47 0 008.114 3.367h13.522a20.083 20.083 0 0114.205 5.916 20.232 20.232 0 015.891 14.258v.832h5.636a.994.994 0 01.858 1.493l-9.953 17.291a.99.99 0 01-.883.522z" fill="#0E4D9F"/><path d="M240.148 310.853c.882 0 1.728.351 2.351.977.624.626.975 1.475.975 2.361v12.175a12.533 12.533 0 003.652 8.831 12.445 12.445 0 008.799 3.666h13.522a19.09 19.09 0 0113.503 5.624 19.235 19.235 0 015.601 13.555v1.821h6.652l-9.948 17.291-9.948-17.291h6.622v-1.821a12.54 12.54 0 00-3.65-8.836 12.453 12.453 0 00-8.802-3.667h-13.522a19.091 19.091 0 01-13.503-5.621 19.23 19.23 0 01-5.6-13.552v-12.175c0-.886.35-1.735.974-2.361a3.32 3.32 0 012.352-.977h-.03zm.03-1.967a5.308 5.308 0 00-3.753 1.563 5.347 5.347 0 00-1.557 3.766v12.175a21.228 21.228 0 006.184 14.958 21.073 21.073 0 0014.903 6.206h13.522a10.47 10.47 0 017.332 3.015 10.544 10.544 0 013.136 7.303h-4.638a1.983 1.983 0 00-1.721.997 2.008 2.008 0 00-.003 1.995l9.954 17.291a1.987 1.987 0 002.709.729c.302-.175.552-.426.726-.729l9.918-17.23c.199-.316.304-.683.302-1.056a2 2 0 00-.578-1.412 1.996 1.996 0 00-1.405-.585h-4.645a21.225 21.225 0 00-6.24-14.852 21.07 21.07 0 00-14.847-6.148h-13.522a10.463 10.463 0 01-7.396-3.083 10.544 10.544 0 01-3.072-7.423v-12.175a5.341 5.341 0 00-1.557-3.767 5.302 5.302 0 00-3.752-1.562v.024z" fill="#fff"/></g><defs><clipPath id="clip0"><path fill="#fff" transform="translate(150 38)" d="M0 0h75v83H0z"/></clipPath><clipPath id="clip1"><path fill="#fff" transform="translate(69 55)" d="M0 0h70v150H0z"/></clipPath><clipPath id="clip2"><path fill="#fff" transform="translate(242 55)" d="M0 0h70v150H0z"/></clipPath><clipPath id="clip3"><path fill="#fff" transform="translate(275 378)" d="M0 0h68v69H0z"/></clipPath><clipPath id="clip4"><path fill="#fff" transform="translate(121 199)" d="M0 0h132v93H0z"/></clipPath><clipPath id="clip5"><path fill="#fff" transform="translate(145 225)" d="M0 0h65v7H0z"/></clipPath><clipPath id="clip6"><path fill="#fff" transform="translate(31 391)" d="M0 0h98v52H0z"/></clipPath><clipPath id="clip7"><path fill="#fff" transform="translate(71 304)" d="M0 0h72v80H0z"/></clipPath><clipPath id="clip8"><path fill="#fff" transform="translate(230 304)" d="M0 0h72v80H0z"/></clipPath></defs></svg>