<svg width="35" height="25" viewBox="0 0 35 25" fill="none" xmlns="http://www.w3.org/2000/svg">
<path d="M31.1593 24.1812H3.20842C1.45352 24.1812 0.0283203 22.7544 0.0283203 20.9975V3.18369C0.0283203 1.42681 1.45352 0 3.20842 0H31.1593C32.9142 0 34.3393 1.42681 34.3393 3.18369V20.9975C34.3393 22.7544 32.9142 24.1812 31.1593 24.1812Z" fill="#36495D"/>
<path d="M20.0662 6.9104H14.3016V17.2814H20.0662V6.9104Z" fill="#F16522"/>
<path d="M14.6632 12.0961C14.6632 9.98785 15.6524 8.12449 17.1839 6.91064C16.0671 6.02687 14.6526 5.50513 13.1104 5.50513C9.47296 5.50513 6.52686 8.45457 6.52686 12.0961C6.52686 15.7377 9.47296 18.6871 13.1104 18.6871C14.642 18.6871 16.0565 18.1654 17.1839 17.2816C15.6524 16.0677 14.6632 14.1937 14.6632 12.0961Z" fill="#E41B24"/>
<path d="M27.841 12.0959C27.841 15.7374 24.8949 18.6869 21.2575 18.6869C19.7259 18.6869 18.3114 18.1651 17.184 17.2814C18.7155 16.0782 19.694 14.2042 19.694 12.0959C19.694 9.98764 18.7155 8.12427 17.184 6.91042C18.3007 6.02665 19.7153 5.50491 21.2575 5.50491C24.8949 5.49426 27.841 8.45435 27.841 12.0959ZM27.2135 16.174V15.9611H27.2986V15.9185H27.0859V15.9611H27.171V16.174H27.2135ZM27.6389 16.174V15.9185H27.5751L27.5007 16.0995L27.4262 15.9185H27.3624V16.174H27.405V15.9823L27.4794 16.1527H27.5326L27.607 15.9823V16.174H27.6389Z" fill="#F89E1C"/>
</svg>
