<svg width="16" height="18" viewBox="0 0 16 18" fill="none" xmlns="http://www.w3.org/2000/svg">
<path d="M1 2C0.4375 2 0 2.46875 0 3V17.5C0 17.7812 0.21875 18 0.5 18H1.5C1.75 18 2 17.7812 2 17.5V3C2 2.46875 1.53125 2 1 2ZM9.34375 11.5C7.5625 11.0312 5.875 10.5938 3 11.8438V14C8.78125 11.125 9.90625 15.6875 15.4062 13.2812C15.75 13.125 16 12.7812 16 12.4062V11.2812C14.625 11.8125 13.4688 12.0312 12.4688 12.0312C11.3125 12.0312 10.3438 11.75 9.34375 11.5ZM9.34375 8.5C7.5625 8.03125 5.875 7.59375 3 8.84375V10.7812C5.9375 9.59375 7.8125 10.0625 9.625 10.5312C11.4062 11 13.0938 11.4375 16 10.1875V8.25C14.625 8.8125 13.4688 9.03125 12.4688 9.03125C11.3125 9.03125 10.3438 8.75 9.34375 8.5ZM9.65625 4.5625C11.2812 5.0625 12.6875 5.46875 16 3.9375V2.96875C16 2.1875 15.1562 1.78125 14.4375 2.15625C9.09375 4.875 9.53125 0.0625 3 3.03125V7.78125C5.9375 6.59375 7.8125 7.0625 9.625 7.53125C11.4062 8 13.0938 8.4375 16 7.1875V5.03125C14.3125 5.78125 13.0625 6.03125 12.0312 6.03125C11.0312 6.03125 10.1875 5.78125 9.375 5.53125C9.25 5.46875 9.125 5.4375 9 5.40625V4.375C9.21875 4.4375 9.4375 4.5 9.65625 4.5625ZM5 6.03125C4.71875 6.03125 4.5 5.78125 4.5 5.53125C4.5 5.25 4.71875 5.03125 5 5.03125C5.25 5.03125 5.5 5.25 5.5 5.53125C5.5 5.78125 5.25 6.03125 5 6.03125ZM5 4.28125C4.71875 4.28125 4.5 4.0625 4.5 3.78125C4.5 3.5 4.71875 3.28125 5 3.28125C5.25 3.28125 5.5 3.5 5.5 3.78125C5.5 4.0625 5.25 4.28125 5 4.28125ZM7 5.78125C6.71875 5.78125 6.5 5.5625 6.5 5.28125C6.5 5 6.71875 4.78125 7 4.78125C7.25 4.78125 7.5 5 7.5 5.28125C7.5 5.53125 7.25 5.78125 7 5.78125ZM7 4.03125C6.71875 4.03125 6.5 3.8125 6.5 3.53125C6.5 3.25 6.71875 3.03125 7 3.03125C7.25 3.03125 7.5 3.25 7.5 3.53125C7.5 3.8125 7.25 4.03125 7 4.03125Z" fill="white"/>
</svg>
