<svg width="36" height="25" viewBox="0 0 36 25" fill="none" xmlns="http://www.w3.org/2000/svg">
<path d="M31.8275 24.1812H3.88725C2.13235 24.1812 0.707153 22.7544 0.707153 20.9975V3.18369C0.707153 1.42681 2.13235 0 3.88725 0H31.8381C33.593 0 35.0182 1.42681 35.0182 3.18369V20.9975C35.0076 22.7544 33.5824 24.1812 31.8275 24.1812Z" fill="#253B80"/>
<path d="M8.93918 10.6376C8.83283 11.3084 8.32231 11.3084 7.83306 11.3084H7.5459L7.74798 10.052C7.75861 9.97743 7.82243 9.92419 7.89688 9.92419H8.02451C8.36485 9.92419 8.68392 9.92419 8.84346 10.1159C8.94982 10.233 8.98173 10.4033 8.93918 10.6376ZM8.72647 8.89136H6.85457C6.72694 8.89136 6.62058 8.98719 6.59931 9.11496L5.84417 13.9171C5.83354 14.0129 5.89735 14.0981 5.99307 14.0981H6.88648C7.01411 14.0981 7.12047 14.0023 7.14174 13.8745L7.34382 12.5755C7.36509 12.4477 7.47145 12.3519 7.59908 12.3519H8.19468C9.42843 12.3519 10.141 11.7556 10.3218 10.5737C10.4069 10.052 10.3218 9.64735 10.0878 9.37051C9.82195 9.05107 9.35398 8.89136 8.72647 8.89136Z" fill="white"/>
<path d="M13.0659 12.3622C12.9808 12.8733 12.5766 13.214 12.0555 13.214C11.8002 13.214 11.5875 13.1288 11.4598 12.9691C11.3322 12.8094 11.279 12.5858 11.3216 12.3409C11.4067 11.8298 11.8108 11.4784 12.3213 11.4784C12.5766 11.4784 12.7787 11.5636 12.917 11.7233C13.0552 11.8937 13.1084 12.1173 13.0659 12.3622ZM14.3102 10.6159H13.4168C13.3424 10.6159 13.2786 10.6692 13.2679 10.7437L13.2254 10.9993L13.1616 10.9034C12.9701 10.6266 12.5341 10.5308 12.1086 10.5308C11.1195 10.5308 10.2793 11.2761 10.1091 12.3302C10.024 12.852 10.141 13.3524 10.4388 13.7038C10.7153 14.0232 11.0982 14.1617 11.5662 14.1617C12.3639 14.1617 12.8 13.6506 12.8 13.6506L12.7574 13.8955C12.7468 13.9913 12.8106 14.0765 12.9063 14.0765H13.7146C13.8423 14.0765 13.9486 13.9806 13.9699 13.8529L14.4485 10.7863C14.4804 10.7011 14.406 10.6159 14.3102 10.6159Z" fill="white"/>
<path d="M19.0857 10.616H18.1817C18.0966 10.616 18.0115 10.6586 17.969 10.7331L16.7246 12.5645L16.2034 10.8076C16.1715 10.7011 16.0652 10.6266 15.9588 10.6266H15.0654C14.9591 10.6266 14.8846 10.7331 14.9165 10.8289L15.9056 13.7358L14.9697 15.0561C14.8952 15.1626 14.9697 15.301 15.0973 15.301H15.9907C16.0758 15.301 16.1609 15.2584 16.2034 15.1945L19.2134 10.8609C19.2772 10.7544 19.2027 10.616 19.0857 10.616Z" fill="white"/>
<path d="M22.2765 10.6371C22.1701 11.3079 21.6596 11.3079 21.1704 11.3079H20.8938L21.0959 10.0515C21.1065 9.97695 21.1704 9.92371 21.2448 9.92371H21.3724C21.7128 9.92371 22.0319 9.92371 22.1914 10.1154C22.2765 10.2325 22.3084 10.4029 22.2765 10.6371ZM22.0531 8.89087H20.1812C20.0536 8.89087 19.9472 8.9867 19.926 9.11447L19.1708 13.9166C19.1602 14.0125 19.224 14.0976 19.3197 14.0976H20.277C20.362 14.0976 20.4471 14.0338 20.4578 13.9486L20.6705 12.5857C20.6917 12.4579 20.7981 12.3621 20.9257 12.3621H21.5213C22.7551 12.3621 23.4677 11.7658 23.6485 10.5839C23.7336 10.0621 23.6485 9.65751 23.4145 9.38067C23.1592 9.05059 22.6806 8.89087 22.0531 8.89087Z" fill="white"/>
<path d="M26.3925 12.3622C26.3074 12.8733 25.9032 13.214 25.3821 13.214C25.1268 13.214 24.9141 13.1288 24.7865 12.9691C24.6589 12.8094 24.6057 12.5858 24.6482 12.3409C24.7333 11.8298 25.1375 11.4784 25.648 11.4784C25.9032 11.4784 26.1053 11.5636 26.2436 11.7233C26.3819 11.8937 26.435 12.1173 26.3925 12.3622ZM27.6475 10.6159H26.7541C26.6797 10.6159 26.6158 10.6692 26.6052 10.7437L26.5627 10.9993L26.4989 10.9034C26.3074 10.6266 25.8713 10.5308 25.4459 10.5308C24.4568 10.5308 23.6166 11.2761 23.4464 12.3302C23.3613 12.852 23.4783 13.3524 23.7761 13.7038C24.0526 14.0232 24.4355 14.1617 24.9035 14.1617C25.7012 14.1617 26.1372 13.6506 26.1372 13.6506L26.0947 13.8955C26.0841 13.9913 26.1479 14.0765 26.2436 14.0765H27.0519C27.1795 14.0765 27.2859 13.9806 27.3072 13.8529L27.7964 10.7863C27.8177 10.7011 27.7432 10.6159 27.6475 10.6159Z" fill="white"/>
<path d="M28.7005 9.01879L27.9347 13.9061C27.9241 14.002 27.9879 14.0871 28.0836 14.0871H28.8601C28.9877 14.0871 29.094 13.9913 29.1153 13.8635L29.8705 9.06138C29.8811 8.96555 29.8173 8.88037 29.7216 8.88037H28.8601C28.775 8.89102 28.7112 8.94426 28.7005 9.01879Z" fill="white"/>
</svg>
