<svg width="37" height="31" fill="none" xmlns="http://www.w3.org/2000/svg"><path d="M8.5 24.593a2.721 2.721 0 00-1.585.514 2.707 2.707 0 00-.985 1.34H1l-1 1.495h5.87c.142.588.479 1.112.956 1.487a2.71 2.71 0 004.304-1.487h24.825l1-1.495h-25.88a2.707 2.707 0 00-.987-1.342 2.721 2.721 0 00-1.588-.512zm0 3.912a1.218 1.218 0 01-1.123-.748 1.207 1.207 0 01.264-1.32 1.216 1.216 0 012.074.857A1.209 1.209 0 018.5 28.505z" fill="url(#paint0_linear_1402:1644)"/><path d="M19.18 12.244a2.726 2.726 0 00-1.629.545c-.47.352-.812.846-.976 1.409H1l-1 1.495h16.575c.162.563.504 1.06.974 1.412a2.716 2.716 0 004.236-1.412h14.17l1-1.495H21.8a2.72 2.72 0 00-2.62-1.953zm0 3.912a1.218 1.218 0 01-1.126-.744 1.207 1.207 0 01.882-1.654 1.22 1.22 0 011.249.514 1.208 1.208 0 01-.54 1.792 1.212 1.212 0 01-.465.092z" fill="url(#paint1_linear_1402:1644)"/><path d="M8.22 5.402a2.714 2.714 0 002.605-1.954h25.13l1-1.494h-26.13A2.701 2.701 0 009.85.547a2.716 2.716 0 00-4.23 1.407H1L0 3.449h5.62a2.7 2.7 0 00.973 1.409c.469.352 1.04.543 1.627.544zm0-3.907a1.213 1.213 0 011.118.745 1.202 1.202 0 01-.882 1.644 1.214 1.214 0 01-1.242-.513 1.203 1.203 0 01.543-1.784c.147-.06.304-.092.463-.092z" fill="url(#paint2_linear_1402:1644)"/><defs><linearGradient id="paint0_linear_1402:1644" x1="-1.54" y1="27.256" x2="38.613" y2="27.256" gradientUnits="userSpaceOnUse"><stop stop-color="#5B40D7"/><stop offset="1" stop-color="#E85F62"/></linearGradient><linearGradient id="paint1_linear_1402:1644" x1="-1.54" y1="14.902" x2="38.613" y2="14.902" gradientUnits="userSpaceOnUse"><stop stop-color="#5B40D7"/><stop offset="1" stop-color="#E85F62"/></linearGradient><linearGradient id="paint2_linear_1402:1644" x1="-1.54" y1="2.66" x2="38.613" y2="2.66" gradientUnits="userSpaceOnUse"><stop stop-color="#5B40D7"/><stop offset="1" stop-color="#E85F62"/></linearGradient></defs></svg>