<svg width="15" height="16" viewBox="0 0 15 16" fill="none" xmlns="http://www.w3.org/2000/svg">
<path d="M7.51609 8C9.70359 8 11.5161 6.21875 11.5161 4C11.5161 1.8125 9.70359 0 7.51609 0C5.29734 0 3.51609 1.8125 3.51609 4C3.51609 6.21875 5.29734 8 7.51609 8ZM10.2973 9H9.76609C9.07859 9.34375 8.32859 9.5 7.51609 9.5C6.70359 9.5 5.92234 9.34375 5.23484 9H4.70359C2.39109 9 0.516091 10.9062 0.516091 13.2188V14.5C0.516091 15.3438 1.17234 16 2.01609 16H13.0161C13.8286 16 14.5161 15.3438 14.5161 14.5V13.2188C14.5161 10.9062 12.6098 9 10.2973 9Z" fill="white"/>
</svg>
