<svg width="35" height="25" viewBox="0 0 35 25" fill="none" xmlns="http://www.w3.org/2000/svg">
<path d="M31.4986 24.1812H3.54778C1.79287 24.1812 0.367676 22.7544 0.367676 20.9975V3.18369C0.367676 1.42681 1.79287 0 3.54778 0H31.4986C33.2535 0 34.6787 1.42681 34.6787 3.18369V20.9975C34.6681 22.7544 33.2535 24.1812 31.4986 24.1812Z" fill="#0066B2"/>
<path d="M16.0662 15.8759H14.2794L15.3962 9.00806H17.183L16.0662 15.8759Z" fill="white"/>
<path d="M12.7798 9.00903L11.078 13.7367L10.876 12.7145L10.2697 9.62661C10.2697 9.62661 10.1953 9.00903 9.41886 9.00903H6.61101L6.5791 9.12616C6.5791 9.12616 7.4406 9.30717 8.451 9.9141L10.0038 15.8875H11.8651L14.6942 9.00903H12.7798Z" fill="white"/>
<path d="M26.8296 15.8759H28.4675L27.0423 9.00806H25.6065C24.9471 9.00806 24.7769 9.51915 24.7769 9.51915L22.1073 15.8759H23.9686L24.3408 14.8537H26.6169L26.8296 15.8759ZM24.862 13.4482L25.7979 10.8821L26.3297 13.4482H24.862V13.4482Z" fill="white"/>
<path d="M22.2563 10.6586L22.5115 9.17851C22.5115 9.17851 21.7245 8.88037 20.9055 8.88037C20.0228 8.88037 17.9169 9.26369 17.9169 11.159C17.9169 12.9372 20.3844 12.9585 20.3844 13.8848C20.3844 14.8112 18.1721 14.6515 17.4383 14.0658L17.1724 15.6098C17.1724 15.6098 17.97 15.9931 19.1932 15.9931C20.4163 15.9931 22.2563 15.3649 22.2563 13.6399C22.2563 11.8511 19.7675 11.6914 19.7675 10.9141C19.7462 10.1368 21.4905 10.2433 22.2563 10.6586Z" fill="white"/>
<path d="M10.8759 12.7145L10.2697 9.62661C10.2697 9.62661 10.1952 9.00903 9.41884 9.00903H6.61101L6.5791 9.12616C6.5791 9.12616 7.92984 9.403 9.2274 10.4571C10.4611 11.4687 10.8759 12.7145 10.8759 12.7145Z" fill="#F9A533"/>
</svg>
